<?xml version="1.0" encoding="UTF-8" standalone="no"?>
<!-- Created with Inkscape (http://www.inkscape.org/) -->

<svg
   width="40mm"
   height="40mm"
   viewBox="0 0 40 40"
   version="1.1"
   id="svg1"
   inkscape:version="1.3.2 (091e20e, 2023-11-25, custom)"
   sodipodi:docname="Python-logo.svg"
   xmlns:inkscape="http://www.inkscape.org/namespaces/inkscape"
   xmlns:sodipodi="http://sodipodi.sourceforge.net/DTD/sodipodi-0.dtd"
   xmlns:xlink="http://www.w3.org/1999/xlink"
   xmlns="http://www.w3.org/2000/svg"
   xmlns:svg="http://www.w3.org/2000/svg">
  <sodipodi:namedview
     id="namedview1"
     pagecolor="#ffffff"
     bordercolor="#000000"
     borderopacity="0.25"
     inkscape:showpageshadow="2"
     inkscape:pageopacity="0.0"
     inkscape:pagecheckerboard="0"
     inkscape:deskcolor="#d1d1d1"
     inkscape:document-units="mm"
     inkscape:zoom="5.5375421"
     inkscape:cx="106.72605"
     inkscape:cy="151.60156"
     inkscape:window-width="1920"
     inkscape:window-height="991"
     inkscape:window-x="-9"
     inkscape:window-y="-9"
     inkscape:window-maximized="1"
     inkscape:current-layer="layer1" />
  <defs
     id="defs1">
    <linearGradient
       inkscape:collect="always"
       xlink:href="#linearGradient4689"
       id="linearGradient1478"
       gradientUnits="userSpaceOnUse"
       gradientTransform="matrix(0.562541,0,0,0.567972,-14.99112,-11.702371)"
       x1="26.648937"
       y1="20.603781"
       x2="135.66525"
       y2="114.39767" />
    <linearGradient
       id="linearGradient4689">
      <stop
         style="stop-color:#5a9fd4;stop-opacity:1;"
         offset="0"
         id="stop4691" />
      <stop
         style="stop-color:#306998;stop-opacity:1;"
         offset="1"
         id="stop4693" />
    </linearGradient>
    <linearGradient
       inkscape:collect="always"
       xlink:href="#linearGradient4671"
       id="linearGradient1475"
       gradientUnits="userSpaceOnUse"
       gradientTransform="matrix(0.562541,0,0,0.567972,-14.99112,-11.702371)"
       x1="150.96111"
       y1="192.35176"
       x2="112.03144"
       y2="137.27299" />
    <linearGradient
       id="linearGradient4671">
      <stop
         style="stop-color:#ffd43b;stop-opacity:1;"
         offset="0"
         id="stop4673" />
      <stop
         style="stop-color:#ffe873;stop-opacity:1"
         offset="1"
         id="stop4675" />
    </linearGradient>
  </defs>
  <g
     inkscape:label="Layer 1"
     inkscape:groupmode="layer"
     id="layer1">
    <g
       id="g4"
       transform="matrix(0.26458333,0,0,0.26458333,5.4231737,1.8389476)">
      <path
         style="fill:url(#linearGradient1478);fill-opacity:1"
         d="M 54.918785,9.1927389e-4 C 50.335132,0.02221727 45.957846,0.41313697 42.106285,1.0946693 30.760069,3.0991731 28.700036,7.2947714 28.700035,15.032169 v 10.21875 h 26.8125 v 3.40625 h -26.8125 -10.0625 c -7.792459,0 -14.6157588,4.683717 -16.7499998,13.59375 -2.46181998,10.212966 -2.57101508,16.586023 0,27.25 1.9059283,7.937852 6.4575432,13.593748 14.2499998,13.59375 h 9.21875 v -12.25 c 0,-8.849902 7.657144,-16.656248 16.75,-16.65625 h 26.78125 c 7.454951,0 13.406253,-6.138164 13.40625,-13.625 v -25.53125 c 0,-7.2663386 -6.12998,-12.7247771 -13.40625,-13.9374997 C 64.281548,0.32794397 59.502438,-0.02037903 54.918785,9.1927389e-4 Z m -14.5,8.21875012611 c 2.769547,0 5.03125,2.2986456 5.03125,5.1249996 -2e-6,2.816336 -2.261703,5.09375 -5.03125,5.09375 -2.779476,-1e-6 -5.03125,-2.277415 -5.03125,-5.09375 -10e-7,-2.826353 2.251774,-5.1249996 5.03125,-5.1249996 z"
         id="path1948" />
      <path
         style="fill:url(#linearGradient1475);fill-opacity:1"
         d="m 85.637535,28.657169 v 11.90625 c 0,9.230755 -7.825895,16.999999 -16.75,17 h -26.78125 c -7.335833,0 -13.406249,6.278483 -13.40625,13.625 v 25.531247 c 0,7.266344 6.318588,11.540324 13.40625,13.625004 8.487331,2.49561 16.626237,2.94663 26.78125,0 6.750155,-1.95439 13.406253,-5.88761 13.40625,-13.625004 V 86.500919 h -26.78125 v -3.40625 h 26.78125 13.406254 c 7.792461,0 10.696251,-5.435408 13.406241,-13.59375 2.79933,-8.398886 2.68022,-16.475776 0,-27.25 -1.92578,-7.757441 -5.60387,-13.59375 -13.406241,-13.59375 z m -15.0625,64.65625 c 2.779478,3e-6 5.03125,2.277417 5.03125,5.093747 -2e-6,2.826354 -2.251775,5.125004 -5.03125,5.125004 -2.76955,0 -5.03125,-2.29865 -5.03125,-5.125004 2e-6,-2.81633 2.261697,-5.093747 5.03125,-5.093747 z"
         id="path1950" />
    </g>
    <path
       style="font-weight:bold;font-size:7.05556px;font-family:Arial;-inkscape-font-specification:'Arial Bold';fill-opacity:1;stroke-width:0.265;stroke-dasharray:none"
       d="m 8.5895407,37.455485 v -5.05052 h 1.6364203 q 0.93018,0 1.21268,0.0758 0.43408,0.11368 0.72692,0.49609 0.29283,0.37896 0.29283,0.98185 0,0.46509 -0.16881,0.78204 -0.16881,0.31695 -0.43064,0.49954 -0.25838,0.17915 -0.5271,0.23771 -0.36518,0.0724 -1.05764,0.0724 H 9.6092907 v 1.90514 z m 1.01975,-4.19613 v 1.43316 h 0.5581103 q 0.60289,0 0.80615,-0.0792 0.20326,-0.0792 0.31695,-0.24804 0.11713,-0.16881 0.11713,-0.39275 0,-0.2756 -0.16192,-0.45475 -0.16192,-0.17914 -0.40996,-0.22393 -0.18259,-0.0345 -0.73381,-0.0345 z m 3.2211703,0.53743 h 1.03008 l 0.87506,2.59761 0.85438,-2.59761 h 1.00253 l -1.29192,3.52089 -0.23082,0.63735 q -0.12747,0.32039 -0.2446,0.4892 -0.11369,0.16881 -0.26527,0.27216 -0.14814,0.1068 -0.36863,0.16537 -0.21704,0.0586 -0.49265,0.0586 -0.27905,0 -0.54777,-0.0586 l -0.0861,-0.75792 q 0.22738,0.0448 0.40997,0.0448 0.33762,0 0.49954,-0.19981 0.16192,-0.19637 0.24805,-0.50299 z m 6.05993,0 v 0.77171 h -0.66146 v 1.4745 q 0,0.44786 0.0172,0.52365 0.0207,0.0724 0.0861,0.12058 0.0689,0.0482 0.16536,0.0482 0.13436,0 0.3893,-0.093 l 0.0827,0.75104 q -0.33762,0.14469 -0.76481,0.14469 -0.26183,0 -0.47198,-0.0861 -0.21015,-0.0896 -0.31006,-0.22737 -0.0965,-0.14125 -0.13436,-0.37896 -0.031,-0.16881 -0.031,-0.68213 v -1.59508 h -0.44442 v -0.77171 h 0.44442 v -0.72691 l 0.97152,-0.565 v 1.29191 z m 1.63642,-1.39182 v 1.85691 q 0.46853,-0.54777 1.11965,-0.54777 0.33418,0 0.6029,0.12403 0.26871,0.12402 0.40307,0.31694 0.13781,0.19293 0.18604,0.4272 0.0517,0.23426 0.0517,0.72691 v 2.1463 h -0.96807 v -1.9327 q 0,-0.57533 -0.0551,-0.73036 -0.0551,-0.15503 -0.19637,-0.2446 -0.13781,-0.093 -0.34796,-0.093 -0.24116,0 -0.43064,0.11713 -0.18948,0.11713 -0.27905,0.35485 -0.0861,0.23426 -0.0861,0.69591 v 1.83279 h -0.96808 v -5.05052 z m 3.12126,3.16949 q 0,-0.48231 0.23771,-0.93362 0.23771,-0.4513 0.67179,-0.68902 0.43753,-0.23771 0.97496,-0.23771 0.83027,0 1.36082,0.54088 0.53054,0.53744 0.53054,1.36082 0,0.83026 -0.53743,1.37803 -0.53399,0.54433 -1.34703,0.54433 -0.50299,0 -0.96119,-0.22738 -0.45475,-0.22737 -0.69246,-0.6649 -0.23771,-0.44097 -0.23771,-1.07143 z m 0.99218,0.0517 q 0,0.54433 0.25839,0.83371 0.25838,0.28939 0.63734,0.28939 0.37896,0 0.6339,-0.28939 0.25838,-0.28938 0.25838,-0.8406 0,-0.53743 -0.25838,-0.82682 -0.25494,-0.28939 -0.6339,-0.28939 -0.37896,0 -0.63734,0.28939 -0.25839,0.28939 -0.25839,0.83371 z m 6.86953,1.82935 h -0.96807 v -1.86725 q 0,-0.59255 -0.062,-0.76481 -0.062,-0.1757 -0.20326,-0.27216 -0.13781,-0.0965 -0.33418,-0.0965 -0.25149,0 -0.45131,0.1378 -0.19981,0.13781 -0.2756,0.36518 -0.0724,0.22738 -0.0724,0.84061 v 1.65709 h -0.96808 v -3.6587 h 0.89917 v 0.53744 q 0.47887,-0.62012 1.20579,-0.62012 0.32039,0 0.58566,0.11714 0.26528,0.11368 0.39964,0.29283 0.1378,0.17914 0.18948,0.40652 0.0551,0.22738 0.0551,0.65112 z"
       id="text10"
       aria-label="Python" />
  </g>
</svg>
