0
SECTION
2
HEADER
9
$INSUNITS
70
4
9
$ACADVER
1
AC1014
9
$HANDSEED
5
FFFF
0
ENDSEC
0
SECTION
2
TABLES
0
TABLE
2
VPORT
5
8
100
AcDbSymbolTable
0
ENDTAB
0
TABLE
2
LTYPE
5
5
100
AcDbSymbolTable
0
LTYPE
5
14
100
AcDbSymbolTableRecord
100
AcDbLinetypeTableRecord
2
BYBLOCK
70
0
0
LTYPE
5
15
100
AcDbSymbolTableRecord
100
AcDbLinetypeTableRecord
2
BYLAYER
70
0
0
ENDTAB
0
TABLE
2
LAYER
5
2
100
AcDbSymbolTable
70
2
0
LAYER
5
50
100
AcDbSymbolTableRecord
100
AcDbLayerTableRecord
2
0
70
0
6
CONTINUOUS
0
ENDTAB
0
TABLE
2
STYLE
5
3
100
AcDbSymbolTable
70
1
0
STYLE
5
11
100
AcDbSymbolTableRecord
100
AcDbTextStyleTableRecord
2
STANDARD
70
0
0
ENDTAB
0
TABLE
2
VIEW
5
6
100
AcDbSymbolTable
70
0
0
ENDTAB
0
TABLE
2
UCS
5
7
100
AcDbSymbolTable
70
0
0
ENDTAB
0
TABLE
2
APPID
5
9
100
AcDbSymbolTable
70
2
0
APPID
5
12
100
AcDbSymbolTableRecord
100
AcDbRegAppTableRecord
2
ACAD
70
0
0
ENDTAB
0
TABLE
2
DIMSTYLE
5
A
100
AcDbSymbolTable
70
1
0
ENDTAB
0
TABLE
2
BLOCK_RECORD
5
1
100
AcDbSymbolTable
70
1
0
BLOCK_RECORD
5
1F
100
AcDbSymbolTableRecord
100
AcDbBlockTableRecord
2
*MODEL_SPACE
0
BLOCK_RECORD
5
1B
100
AcDbSymbolTableRecord
100
AcDbBlockTableRecord
2
*PAPER_SPACE
0
ENDTAB
0
ENDSEC
0
SECTION
2
BLOCKS
0
BLOCK
5
20
100
AcDbEntity
100
AcDbBlockBegin
2
*MODEL_SPACE
0
ENDBLK
5
21
100
AcDbEntity
100
AcDbBlockEnd
0
BLOCK
5
1C
100
AcDbEntity
100
AcDbBlockBegin
2
*PAPER_SPACE
0
ENDBLK
5
1D
100
AcDbEntity
100
AcDbBlockEnd
0
ENDSEC
0
SECTION
2
ENTITIES
0
LINE
5
100
100
AcDbEntity
8
0
100
AcDbLine
10
-5.2128875977363462e-12
20
-60.500454085197873
30
0
11
2.3267904026308983e-12
21
60.50045408517407
31
0
0
LWPOLYLINE
5
101
100
AcDbEntity
8
0
100
AcDbPolyline
90
30
70
1
43
0.0
10
-1.6000000000376917
20
60.500454085172855
10
-1.6000000000170589
20
40.500454086737612
10
1.5999999999833809
20
40.500454086713361
10
1.6000000000116943
20
60.500454085174923
10
34.929953452191825
20
60.500454085193823
10
51.59493017823651
20
31.635867688675518
10
34.274422103911576
20
21.635867689438676
10
35.874422103890723
20
18.864586397315929
10
53.194930178262609
20
28.864586396522874
10
69.859906904368046
20
-1.092459456231154e-12
10
53.194930178275058
20
-28.864586396499131
10
35.874422103928609
20
-18.864586397298954
10
34.274422103907348
20
-21.635867689397394
10
51.594930178250848
20
-31.635867688653448
10
34.929953452182168
20
-60.500454085197894
10
1.6000000000385799
20
-60.500454085175249
10
1.6000000000170667
20
-40.500454086722549
10
-1.5999999999833825
20
-40.50045408674756
10
-1.6000000000117298
20
-60.500454085176337
10
-34.929953452192585
20
-60.500454085197852
10
-51.594930178235899
20
-31.635867688674971
10
-34.274422103911569
20
-21.635867689438694
10
-35.874422103890716
20
-18.864586397315954
10
-53.194930178262602
20
-28.864586396522903
10
-69.859906904366753
20
8.6419760236822185e-12
10
-53.194930178274731
20
28.864586396499689
10
-35.874422103928623
20
18.864586397298954
10
-34.274422103907334
20
21.63586768939739
10
-51.594930178250856
20
31.63586768865343
10
-34.929953452176861
20
60.50045408515399
0
ENDSEC
0
SECTION
2
OBJECTS
0
DICTIONARY
5
C
100
AcDbDictionary
3
ACAD_GROUP
350
D
3
ACAD_MLINESTYLE
350
17
0
DICTIONARY
5
D
100
AcDbDictionary
0
DICTIONARY
5
1A
330
C
100
AcDbDictionary
0
DICTIONARY
5
17
100
AcDbDictionary
0
ENDSEC
0
EOF
