  0
SECTION
  2
HEADER
  9
$ACADVER
  1
AC1014
  9
$HANDSEED
  5
FFFF
  9
$INSUNITS
 70
     0
  9
$MEASUREMENT
 70
     1
  0
ENDSEC
  0
SECTION
  2
TABLES
  0
TABLE
  2
VPORT
  5
8
330
0
100
AcDbSymbolTable
 70
     4
  0
VPORT
  5
2E
330
8
100
AcDbSymbolTableRecord
100
AcDbViewportTableRecord
  2
*ACTIVE
 70
     0
 10
0.0
 20
0.0
 11
1.0
 21
1.0
 12
210.0
 22
148.5
 13
0.0
 23
0.0
 14
10.0
 24
10.0
 15
10.0
 25
10.0
 16
0.0
 26
0.0
 36
1.0
 17
0.0
 27
0.0
 37
0.0
 40
341.0
 41
1.24
 42
50.0
 43
0.0
 44
0.0
 50
0.0
 51
0.0
 71
     0
 72
   100
 73
     1
 74
     3
 75
     0
 76
     0
 77
     0
 78
     0
  0
ENDTAB
  0
TABLE
  2
LTYPE
  5
5
330
0
100
AcDbSymbolTable
 70
     1
  0
LTYPE
  5
14
330
5
100
AcDbSymbolTableRecord
100
AcDbLinetypeTableRecord
  2
BYBLOCK
 70
     0
  3

 72
    65
 73
     0
 40
0.0
  0
LTYPE
  5
15
330
5
100
AcDbSymbolTableRecord
100
AcDbLinetypeTableRecord
  2
BYLAYER
 70
     0
  3

 72
    65
 73
     0
 40
0.0
  0
LTYPE
  5
16
330
5
100
AcDbSymbolTableRecord
100
AcDbLinetypeTableRecord
  2
CONTINUOUS
 70
     0
  3
Solid line
 72
    65
 73
     0
 40
0.0
  0
ENDTAB
  0
TABLE
  2
LAYER
  5
2
100
AcDbSymbolTable
 70
1
  0
LAYER
  5
50
100
AcDbSymbolTableRecord
100
AcDbLayerTableRecord
  2
0
 70
0
  6
CONTINUOUS
  0
ENDTAB
  0
TABLE
  2
STYLE
  5
3
330
0
100
AcDbSymbolTable
 70
     1
  0
STYLE
  5
11
330
3
100
AcDbSymbolTableRecord
100
AcDbTextStyleTableRecord
  2
STANDARD
 70
     0
 40
0.0
 41
1.0
 50
0.0
 71
     0
 42
2.5
  3
txt
  4

  0
ENDTAB
  0
TABLE
  2
VIEW
  5
6
330
0
100
AcDbSymbolTable
 70
     0
  0
ENDTAB
  0
TABLE
  2
UCS
  5
7
330
0
100
AcDbSymbolTable
 70
     0
  0
ENDTAB
  0
TABLE
  2
APPID
  5
9
330
0
100
AcDbSymbolTable
 70
     2
  0
APPID
  5
12
330
9
100
AcDbSymbolTableRecord
100
AcDbRegAppTableRecord
  2
ACAD
 70
     0
  0
ENDTAB
  0
TABLE
  2
DIMSTYLE
  5
A
330
0
100
AcDbSymbolTable
 70
     1
  0
DIMSTYLE
105
27
330
A
100
AcDbSymbolTableRecord
100
AcDbDimStyleTableRecord
  2
ISO-25
 70
     0
  3

  4

  5

  6

  7

 40
1.0
 41
2.5
 42
0.625
 43
3.75
 44
1.25
 45
0.0
 46
0.0
 47
0.0
 48
0.0
140
2.5
141
2.5
142
0.0
143
0.03937007874016
144
1.0
145
0.0
146
1.0
147
0.625
 71
     0
 72
     0
 73
     0
 74
     0
 75
     0
 76
     0
 77
     1
 78
     8
170
     0
171
     3
172
     1
173
     0
174
     0
175
     0
176
     0
177
     0
178
     0
270
     2
271
     2
272
     2
273
     2
274
     3
340
11
275
     0
280
     0
281
     0
282
     0
283
     0
284
     8
285
     0
286
     0
287
     3
288
     0
  0
ENDTAB
  0
TABLE
  2
BLOCK_RECORD
  5
1
330
0
100
AcDbSymbolTable
 70
     1
  0
BLOCK_RECORD
  5
1F
330
1
100
AcDbSymbolTableRecord
100
AcDbBlockTableRecord
  2
*MODEL_SPACE
  0
BLOCK_RECORD
  5
1B
330
1
100
AcDbSymbolTableRecord
100
AcDbBlockTableRecord
  2
*PAPER_SPACE
  0
ENDTAB
  0
ENDSEC
  0
SECTION
  2
BLOCKS
  0
BLOCK
  5
20
330
1F
100
AcDbEntity
  8
0
100
AcDbBlockBegin
  2
*MODEL_SPACE
 70
     0
 10
0.0
 20
0.0
 30
0.0
  3
*MODEL_SPACE
  1

  0
ENDBLK
  5
21
330
1F
100
AcDbEntity
  8
0
100
AcDbBlockEnd
  0
BLOCK
  5
1C
330
1B
100
AcDbEntity
 67
     1
  8
0
100
AcDbBlockBegin
  2
*PAPER_SPACE
  1

  0
ENDBLK
  5
1D
330
1B
100
AcDbEntity
 67
     1
  8
0
100
AcDbBlockEnd
  0
ENDSEC
  0
SECTION
  2
ENTITIES
  0
SPLINE
  5
100
100
AcDbEntity
  8
0
 62
7
100
AcDbSpline
 70
8
 71
3
 72
8
 73
4
 74
0
 40
0
 40
0
 40
0
 40
0
 40
1
 40
1
 40
1
 40
1
 10
1955.000000
 20
1984.700000
 30
0.0
 10
1953.100000
 20
1984.000000
 30
0.0
 10
1918.200000
 20
1964.100000
 30
0.0
 10
1877.500000
 20
1940.600000
 30
0.0
  0
SPLINE
  5
101
100
AcDbEntity
  8
0
 62
7
100
AcDbSpline
 70
8
 71
3
 72
8
 73
4
 74
0
 40
0
 40
0
 40
0
 40
0
 40
1
 40
1
 40
1
 40
1
 10
1877.500000
 20
1940.600000
 30
0.0
 10
1798.000000
 20
1894.700000
 30
0.0
 10
1796.600000
 20
1893.800000
 30
0.0
 10
1794.000000
 20
1884.500000
 30
0.0
  0
SPLINE
  5
102
100
AcDbEntity
  8
0
 62
7
100
AcDbSpline
 70
8
 71
3
 72
8
 73
4
 74
0
 40
0
 40
0
 40
0
 40
0
 40
1
 40
1
 40
1
 40
1
 10
1794.000000
 20
1884.500000
 30
0.0
 10
1789.000000
 20
1866.700000
 30
0.0
 10
1805.200000
 20
1849.700000
 30
0.0
 10
1822.700000
 20
1854.300000
 30
0.0
  0
SPLINE
  5
103
100
AcDbEntity
  8
0
 62
7
100
AcDbSpline
 70
8
 71
3
 72
8
 73
4
 74
0
 40
0
 40
0
 40
0
 40
0
 40
1
 40
1
 40
1
 40
1
 10
1822.700000
 20
1854.300000
 30
0.0
 10
1827.200000
 20
1855.500000
 30
0.0
 10
1971.200000
 20
1937.900000
 30
0.0
 10
1978.700000
 20
1943.600000
 30
0.0
  0
SPLINE
  5
104
100
AcDbEntity
  8
0
 62
7
100
AcDbSpline
 70
8
 71
3
 72
8
 73
4
 74
0
 40
0
 40
0
 40
0
 40
0
 40
1
 40
1
 40
1
 40
1
 10
1978.700000
 20
1943.600000
 30
0.0
 10
1980.400000
 20
1944.900000
 30
0.0
 10
1983.100000
 20
1948.500000
 30
0.0
 10
1984.600000
 20
1951.500000
 30
0.0
  0
SPLINE
  5
105
100
AcDbEntity
  8
0
 62
7
100
AcDbSpline
 70
8
 71
3
 72
8
 73
4
 74
0
 40
0
 40
0
 40
0
 40
0
 40
1
 40
1
 40
1
 40
1
 10
1984.600000
 20
1951.500000
 30
0.0
 10
1986.900000
 20
1956.300000
 30
0.0
 10
1987.200000
 20
1957.900000
 30
0.0
 10
1986.800000
 20
1963.300000
 30
0.0
  0
SPLINE
  5
106
100
AcDbEntity
  8
0
 62
7
100
AcDbSpline
 70
8
 71
3
 72
8
 73
4
 74
0
 40
0
 40
0
 40
0
 40
0
 40
1
 40
1
 40
1
 40
1
 10
1986.800000
 20
1963.300000
 30
0.0
 10
1986.200000
 20
1970.400000
 30
0.0
 10
1984.500000
 20
1974.400000
 30
0.0
 10
1979.900000
 20
1978.900000
 30
0.0
  0
SPLINE
  5
107
100
AcDbEntity
  8
0
 62
7
100
AcDbSpline
 70
8
 71
3
 72
8
 73
4
 74
0
 40
0
 40
0
 40
0
 40
0
 40
1
 40
1
 40
1
 40
1
 10
1979.900000
 20
1978.900000
 30
0.0
 10
1978.200000
 20
1980.600000
 30
0.0
 10
1975.400000
 20
1982.800000
 30
0.0
 10
1973.700000
 20
1983.700000
 30
0.0
  0
SPLINE
  5
108
100
AcDbEntity
  8
0
 62
7
100
AcDbSpline
 70
8
 71
3
 72
8
 73
4
 74
0
 40
0
 40
0
 40
0
 40
0
 40
1
 40
1
 40
1
 40
1
 10
1973.700000
 20
1983.700000
 30
0.0
 10
1969.500000
 20
1985.800000
 30
0.0
 10
1959.400000
 20
1986.400000
 30
0.0
 10
1955.000000
 20
1984.700000
 30
0.0
  0
SPLINE
  5
109
100
AcDbEntity
  8
0
 62
7
100
AcDbSpline
 70
8
 71
3
 72
8
 73
4
 74
0
 40
0
 40
0
 40
0
 40
0
 40
1
 40
1
 40
1
 40
1
 10
2063.000000
 20
1984.400000
 30
0.0
 10
2057.100000
 20
1981.800000
 30
0.0
 10
2052.900000
 20
1977.900000
 30
0.0
 10
2050.400000
 20
1972.600000
 30
0.0
  0
SPLINE
  5
10a
100
AcDbEntity
  8
0
 62
7
100
AcDbSpline
 70
8
 71
3
 72
8
 73
4
 74
0
 40
0
 40
0
 40
0
 40
0
 40
1
 40
1
 40
1
 40
1
 10
2050.400000
 20
1972.600000
 30
0.0
 10
2046.200000
 20
1963.500000
 30
0.0
 10
2047.600000
 20
1952.900000
 30
0.0
 10
2053.900000
 20
1946.000000
 30
0.0
  0
SPLINE
  5
10b
100
AcDbEntity
  8
0
 62
7
100
AcDbSpline
 70
8
 71
3
 72
8
 73
4
 74
0
 40
0
 40
0
 40
0
 40
0
 40
1
 40
1
 40
1
 40
1
 10
2053.900000
 20
1946.000000
 30
0.0
 10
2058.600000
 20
1940.900000
 30
0.0
 10
2204.900000
 20
1856.200000
 30
0.0
 10
2212.300000
 20
1854.300000
 30
0.0
  0
SPLINE
  5
10c
100
AcDbEntity
  8
0
 62
7
100
AcDbSpline
 70
8
 71
3
 72
8
 73
4
 74
0
 40
0
 40
0
 40
0
 40
0
 40
1
 40
1
 40
1
 40
1
 10
2212.300000
 20
1854.300000
 30
0.0
 10
2216.000000
 20
1853.400000
 30
0.0
 10
2218.500000
 20
1853.300000
 30
0.0
 10
2221.900000
 20
1854.100000
 30
0.0
  0
SPLINE
  5
10d
100
AcDbEntity
  8
0
 62
7
100
AcDbSpline
 70
8
 71
3
 72
8
 73
4
 74
0
 40
0
 40
0
 40
0
 40
0
 40
1
 40
1
 40
1
 40
1
 10
2221.900000
 20
1854.100000
 30
0.0
 10
2232.300000
 20
1856.400000
 30
0.0
 10
2239.100000
 20
1863.100000
 30
0.0
 10
2241.200000
 20
1873.300000
 30
0.0
  0
SPLINE
  5
10e
100
AcDbEntity
  8
0
 62
7
100
AcDbSpline
 70
8
 71
3
 72
8
 73
4
 74
0
 40
0
 40
0
 40
0
 40
0
 40
1
 40
1
 40
1
 40
1
 10
2241.200000
 20
1873.300000
 30
0.0
 10
2242.800000
 20
1880.600000
 30
0.0
 10
2240.600000
 20
1888.000000
 30
0.0
 10
2235.200000
 20
1893.800000
 30
0.0
  0
SPLINE
  5
10f
100
AcDbEntity
  8
0
 62
7
100
AcDbSpline
 70
8
 71
3
 72
8
 73
4
 74
0
 40
0
 40
0
 40
0
 40
0
 40
1
 40
1
 40
1
 40
1
 10
2235.200000
 20
1893.800000
 30
0.0
 10
2232.500000
 20
1896.800000
 30
0.0
 10
2211.800000
 20
1909.200000
 30
0.0
 10
2157.000000
 20
1940.800000
 30
0.0
  0
SPLINE
  5
110
100
AcDbEntity
  8
0
 62
7
100
AcDbSpline
 70
8
 71
3
 72
8
 73
4
 74
0
 40
0
 40
0
 40
0
 40
0
 40
1
 40
1
 40
1
 40
1
 10
2157.000000
 20
1940.800000
 30
0.0
 10
2116.000000
 20
1964.400000
 30
0.0
 10
2081.000000
 20
1984.200000
 30
0.0
 10
2079.100000
 20
1984.800000
 30
0.0
  0
SPLINE
  5
111
100
AcDbEntity
  8
0
 62
7
100
AcDbSpline
 70
8
 71
3
 72
8
 73
4
 74
0
 40
0
 40
0
 40
0
 40
0
 40
1
 40
1
 40
1
 40
1
 10
2079.100000
 20
1984.800000
 30
0.0
 10
2074.500000
 20
1986.400000
 30
0.0
 10
2067.200000
 20
1986.200000
 30
0.0
 10
2063.000000
 20
1984.400000
 30
0.0
  0
LWPOLYLINE
  5
112
100
AcDbEntity
  8
0
 62
7
100
AcDbPolyline
 90
1
 70
1
 10
1955.000000
 20
1984.700000
 30
0.0
  0
SPLINE
  5
113
100
AcDbEntity
  8
0
 62
7
100
AcDbSpline
 70
8
 71
3
 72
8
 73
4
 74
0
 40
0
 40
0
 40
0
 40
0
 40
1
 40
1
 40
1
 40
1
 10
2009.100000
 20
1953.300000
 30
0.0
 10
2006.700000
 20
1952.400000
 30
0.0
 10
2002.800000
 20
1949.800000
 30
0.0
 10
2000.500000
 20
1947.500000
 30
0.0
  0
SPLINE
  5
114
100
AcDbEntity
  8
0
 62
7
100
AcDbSpline
 70
8
 71
3
 72
8
 73
4
 74
0
 40
0
 40
0
 40
0
 40
0
 40
1
 40
1
 40
1
 40
1
 10
2000.500000
 20
1947.500000
 30
0.0
 10
1992.600000
 20
1939.600000
 30
0.0
 10
1992.900000
 20
1944.800000
 30
0.0
 10
1993.200000
 20
1844.400000
 30
0.0
  0
SPLINE
  5
115
100
AcDbEntity
  8
0
 62
7
100
AcDbSpline
 70
8
 71
3
 72
8
 73
4
 74
0
 40
0
 40
0
 40
0
 40
0
 40
1
 40
1
 40
1
 40
1
 10
1993.200000
 20
1844.400000
 30
0.0
 10
1993.500000
 20
1759.900000
 30
0.0
 10
1993.600000
 20
1755.300000
 30
0.0
 10
1995.400000
 20
1752.000000
 30
0.0
  0
SPLINE
  5
116
100
AcDbEntity
  8
0
 62
7
100
AcDbSpline
 70
8
 71
3
 72
8
 73
4
 74
0
 40
0
 40
0
 40
0
 40
0
 40
1
 40
1
 40
1
 40
1
 10
1995.400000
 20
1752.000000
 30
0.0
 10
2000.200000
 20
1742.800000
 30
0.0
 10
2007.300000
 20
1738.600000
 30
0.0
 10
2017.500000
 20
1738.500000
 30
0.0
  0
SPLINE
  5
117
100
AcDbEntity
  8
0
 62
7
100
AcDbSpline
 70
8
 71
3
 72
8
 73
4
 74
0
 40
0
 40
0
 40
0
 40
0
 40
1
 40
1
 40
1
 40
1
 10
2017.500000
 20
1738.500000
 30
0.0
 10
2023.400000
 20
1738.500000
 30
0.0
 10
2025.200000
 20
1738.900000
 30
0.0
 10
2029.300000
 20
1741.300000
 30
0.0
  0
SPLINE
  5
118
100
AcDbEntity
  8
0
 62
7
100
AcDbSpline
 70
8
 71
3
 72
8
 73
4
 74
0
 40
0
 40
0
 40
0
 40
0
 40
1
 40
1
 40
1
 40
1
 10
2029.300000
 20
1741.300000
 30
0.0
 10
2035.400000
 20
1744.900000
 30
0.0
 10
2039.600000
 20
1750.700000
 30
0.0
 10
2041.000000
 20
1757.400000
 30
0.0
  0
SPLINE
  5
119
100
AcDbEntity
  8
0
 62
7
100
AcDbSpline
 70
8
 71
3
 72
8
 73
4
 74
0
 40
0
 40
0
 40
0
 40
0
 40
1
 40
1
 40
1
 40
1
 10
2041.000000
 20
1757.400000
 30
0.0
 10
2041.700000
 20
1760.900000
 30
0.0
 10
2042.000000
 20
1790.000000
 30
0.0
 10
2041.800000
 20
1849.500000
 30
0.0
  0
LWPOLYLINE
  5
11a
100
AcDbEntity
  8
0
 62
7
100
AcDbPolyline
 90
1
 70
1
 10
2063.000000
 20
1984.400000
 30
0.0
  0
SPLINE
  5
11b
100
AcDbEntity
  8
0
 62
7
100
AcDbSpline
 70
8
 71
3
 72
8
 73
4
 74
0
 40
0
 40
0
 40
0
 40
0
 40
1
 40
1
 40
1
 40
1
 10
2038.500000
 20
1941.900000
 30
0.0
 10
2035.000000
 20
1948.200000
 30
0.0
 10
2030.900000
 20
1951.600000
 30
0.0
 10
2024.400000
 20
1953.600000
 30
0.0
  0
SPLINE
  5
11c
100
AcDbEntity
  8
0
 62
7
100
AcDbSpline
 70
8
 71
3
 72
8
 73
4
 74
0
 40
0
 40
0
 40
0
 40
0
 40
1
 40
1
 40
1
 40
1
 10
2024.400000
 20
1953.600000
 30
0.0
 10
2018.500000
 20
1955.400000
 30
0.0
 10
2014.700000
 20
1955.300000
 30
0.0
 10
2009.100000
 20
1953.300000
 30
0.0
  0
LWPOLYLINE
  5
11d
100
AcDbEntity
  8
0
 62
7
100
AcDbPolyline
 90
3
 70
0
 10
2041.800000
 20
1849.500000
 30
0.0
 10
2041.500000
 20
1936.500000
 30
0.0
 10
2038.500000
 20
1941.900000
 30
0.0
  0
SPLINE
  5
11e
100
AcDbEntity
  8
0
 62
7
100
AcDbSpline
 70
8
 71
3
 72
8
 73
4
 74
0
 40
0
 40
0
 40
0
 40
0
 40
1
 40
1
 40
1
 40
1
 10
1808.500000
 20
1837.400000
 30
0.0
 10
1806.300000
 20
1836.600000
 30
0.0
 10
1802.600000
 20
1834.100000
 30
0.0
 10
1800.300000
 20
1831.800000
 30
0.0
  0
SPLINE
  5
11f
100
AcDbEntity
  8
0
 62
7
100
AcDbSpline
 70
8
 71
3
 72
8
 73
4
 74
0
 40
0
 40
0
 40
0
 40
0
 40
1
 40
1
 40
1
 40
1
 10
1800.300000
 20
1831.800000
 30
0.0
 10
1789.200000
 20
1820.900000
 30
0.0
 10
1791.200000
 20
1802.900000
 30
0.0
 10
1804.300000
 20
1794.600000
 30
0.0
  0
SPLINE
  5
120
100
AcDbEntity
  8
0
 62
7
100
AcDbSpline
 70
8
 71
3
 72
8
 73
4
 74
0
 40
0
 40
0
 40
0
 40
0
 40
1
 40
1
 40
1
 40
1
 10
1804.300000
 20
1794.600000
 30
0.0
 10
1812.900000
 20
1789.100000
 30
0.0
 10
1949.200000
 20
1710.800000
 30
0.0
 10
1953.500000
 20
1708.900000
 30
0.0
  0
SPLINE
  5
121
100
AcDbEntity
  8
0
 62
7
100
AcDbSpline
 70
8
 71
3
 72
8
 73
4
 74
0
 40
0
 40
0
 40
0
 40
0
 40
1
 40
1
 40
1
 40
1
 10
1953.500000
 20
1708.900000
 30
0.0
 10
1961.400000
 20
1705.300000
 30
0.0
 10
1973.300000
 20
1707.300000
 30
0.0
 10
1979.900000
 20
1713.300000
 30
0.0
  0
SPLINE
  5
122
100
AcDbEntity
  8
0
 62
7
100
AcDbSpline
 70
8
 71
3
 72
8
 73
4
 74
0
 40
0
 40
0
 40
0
 40
0
 40
1
 40
1
 40
1
 40
1
 10
1979.900000
 20
1713.300000
 30
0.0
 10
1981.200000
 20
1714.500000
 30
0.0
 10
1983.300000
 20
1717.800000
 30
0.0
 10
1984.600000
 20
1720.500000
 30
0.0
  0
SPLINE
  5
123
100
AcDbEntity
  8
0
 62
7
100
AcDbSpline
 70
8
 71
3
 72
8
 73
4
 74
0
 40
0
 40
0
 40
0
 40
0
 40
1
 40
1
 40
1
 40
1
 10
1984.600000
 20
1720.500000
 30
0.0
 10
1989.000000
 20
1729.700000
 30
0.0
 10
1987.200000
 20
1740.600000
 30
0.0
 10
1980.300000
 20
1747.600000
 30
0.0
  0
SPLINE
  5
124
100
AcDbEntity
  8
0
 62
7
100
AcDbSpline
 70
8
 71
3
 72
8
 73
4
 74
0
 40
0
 40
0
 40
0
 40
0
 40
1
 40
1
 40
1
 40
1
 10
1980.300000
 20
1747.600000
 30
0.0
 10
1976.800000
 20
1751.100000
 30
0.0
 10
1828.900000
 20
1836.600000
 30
0.0
 10
1823.800000
 20
1838.000000
 30
0.0
  0
SPLINE
  5
125
100
AcDbEntity
  8
0
 62
7
100
AcDbSpline
 70
8
 71
3
 72
8
 73
4
 74
0
 40
0
 40
0
 40
0
 40
0
 40
1
 40
1
 40
1
 40
1
 10
1823.800000
 20
1838.000000
 30
0.0
 10
1819.200000
 20
1839.400000
 30
0.0
 10
1813.200000
 20
1839.100000
 30
0.0
 10
1808.500000
 20
1837.400000
 30
0.0
  0
LWPOLYLINE
  5
126
100
AcDbEntity
  8
0
 62
7
100
AcDbPolyline
 90
1
 70
1
 10
2009.100000
 20
1953.300000
 30
0.0
  0
SPLINE
  5
127
100
AcDbEntity
  8
0
 62
7
100
AcDbSpline
 70
8
 71
3
 72
8
 73
4
 74
0
 40
0
 40
0
 40
0
 40
0
 40
1
 40
1
 40
1
 40
1
 10
2208.500000
 20
1837.100000
 30
0.0
 10
2202.700000
 20
1834.500000
 30
0.0
 10
2060.100000
 20
1752.300000
 30
0.0
 10
2056.100000
 20
1749.300000
 30
0.0
  0
SPLINE
  5
128
100
AcDbEntity
  8
0
 62
7
100
AcDbSpline
 70
8
 71
3
 72
8
 73
4
 74
0
 40
0
 40
0
 40
0
 40
0
 40
1
 40
1
 40
1
 40
1
 10
2056.100000
 20
1749.300000
 30
0.0
 10
2054.200000
 20
1747.800000
 30
0.0
 10
2051.700000
 20
1744.400000
 30
0.0
 10
2050.300000
 20
1741.300000
 30
0.0
  0
SPLINE
  5
129
100
AcDbEntity
  8
0
 62
7
100
AcDbSpline
 70
8
 71
3
 72
8
 73
4
 74
0
 40
0
 40
0
 40
0
 40
0
 40
1
 40
1
 40
1
 40
1
 10
2050.300000
 20
1741.300000
 30
0.0
 10
2048.200000
 20
1736.800000
 30
0.0
 10
2047.800000
 20
1734.700000
 30
0.0
 10
2048.200000
 20
1729.000000
 30
0.0
  0
SPLINE
  5
12a
100
AcDbEntity
  8
0
 62
7
100
AcDbSpline
 70
8
 71
3
 72
8
 73
4
 74
0
 40
0
 40
0
 40
0
 40
0
 40
1
 40
1
 40
1
 40
1
 10
2048.200000
 20
1729.000000
 30
0.0
 10
2048.500000
 20
1723.300000
 30
0.0
 10
2049.100000
 20
1721.300000
 30
0.0
 10
2051.600000
 20
1717.800000
 30
0.0
  0
SPLINE
  5
12b
100
AcDbEntity
  8
0
 62
7
100
AcDbSpline
 70
8
 71
3
 72
8
 73
4
 74
0
 40
0
 40
0
 40
0
 40
0
 40
1
 40
1
 40
1
 40
1
 10
2051.600000
 20
1717.800000
 30
0.0
 10
2056.500000
 20
1710.800000
 30
0.0
 10
2061.900000
 20
1707.600000
 30
0.0
 10
2069.800000
 20
1707.200000
 30
0.0
  0
SPLINE
  5
12c
100
AcDbEntity
  8
0
 62
7
100
AcDbSpline
 70
8
 71
3
 72
8
 73
4
 74
0
 40
0
 40
0
 40
0
 40
0
 40
1
 40
1
 40
1
 40
1
 10
2069.800000
 20
1707.200000
 30
0.0
 10
2074.300000
 20
1706.900000
 30
0.0
 10
2077.800000
 20
1707.300000
 30
0.0
 10
2080.000000
 20
1708.200000
 30
0.0
  0
SPLINE
  5
12d
100
AcDbEntity
  8
0
 62
7
100
AcDbSpline
 70
8
 71
3
 72
8
 73
4
 74
0
 40
0
 40
0
 40
0
 40
0
 40
1
 40
1
 40
1
 40
1
 10
2080.000000
 20
1708.200000
 30
0.0
 10
2087.100000
 20
1711.200000
 30
0.0
 10
2230.600000
 20
1794.400000
 30
0.0
 10
2233.800000
 20
1797.400000
 30
0.0
  0
SPLINE
  5
12e
100
AcDbEntity
  8
0
 62
7
100
AcDbSpline
 70
8
 71
3
 72
8
 73
4
 74
0
 40
0
 40
0
 40
0
 40
0
 40
1
 40
1
 40
1
 40
1
 10
2233.800000
 20
1797.400000
 30
0.0
 10
2239.200000
 20
1802.400000
 30
0.0
 10
2241.400000
 20
1807.500000
 30
0.0
 10
2241.400000
 20
1815.000000
 30
0.0
  0
SPLINE
  5
12f
100
AcDbEntity
  8
0
 62
7
100
AcDbSpline
 70
8
 71
3
 72
8
 73
4
 74
0
 40
0
 40
0
 40
0
 40
0
 40
1
 40
1
 40
1
 40
1
 10
2241.400000
 20
1815.000000
 30
0.0
 10
2241.400000
 20
1822.800000
 30
0.0
 10
2239.000000
 20
1828.100000
 30
0.0
 10
2233.000000
 20
1833.200000
 30
0.0
  0
SPLINE
  5
130
100
AcDbEntity
  8
0
 62
7
100
AcDbSpline
 70
8
 71
3
 72
8
 73
4
 74
0
 40
0
 40
0
 40
0
 40
0
 40
1
 40
1
 40
1
 40
1
 10
2233.000000
 20
1833.200000
 30
0.0
 10
2226.200000
 20
1839.100000
 30
0.0
 10
2216.300000
 20
1840.700000
 30
0.0
 10
2208.500000
 20
1837.100000
 30
0.0
  0
LWPOLYLINE
  5
131
100
AcDbEntity
  8
0
 62
7
100
AcDbPolyline
 90
1
 70
1
 10
1808.500000
 20
1837.400000
 30
0.0
  0
SPLINE
  5
132
100
AcDbEntity
  8
0
 62
7
100
AcDbSpline
 70
8
 71
3
 72
8
 73
4
 74
0
 40
0
 40
0
 40
0
 40
0
 40
1
 40
1
 40
1
 40
1
 10
1755.800000
 20
1806.900000
 30
0.0
 10
1750.900000
 20
1805.500000
 30
0.0
 10
1743.200000
 20
1798.600000
 30
0.0
 10
1740.900000
 20
1793.500000
 30
0.0
  0
SPLINE
  5
133
100
AcDbEntity
  8
0
 62
7
100
AcDbSpline
 70
8
 71
3
 72
8
 73
4
 74
0
 40
0
 40
0
 40
0
 40
0
 40
1
 40
1
 40
1
 40
1
 10
1740.900000
 20
1793.500000
 30
0.0
 10
1739.100000
 20
1789.700000
 30
0.0
 10
1739.000000
 20
1784.700000
 30
0.0
 10
1739.000000
 20
1699.500000
 30
0.0
  0
SPLINE
  5
134
100
AcDbEntity
  8
0
 62
7
100
AcDbSpline
 70
8
 71
3
 72
8
 73
4
 74
0
 40
0
 40
0
 40
0
 40
0
 40
1
 40
1
 40
1
 40
1
 10
1739.000000
 20
1699.500000
 30
0.0
 10
1739.000000
 20
1597.500000
 30
0.0
 10
1738.400000
 20
1605.200000
 30
0.0
 10
1747.400000
 20
1597.300000
 30
0.0
  0
SPLINE
  5
135
100
AcDbEntity
  8
0
 62
7
100
AcDbSpline
 70
8
 71
3
 72
8
 73
4
 74
0
 40
0
 40
0
 40
0
 40
0
 40
1
 40
1
 40
1
 40
1
 10
1747.400000
 20
1597.300000
 30
0.0
 10
1757.300000
 20
1588.500000
 30
0.0
 10
1771.300000
 20
1589.300000
 30
0.0
 10
1780.700000
 20
1599.200000
 30
0.0
  0
SPLINE
  5
136
100
AcDbEntity
  8
0
 62
7
100
AcDbSpline
 70
8
 71
3
 72
8
 73
4
 74
0
 40
0
 40
0
 40
0
 40
0
 40
1
 40
1
 40
1
 40
1
 10
1780.700000
 20
1599.200000
 30
0.0
 10
1787.200000
 20
1606.000000
 30
0.0
 10
1787.000000
 20
1602.100000
 30
0.0
 10
1787.000000
 20
1699.400000
 30
0.0
  0
SPLINE
  5
137
100
AcDbEntity
  8
0
 62
7
100
AcDbSpline
 70
8
 71
3
 72
8
 73
4
 74
0
 40
0
 40
0
 40
0
 40
0
 40
1
 40
1
 40
1
 40
1
 10
1787.000000
 20
1699.400000
 30
0.0
 10
1787.000000
 20
1758.400000
 30
0.0
 10
1786.600000
 20
1788.800000
 30
0.0
 10
1785.900000
 20
1791.300000
 30
0.0
  0
SPLINE
  5
138
100
AcDbEntity
  8
0
 62
7
100
AcDbSpline
 70
8
 71
3
 72
8
 73
4
 74
0
 40
0
 40
0
 40
0
 40
0
 40
1
 40
1
 40
1
 40
1
 10
1785.900000
 20
1791.300000
 30
0.0
 10
1784.600000
 20
1796.100000
 30
0.0
 10
1778.900000
 20
1802.500000
 30
0.0
 10
1773.700000
 20
1805.200000
 30
0.0
  0
SPLINE
  5
139
100
AcDbEntity
  8
0
 62
7
100
AcDbSpline
 70
8
 71
3
 72
8
 73
4
 74
0
 40
0
 40
0
 40
0
 40
0
 40
1
 40
1
 40
1
 40
1
 10
1773.700000
 20
1805.200000
 30
0.0
 10
1769.000000
 20
1807.500000
 30
0.0
 10
1761.000000
 20
1808.300000
 30
0.0
 10
1755.800000
 20
1806.900000
 30
0.0
  0
LWPOLYLINE
  5
13a
100
AcDbEntity
  8
0
 62
7
100
AcDbPolyline
 90
1
 70
1
 10
2208.500000
 20
1837.100000
 30
0.0
  0
SPLINE
  5
13b
100
AcDbEntity
  8
0
 62
7
100
AcDbSpline
 70
8
 71
3
 72
8
 73
4
 74
0
 40
0
 40
0
 40
0
 40
0
 40
1
 40
1
 40
1
 40
1
 10
2263.400000
 20
1806.400000
 30
0.0
 10
2258.200000
 20
1804.500000
 30
0.0
 10
2252.300000
 20
1798.900000
 30
0.0
 10
2249.900000
 20
1793.600000
 30
0.0
  0
SPLINE
  5
13c
100
AcDbEntity
  8
0
 62
7
100
AcDbSpline
 70
8
 71
3
 72
8
 73
4
 74
0
 40
0
 40
0
 40
0
 40
0
 40
1
 40
1
 40
1
 40
1
 10
2249.900000
 20
1793.600000
 30
0.0
 10
2248.100000
 20
1789.700000
 30
0.0
 10
2248.000000
 20
1785.000000
 30
0.0
 10
2248.000000
 20
1699.500000
 30
0.0
  0
SPLINE
  5
13d
100
AcDbEntity
  8
0
 62
7
100
AcDbSpline
 70
8
 71
3
 72
8
 73
4
 74
0
 40
0
 40
0
 40
0
 40
0
 40
1
 40
1
 40
1
 40
1
 10
2248.000000
 20
1699.500000
 30
0.0
 10
2248.000000
 20
1614.000000
 30
0.0
 10
2248.100000
 20
1609.300000
 30
0.0
 10
2249.900000
 20
1605.400000
 30
0.0
  0
SPLINE
  5
13e
100
AcDbEntity
  8
0
 62
7
100
AcDbSpline
 70
8
 71
3
 72
8
 73
4
 74
0
 40
0
 40
0
 40
0
 40
0
 40
1
 40
1
 40
1
 40
1
 10
2249.900000
 20
1605.400000
 30
0.0
 10
2255.600000
 20
1592.900000
 30
0.0
 10
2270.600000
 20
1587.700000
 30
0.0
 10
2282.900000
 20
1593.900000
 30
0.0
  0
SPLINE
  5
13f
100
AcDbEntity
  8
0
 62
7
100
AcDbSpline
 70
8
 71
3
 72
8
 73
4
 74
0
 40
0
 40
0
 40
0
 40
0
 40
1
 40
1
 40
1
 40
1
 10
2282.900000
 20
1593.900000
 30
0.0
 10
2287.900000
 20
1596.500000
 30
0.0
 10
2293.300000
 20
1602.900000
 30
0.0
 10
2294.800000
 20
1607.900000
 30
0.0
  0
SPLINE
  5
140
100
AcDbEntity
  8
0
 62
7
100
AcDbSpline
 70
8
 71
3
 72
8
 73
4
 74
0
 40
0
 40
0
 40
0
 40
0
 40
1
 40
1
 40
1
 40
1
 10
2294.800000
 20
1607.900000
 30
0.0
 10
2295.700000
 20
1610.700000
 30
0.0
 10
2296.000000
 20
1635.800000
 30
0.0
 10
2296.000000
 20
1699.500000
 30
0.0
  0
SPLINE
  5
141
100
AcDbEntity
  8
0
 62
7
100
AcDbSpline
 70
8
 71
3
 72
8
 73
4
 74
0
 40
0
 40
0
 40
0
 40
0
 40
1
 40
1
 40
1
 40
1
 10
2296.000000
 20
1699.500000
 30
0.0
 10
2296.000000
 20
1763.200000
 30
0.0
 10
2295.700000
 20
1788.300000
 30
0.0
 10
2294.800000
 20
1791.100000
 30
0.0
  0
SPLINE
  5
142
100
AcDbEntity
  8
0
 62
7
100
AcDbSpline
 70
8
 71
3
 72
8
 73
4
 74
0
 40
0
 40
0
 40
0
 40
0
 40
1
 40
1
 40
1
 40
1
 10
2294.800000
 20
1791.100000
 30
0.0
 10
2293.300000
 20
1796.200000
 30
0.0
 10
2287.800000
 20
1802.500000
 30
0.0
 10
2282.700000
 20
1805.100000
 30
0.0
  0
SPLINE
  5
143
100
AcDbEntity
  8
0
 62
7
100
AcDbSpline
 70
8
 71
3
 72
8
 73
4
 74
0
 40
0
 40
0
 40
0
 40
0
 40
1
 40
1
 40
1
 40
1
 10
2282.700000
 20
1805.100000
 30
0.0
 10
2277.400000
 20
1807.800000
 30
0.0
 10
2268.700000
 20
1808.400000
 30
0.0
 10
2263.400000
 20
1806.400000
 30
0.0
  0
LWPOLYLINE
  5
144
100
AcDbEntity
  8
0
 62
7
100
AcDbPolyline
 90
1
 70
1
 10
1755.800000
 20
1806.900000
 30
0.0
  0
SPLINE
  5
145
100
AcDbEntity
  8
0
 62
7
100
AcDbSpline
 70
8
 71
3
 72
8
 73
4
 74
0
 40
0
 40
0
 40
0
 40
0
 40
1
 40
1
 40
1
 40
1
 10
1953.400000
 20
1690.100000
 30
0.0
 10
1948.600000
 20
1687.900000
 30
0.0
 10
1811.900000
 20
1609.400000
 30
0.0
 10
1804.300000
 20
1604.400000
 30
0.0
  0
SPLINE
  5
146
100
AcDbEntity
  8
0
 62
7
100
AcDbSpline
 70
8
 71
3
 72
8
 73
4
 74
0
 40
0
 40
0
 40
0
 40
0
 40
1
 40
1
 40
1
 40
1
 10
1804.300000
 20
1604.400000
 30
0.0
 10
1797.900000
 20
1600.300000
 30
0.0
 10
1794.100000
 20
1594.100000
 30
0.0
 10
1793.300000
 20
1586.700000
 30
0.0
  0
SPLINE
  5
147
100
AcDbEntity
  8
0
 62
7
100
AcDbSpline
 70
8
 71
3
 72
8
 73
4
 74
0
 40
0
 40
0
 40
0
 40
0
 40
1
 40
1
 40
1
 40
1
 10
1793.300000
 20
1586.700000
 30
0.0
 10
1791.600000
 20
1569.800000
 30
0.0
 10
1807.600000
 20
1556.300000
 30
0.0
 10
1823.800000
 20
1561.000000
 30
0.0
  0
SPLINE
  5
148
100
AcDbEntity
  8
0
 62
7
100
AcDbSpline
 70
8
 71
3
 72
8
 73
4
 74
0
 40
0
 40
0
 40
0
 40
0
 40
1
 40
1
 40
1
 40
1
 10
1823.800000
 20
1561.000000
 30
0.0
 10
1828.900000
 20
1562.400000
 30
0.0
 10
1976.800000
 20
1648.000000
 30
0.0
 10
1980.300000
 20
1651.400000
 30
0.0
  0
SPLINE
  5
149
100
AcDbEntity
  8
0
 62
7
100
AcDbSpline
 70
8
 71
3
 72
8
 73
4
 74
0
 40
0
 40
0
 40
0
 40
0
 40
1
 40
1
 40
1
 40
1
 10
1980.300000
 20
1651.400000
 30
0.0
 10
1992.300000
 20
1663.500000
 30
0.0
 10
1987.100000
 20
1686.100000
 30
0.0
 10
1971.100000
 20
1690.900000
 30
0.0
  0
SPLINE
  5
14a
100
AcDbEntity
  8
0
 62
7
100
AcDbSpline
 70
8
 71
3
 72
8
 73
4
 74
0
 40
0
 40
0
 40
0
 40
0
 40
1
 40
1
 40
1
 40
1
 10
1971.100000
 20
1690.900000
 30
0.0
 10
1965.500000
 20
1692.500000
 30
0.0
 10
1958.100000
 20
1692.200000
 30
0.0
 10
1953.400000
 20
1690.100000
 30
0.0
  0
LWPOLYLINE
  5
14b
100
AcDbEntity
  8
0
 62
7
100
AcDbPolyline
 90
1
 70
1
 10
2263.400000
 20
1806.400000
 30
0.0
  0
SPLINE
  5
14c
100
AcDbEntity
  8
0
 62
7
100
AcDbSpline
 70
8
 71
3
 72
8
 73
4
 74
0
 40
0
 40
0
 40
0
 40
0
 40
1
 40
1
 40
1
 40
1
 10
2061.300000
 20
1689.900000
 30
0.0
 10
2056.500000
 20
1687.500000
 30
0.0
 10
2051.400000
 20
1682.200000
 30
0.0
 10
2049.400000
 20
1677.400000
 30
0.0
  0
SPLINE
  5
14d
100
AcDbEntity
  8
0
 62
7
100
AcDbSpline
 70
8
 71
3
 72
8
 73
4
 74
0
 40
0
 40
0
 40
0
 40
0
 40
1
 40
1
 40
1
 40
1
 10
2049.400000
 20
1677.400000
 30
0.0
 10
2045.800000
 20
1668.800000
 30
0.0
 10
2049.200000
 20
1654.900000
 30
0.0
 10
2056.100000
 20
1649.700000
 30
0.0
  0
SPLINE
  5
14e
100
AcDbEntity
  8
0
 62
7
100
AcDbSpline
 70
8
 71
3
 72
8
 73
4
 74
0
 40
0
 40
0
 40
0
 40
0
 40
1
 40
1
 40
1
 40
1
 10
2056.100000
 20
1649.700000
 30
0.0
 10
2060.200000
 20
1646.700000
 30
0.0
 10
2202.700000
 20
1564.500000
 30
0.0
 10
2208.500000
 20
1561.900000
 30
0.0
  0
SPLINE
  5
14f
100
AcDbEntity
  8
0
 62
7
100
AcDbSpline
 70
8
 71
3
 72
8
 73
4
 74
0
 40
0
 40
0
 40
0
 40
0
 40
1
 40
1
 40
1
 40
1
 10
2208.500000
 20
1561.900000
 30
0.0
 10
2216.300000
 20
1558.300000
 30
0.0
 10
2226.200000
 20
1559.900000
 30
0.0
 10
2233.000000
 20
1565.800000
 30
0.0
  0
SPLINE
  5
150
100
AcDbEntity
  8
0
 62
7
100
AcDbSpline
 70
8
 71
3
 72
8
 73
4
 74
0
 40
0
 40
0
 40
0
 40
0
 40
1
 40
1
 40
1
 40
1
 10
2233.000000
 20
1565.800000
 30
0.0
 10
2239.000000
 20
1570.900000
 30
0.0
 10
2241.400000
 20
1576.200000
 30
0.0
 10
2241.400000
 20
1584.000000
 30
0.0
  0
SPLINE
  5
151
100
AcDbEntity
  8
0
 62
7
100
AcDbSpline
 70
8
 71
3
 72
8
 73
4
 74
0
 40
0
 40
0
 40
0
 40
0
 40
1
 40
1
 40
1
 40
1
 10
2241.400000
 20
1584.000000
 30
0.0
 10
2241.400000
 20
1591.500000
 30
0.0
 10
2239.200000
 20
1596.600000
 30
0.0
 10
2233.800000
 20
1601.600000
 30
0.0
  0
SPLINE
  5
152
100
AcDbEntity
  8
0
 62
7
100
AcDbSpline
 70
8
 71
3
 72
8
 73
4
 74
0
 40
0
 40
0
 40
0
 40
0
 40
1
 40
1
 40
1
 40
1
 10
2233.800000
 20
1601.600000
 30
0.0
 10
2230.700000
 20
1604.600000
 30
0.0
 10
2087.200000
 20
1687.700000
 30
0.0
 10
2080.300000
 20
1690.600000
 30
0.0
  0
SPLINE
  5
153
100
AcDbEntity
  8
0
 62
7
100
AcDbSpline
 70
8
 71
3
 72
8
 73
4
 74
0
 40
0
 40
0
 40
0
 40
0
 40
1
 40
1
 40
1
 40
1
 10
2080.300000
 20
1690.600000
 30
0.0
 10
2075.400000
 20
1692.700000
 30
0.0
 10
2066.200000
 20
1692.400000
 30
0.0
 10
2061.300000
 20
1689.900000
 30
0.0
  0
LWPOLYLINE
  5
154
100
AcDbEntity
  8
0
 62
7
100
AcDbPolyline
 90
1
 70
1
 10
1953.400000
 20
1690.100000
 30
0.0
  0
SPLINE
  5
155
100
AcDbEntity
  8
0
 62
7
100
AcDbSpline
 70
8
 71
3
 72
8
 73
4
 74
0
 40
0
 40
0
 40
0
 40
0
 40
1
 40
1
 40
1
 40
1
 10
2011.000000
 20
1660.100000
 30
0.0
 10
2003.900000
 20
1657.800000
 30
0.0
 10
1998.800000
 20
1653.500000
 30
0.0
 10
1995.400000
 20
1647.000000
 30
0.0
  0
SPLINE
  5
156
100
AcDbEntity
  8
0
 62
7
100
AcDbSpline
 70
8
 71
3
 72
8
 73
4
 74
0
 40
0
 40
0
 40
0
 40
0
 40
1
 40
1
 40
1
 40
1
 10
1995.400000
 20
1647.000000
 30
0.0
 10
1993.600000
 20
1643.700000
 30
0.0
 10
1993.500000
 20
1639.100000
 30
0.0
 10
1993.200000
 20
1554.600000
 30
0.0
  0
SPLINE
  5
157
100
AcDbEntity
  8
0
 62
7
100
AcDbSpline
 70
8
 71
3
 72
8
 73
4
 74
0
 40
0
 40
0
 40
0
 40
0
 40
1
 40
1
 40
1
 40
1
 10
1993.200000
 20
1554.600000
 30
0.0
 10
1992.900000
 20
1454.100000
 30
0.0
 10
1992.500000
 20
1459.400000
 30
0.0
 10
2000.600000
 20
1451.400000
 30
0.0
  0
SPLINE
  5
158
100
AcDbEntity
  8
0
 62
7
100
AcDbSpline
 70
8
 71
3
 72
8
 73
4
 74
0
 40
0
 40
0
 40
0
 40
0
 40
1
 40
1
 40
1
 40
1
 10
2000.600000
 20
1451.400000
 30
0.0
 10
2012.000000
 20
1439.900000
 30
0.0
 10
2030.300000
 20
1442.700000
 30
0.0
 10
2038.400000
 20
1457.100000
 30
0.0
  0
LWPOLYLINE
  5
159
100
AcDbEntity
  8
0
 62
7
100
AcDbPolyline
 90
1
 70
1
 10
2061.300000
 20
1689.900000
 30
0.0
  0
SPLINE
  5
15a
100
AcDbEntity
  8
0
 62
7
100
AcDbSpline
 70
8
 71
3
 72
8
 73
4
 74
0
 40
0
 40
0
 40
0
 40
0
 40
1
 40
1
 40
1
 40
1
 10
2041.800000
 20
1549.500000
 30
0.0
 10
2042.000000
 20
1609.000000
 30
0.0
 10
2041.700000
 20
1638.100000
 30
0.0
 10
2041.000000
 20
1641.600000
 30
0.0
  0
SPLINE
  5
15b
100
AcDbEntity
  8
0
 62
7
100
AcDbSpline
 70
8
 71
3
 72
8
 73
4
 74
0
 40
0
 40
0
 40
0
 40
0
 40
1
 40
1
 40
1
 40
1
 10
2041.000000
 20
1641.600000
 30
0.0
 10
2038.800000
 20
1652.200000
 30
0.0
 10
2030.000000
 20
1659.900000
 30
0.0
 10
2019.300000
 20
1660.600000
 30
0.0
  0
SPLINE
  5
15c
100
AcDbEntity
  8
0
 62
7
100
AcDbSpline
 70
8
 71
3
 72
8
 73
4
 74
0
 40
0
 40
0
 40
0
 40
0
 40
1
 40
1
 40
1
 40
1
 10
2019.300000
 20
1660.600000
 30
0.0
 10
2016.100000
 20
1660.800000
 30
0.0
 10
2012.400000
 20
1660.600000
 30
0.0
 10
2011.000000
 20
1660.100000
 30
0.0
  0
LWPOLYLINE
  5
15d
100
AcDbEntity
  8
0
 62
7
100
AcDbPolyline
 90
3
 70
0
 10
2038.400000
 20
1457.100000
 30
0.0
 10
2041.500000
 20
1462.500000
 30
0.0
 10
2041.800000
 20
1549.500000
 30
0.0
  0
SPLINE
  5
15e
100
AcDbEntity
  8
0
 62
7
100
AcDbSpline
 70
8
 71
3
 72
8
 73
4
 74
0
 40
0
 40
0
 40
0
 40
0
 40
1
 40
1
 40
1
 40
1
 10
1810.800000
 20
1544.600000
 30
0.0
 10
1798.100000
 20
1541.200000
 30
0.0
 10
1790.400000
 20
1527.400000
 30
0.0
 10
1794.000000
 20
1514.500000
 30
0.0
  0
SPLINE
  5
15f
100
AcDbEntity
  8
0
 62
7
100
AcDbSpline
 70
8
 71
3
 72
8
 73
4
 74
0
 40
0
 40
0
 40
0
 40
0
 40
1
 40
1
 40
1
 40
1
 10
1794.000000
 20
1514.500000
 30
0.0
 10
1796.600000
 20
1505.200000
 30
0.0
 10
1798.000000
 20
1504.300000
 30
0.0
 10
1877.500000
 20
1458.400000
 30
0.0
  0
SPLINE
  5
160
100
AcDbEntity
  8
0
 62
7
100
AcDbSpline
 70
8
 71
3
 72
8
 73
4
 74
0
 40
0
 40
0
 40
0
 40
0
 40
1
 40
1
 40
1
 40
1
 10
1877.500000
 20
1458.400000
 30
0.0
 10
1918.200000
 20
1434.900000
 30
0.0
 10
1953.100000
 20
1415.000000
 30
0.0
 10
1955.000000
 20
1414.200000
 30
0.0
  0
SPLINE
  5
161
100
AcDbEntity
  8
0
 62
7
100
AcDbSpline
 70
8
 71
3
 72
8
 73
4
 74
0
 40
0
 40
0
 40
0
 40
0
 40
1
 40
1
 40
1
 40
1
 10
1955.000000
 20
1414.200000
 30
0.0
 10
1959.300000
 20
1412.400000
 30
0.0
 10
1969.200000
 20
1413.000000
 30
0.0
 10
1973.700000
 20
1415.300000
 30
0.0
  0
SPLINE
  5
162
100
AcDbEntity
  8
0
 62
7
100
AcDbSpline
 70
8
 71
3
 72
8
 73
4
 74
0
 40
0
 40
0
 40
0
 40
0
 40
1
 40
1
 40
1
 40
1
 10
1973.700000
 20
1415.300000
 30
0.0
 10
1977.700000
 20
1417.400000
 30
0.0
 10
1982.600000
 20
1422.300000
 30
0.0
 10
1984.700000
 20
1426.300000
 30
0.0
  0
SPLINE
  5
163
100
AcDbEntity
  8
0
 62
7
100
AcDbSpline
 70
8
 71
3
 72
8
 73
4
 74
0
 40
0
 40
0
 40
0
 40
0
 40
1
 40
1
 40
1
 40
1
 10
1984.700000
 20
1426.300000
 30
0.0
 10
1985.500000
 20
1428.000000
 30
0.0
 10
1986.500000
 20
1432.200000
 30
0.0
 10
1986.800000
 20
1435.700000
 30
0.0
  0
SPLINE
  5
164
100
AcDbEntity
  8
0
 62
7
100
AcDbSpline
 70
8
 71
3
 72
8
 73
4
 74
0
 40
0
 40
0
 40
0
 40
0
 40
1
 40
1
 40
1
 40
1
 10
1986.800000
 20
1435.700000
 30
0.0
 10
1987.200000
 20
1441.100000
 30
0.0
 10
1986.900000
 20
1442.700000
 30
0.0
 10
1984.600000
 20
1447.500000
 30
0.0
  0
SPLINE
  5
165
100
AcDbEntity
  8
0
 62
7
100
AcDbSpline
 70
8
 71
3
 72
8
 73
4
 74
0
 40
0
 40
0
 40
0
 40
0
 40
1
 40
1
 40
1
 40
1
 10
1984.600000
 20
1447.500000
 30
0.0
 10
1983.100000
 20
1450.500000
 30
0.0
 10
1980.400000
 20
1454.100000
 30
0.0
 10
1978.700000
 20
1455.400000
 30
0.0
  0
SPLINE
  5
166
100
AcDbEntity
  8
0
 62
7
100
AcDbSpline
 70
8
 71
3
 72
8
 73
4
 74
0
 40
0
 40
0
 40
0
 40
0
 40
1
 40
1
 40
1
 40
1
 10
1978.700000
 20
1455.400000
 30
0.0
 10
1971.000000
 20
1461.300000
 30
0.0
 10
1827.200000
 20
1543.500000
 30
0.0
 10
1822.500000
 20
1544.700000
 30
0.0
  0
SPLINE
  5
167
100
AcDbEntity
  8
0
 62
7
100
AcDbSpline
 70
8
 71
3
 72
8
 73
4
 74
0
 40
0
 40
0
 40
0
 40
0
 40
1
 40
1
 40
1
 40
1
 10
1822.500000
 20
1544.700000
 30
0.0
 10
1816.700000
 20
1546.200000
 30
0.0
 10
1816.900000
 20
1546.200000
 30
0.0
 10
1810.800000
 20
1544.600000
 30
0.0
  0
LWPOLYLINE
  5
168
100
AcDbEntity
  8
0
 62
7
100
AcDbPolyline
 90
1
 70
1
 10
2011.000000
 20
1660.100000
 30
0.0
  0
SPLINE
  5
169
100
AcDbEntity
  8
0
 62
7
100
AcDbSpline
 70
8
 71
3
 72
8
 73
4
 74
0
 40
0
 40
0
 40
0
 40
0
 40
1
 40
1
 40
1
 40
1
 10
2212.000000
 20
1544.600000
 30
0.0
 10
2209.500000
 20
1544.000000
 30
0.0
 10
2173.700000
 20
1524.000000
 30
0.0
 10
2132.500000
 20
1500.200000
 30
0.0
  0
SPLINE
  5
16a
100
AcDbEntity
  8
0
 62
7
100
AcDbSpline
 70
8
 71
3
 72
8
 73
4
 74
0
 40
0
 40
0
 40
0
 40
0
 40
1
 40
1
 40
1
 40
1
 10
2132.500000
 20
1500.200000
 30
0.0
 10
2077.900000
 20
1468.700000
 30
0.0
 10
2056.500000
 20
1455.800000
 30
0.0
 10
2053.900000
 20
1453.000000
 30
0.0
  0
SPLINE
  5
16b
100
AcDbEntity
  8
0
 62
7
100
AcDbSpline
 70
8
 71
3
 72
8
 73
4
 74
0
 40
0
 40
0
 40
0
 40
0
 40
1
 40
1
 40
1
 40
1
 10
2053.900000
 20
1453.000000
 30
0.0
 10
2044.200000
 20
1442.400000
 30
0.0
 10
2046.900000
 20
1424.300000
 30
0.0
 10
2059.300000
 20
1416.600000
 30
0.0
  0
SPLINE
  5
16c
100
AcDbEntity
  8
0
 62
7
100
AcDbSpline
 70
8
 71
3
 72
8
 73
4
 74
0
 40
0
 40
0
 40
0
 40
0
 40
1
 40
1
 40
1
 40
1
 10
2059.300000
 20
1416.600000
 30
0.0
 10
2064.900000
 20
1413.200000
 30
0.0
 10
2072.800000
 20
1412.100000
 30
0.0
 10
2078.600000
 20
1414.000000
 30
0.0
  0
SPLINE
  5
16d
100
AcDbEntity
  8
0
 62
7
100
AcDbSpline
 70
8
 71
3
 72
8
 73
4
 74
0
 40
0
 40
0
 40
0
 40
0
 40
1
 40
1
 40
1
 40
1
 10
2078.600000
 20
1414.000000
 30
0.0
 10
2080.800000
 20
1414.700000
 30
0.0
 10
2116.000000
 20
1434.600000
 30
0.0
 10
2157.000000
 20
1458.200000
 30
0.0
  0
SPLINE
  5
16e
100
AcDbEntity
  8
0
 62
7
100
AcDbSpline
 70
8
 71
3
 72
8
 73
4
 74
0
 40
0
 40
0
 40
0
 40
0
 40
1
 40
1
 40
1
 40
1
 10
2157.000000
 20
1458.200000
 30
0.0
 10
2211.800000
 20
1489.800000
 30
0.0
 10
2232.500000
 20
1502.200000
 30
0.0
 10
2235.200000
 20
1505.200000
 30
0.0
  0
SPLINE
  5
16f
100
AcDbEntity
  8
0
 62
7
100
AcDbSpline
 70
8
 71
3
 72
8
 73
4
 74
0
 40
0
 40
0
 40
0
 40
0
 40
1
 40
1
 40
1
 40
1
 10
2235.200000
 20
1505.200000
 30
0.0
 10
2240.600000
 20
1511.000000
 30
0.0
 10
2242.800000
 20
1518.400000
 30
0.0
 10
2241.200000
 20
1525.800000
 30
0.0
  0
SPLINE
  5
170
100
AcDbEntity
  8
0
 62
7
100
AcDbSpline
 70
8
 71
3
 72
8
 73
4
 74
0
 40
0
 40
0
 40
0
 40
0
 40
1
 40
1
 40
1
 40
1
 10
2241.200000
 20
1525.800000
 30
0.0
 10
2239.600000
 20
1533.500000
 30
0.0
 10
2235.500000
 20
1538.900000
 30
0.0
 10
2228.900000
 20
1542.200000
 30
0.0
  0
SPLINE
  5
171
100
AcDbEntity
  8
0
 62
7
100
AcDbSpline
 70
8
 71
3
 72
8
 73
4
 74
0
 40
0
 40
0
 40
0
 40
0
 40
1
 40
1
 40
1
 40
1
 10
2228.900000
 20
1542.200000
 30
0.0
 10
2222.100000
 20
1545.500000
 30
0.0
 10
2217.700000
 20
1546.200000
 30
0.0
 10
2212.000000
 20
1544.600000
 30
0.0
  0
LWPOLYLINE
  5
172
100
AcDbEntity
  8
0
 62
7
100
AcDbPolyline
 90
1
 70
1
 10
1810.800000
 20
1544.600000
 30
0.0
  0
SPLINE
  5
173
100
AcDbEntity
  8
0
 62
7
100
AcDbSpline
 70
8
 71
3
 72
8
 73
4
 74
0
 40
0
 40
0
 40
0
 40
0
 40
1
 40
1
 40
1
 40
1
 10
1633.000000
 20
1382.400000
 30
0.0
 10
1562.500000
 20
1377.700000
 30
0.0
 10
1500.100000
 20
1346.300000
 30
0.0
 10
1457.200000
 20
1293.800000
 30
0.0
  0
SPLINE
  5
174
100
AcDbEntity
  8
0
 62
7
100
AcDbSpline
 70
8
 71
3
 72
8
 73
4
 74
0
 40
0
 40
0
 40
0
 40
0
 40
1
 40
1
 40
1
 40
1
 10
1457.200000
 20
1293.800000
 30
0.0
 10
1436.500000
 20
1268.500000
 30
0.0
 10
1421.200000
 20
1236.600000
 30
0.0
 10
1414.500000
 20
1204.700000
 30
0.0
  0
SPLINE
  5
175
100
AcDbEntity
  8
0
 62
7
100
AcDbSpline
 70
8
 71
3
 72
8
 73
4
 74
0
 40
0
 40
0
 40
0
 40
0
 40
1
 40
1
 40
1
 40
1
 10
1414.500000
 20
1204.700000
 30
0.0
 10
1410.000000
 20
1183.700000
 30
0.0
 10
1411.200000
 20
1174.400000
 30
0.0
 10
1419.500000
 20
1165.200000
 30
0.0
  0
SPLINE
  5
176
100
AcDbEntity
  8
0
 62
7
100
AcDbSpline
 70
8
 71
3
 72
8
 73
4
 74
0
 40
0
 40
0
 40
0
 40
0
 40
1
 40
1
 40
1
 40
1
 10
1419.500000
 20
1165.200000
 30
0.0
 10
1425.600000
 20
1158.400000
 30
0.0
 10
1432.300000
 20
1155.600000
 30
0.0
 10
1442.000000
 20
1155.600000
 30
0.0
  0
SPLINE
  5
177
100
AcDbEntity
  8
0
 62
7
100
AcDbSpline
 70
8
 71
3
 72
8
 73
4
 74
0
 40
0
 40
0
 40
0
 40
0
 40
1
 40
1
 40
1
 40
1
 10
1442.000000
 20
1155.600000
 30
0.0
 10
1450.900000
 20
1155.600000
 30
0.0
 10
1456.700000
 20
1158.000000
 30
0.0
 10
1462.900000
 20
1164.100000
 30
0.0
  0
SPLINE
  5
178
100
AcDbEntity
  8
0
 62
7
100
AcDbSpline
 70
8
 71
3
 72
8
 73
4
 74
0
 40
0
 40
0
 40
0
 40
0
 40
1
 40
1
 40
1
 40
1
 10
1462.900000
 20
1164.100000
 30
0.0
 10
1468.200000
 20
1169.400000
 30
0.0
 10
1470.600000
 20
1175.100000
 30
0.0
 10
1472.400000
 20
1186.200000
 30
0.0
  0
SPLINE
  5
179
100
AcDbEntity
  8
0
 62
7
100
AcDbSpline
 70
8
 71
3
 72
8
 73
4
 74
0
 40
0
 40
0
 40
0
 40
0
 40
1
 40
1
 40
1
 40
1
 10
1472.400000
 20
1186.200000
 30
0.0
 10
1474.800000
 20
1201.200000
 30
0.0
 10
1478.600000
 20
1212.600000
 30
0.0
 10
1486.000000
 20
1227.500000
 30
0.0
  0
SPLINE
  5
17a
100
AcDbEntity
  8
0
 62
7
100
AcDbSpline
 70
8
 71
3
 72
8
 73
4
 74
0
 40
0
 40
0
 40
0
 40
0
 40
1
 40
1
 40
1
 40
1
 10
1486.000000
 20
1227.500000
 30
0.0
 10
1510.300000
 20
1276.400000
 30
0.0
 10
1557.100000
 20
1309.500000
 30
0.0
 10
1617.000000
 20
1320.100000
 30
0.0
  0
SPLINE
  5
17b
100
AcDbEntity
  8
0
 62
7
100
AcDbSpline
 70
8
 71
3
 72
8
 73
4
 74
0
 40
0
 40
0
 40
0
 40
0
 40
1
 40
1
 40
1
 40
1
 10
1617.000000
 20
1320.100000
 30
0.0
 10
1628.600000
 20
1322.200000
 30
0.0
 10
1663.000000
 20
1321.900000
 30
0.0
 10
1675.500000
 20
1319.600000
 30
0.0
  0
SPLINE
  5
17c
100
AcDbEntity
  8
0
 62
7
100
AcDbSpline
 70
8
 71
3
 72
8
 73
4
 74
0
 40
0
 40
0
 40
0
 40
0
 40
1
 40
1
 40
1
 40
1
 10
1675.500000
 20
1319.600000
 30
0.0
 10
1699.500000
 20
1315.200000
 30
0.0
 10
1723.800000
 20
1305.300000
 30
0.0
 10
1744.800000
 20
1291.400000
 30
0.0
  0
SPLINE
  5
17d
100
AcDbEntity
  8
0
 62
7
100
AcDbSpline
 70
8
 71
3
 72
8
 73
4
 74
0
 40
0
 40
0
 40
0
 40
0
 40
1
 40
1
 40
1
 40
1
 10
1744.800000
 20
1291.400000
 30
0.0
 10
1752.900000
 20
1286.000000
 30
0.0
 10
1760.600000
 20
1279.500000
 30
0.0
 10
1772.000000
 20
1268.500000
 30
0.0
  0
SPLINE
  5
17e
100
AcDbEntity
  8
0
 62
7
100
AcDbSpline
 70
8
 71
3
 72
8
 73
4
 74
0
 40
0
 40
0
 40
0
 40
0
 40
1
 40
1
 40
1
 40
1
 10
1772.000000
 20
1268.500000
 30
0.0
 10
1786.500000
 20
1254.400000
 30
0.0
 10
1788.300000
 20
1253.000000
 30
0.0
 10
1793.600000
 20
1251.400000
 30
0.0
  0
SPLINE
  5
17f
100
AcDbEntity
  8
0
 62
7
100
AcDbSpline
 70
8
 71
3
 72
8
 73
4
 74
0
 40
0
 40
0
 40
0
 40
0
 40
1
 40
1
 40
1
 40
1
 10
1793.600000
 20
1251.400000
 30
0.0
 10
1808.300000
 20
1247.200000
 30
0.0
 10
1824.100000
 20
1254.200000
 30
0.0
 10
1830.300000
 20
1267.900000
 30
0.0
  0
SPLINE
  5
180
100
AcDbEntity
  8
0
 62
7
100
AcDbSpline
 70
8
 71
3
 72
8
 73
4
 74
0
 40
0
 40
0
 40
0
 40
0
 40
1
 40
1
 40
1
 40
1
 10
1830.300000
 20
1267.900000
 30
0.0
 10
1833.600000
 20
1275.000000
 30
0.0
 10
1833.300000
 20
1285.800000
 30
0.0
 10
1829.700000
 20
1293.200000
 30
0.0
  0
SPLINE
  5
181
100
AcDbEntity
  8
0
 62
7
100
AcDbSpline
 70
8
 71
3
 72
8
 73
4
 74
0
 40
0
 40
0
 40
0
 40
0
 40
1
 40
1
 40
1
 40
1
 10
1829.700000
 20
1293.200000
 30
0.0
 10
1824.500000
 20
1303.800000
 30
0.0
 10
1798.000000
 20
1328.700000
 30
0.0
 10
1776.900000
 20
1342.800000
 30
0.0
  0
SPLINE
  5
182
100
AcDbEntity
  8
0
 62
7
100
AcDbSpline
 70
8
 71
3
 72
8
 73
4
 74
0
 40
0
 40
0
 40
0
 40
0
 40
1
 40
1
 40
1
 40
1
 10
1776.900000
 20
1342.800000
 30
0.0
 10
1747.100000
 20
1362.700000
 30
0.0
 10
1708.800000
 20
1376.700000
 30
0.0
 10
1673.000000
 20
1380.900000
 30
0.0
  0
SPLINE
  5
183
100
AcDbEntity
  8
0
 62
7
100
AcDbSpline
 70
8
 71
3
 72
8
 73
4
 74
0
 40
0
 40
0
 40
0
 40
0
 40
1
 40
1
 40
1
 40
1
 10
1673.000000
 20
1380.900000
 30
0.0
 10
1662.900000
 20
1382.100000
 30
0.0
 10
1640.800000
 20
1382.900000
 30
0.0
 10
1633.000000
 20
1382.400000
 30
0.0
  0
LWPOLYLINE
  5
184
100
AcDbEntity
  8
0
 62
7
100
AcDbPolyline
 90
1
 70
1
 10
2212.000000
 20
1544.600000
 30
0.0
  0
SPLINE
  5
185
100
AcDbEntity
  8
0
 62
7
100
AcDbSpline
 70
8
 71
3
 72
8
 73
4
 74
0
 40
0
 40
0
 40
0
 40
0
 40
1
 40
1
 40
1
 40
1
 10
230.400000
 20
1370.900000
 30
0.0
 10
223.400000
 20
1368.200000
 30
0.0
 10
217.600000
 20
1363.000000
 30
0.0
 10
214.300000
 20
1356.200000
 30
0.0
  0
LWPOLYLINE
  5
186
100
AcDbEntity
  8
0
 62
7
100
AcDbPolyline
 90
1
 70
1
 10
1633.000000
 20
1382.400000
 30
0.0
  0
SPLINE
  5
187
100
AcDbEntity
  8
0
 62
7
100
AcDbSpline
 70
8
 71
3
 72
8
 73
4
 74
0
 40
0
 40
0
 40
0
 40
0
 40
1
 40
1
 40
1
 40
1
 10
211.500000
 20
1215.000000
 30
0.0
 10
211.500000
 20
1065.000000
 30
0.0
 10
211.100000
 20
1074.300000
 30
0.0
 10
218.100000
 20
1048.200000
 30
0.0
  0
SPLINE
  5
188
100
AcDbEntity
  8
0
 62
7
100
AcDbSpline
 70
8
 71
3
 72
8
 73
4
 74
0
 40
0
 40
0
 40
0
 40
0
 40
1
 40
1
 40
1
 40
1
 10
218.100000
 20
1048.200000
 30
0.0
 10
231.700000
 20
996.900000
 30
0.0
 10
265.000000
 20
955.100000
 30
0.0
 10
308.500000
 20
935.000000
 30
0.0
  0
SPLINE
  5
189
100
AcDbEntity
  8
0
 62
7
100
AcDbSpline
 70
8
 71
3
 72
8
 73
4
 74
0
 40
0
 40
0
 40
0
 40
0
 40
1
 40
1
 40
1
 40
1
 10
308.500000
 20
935.000000
 30
0.0
 10
323.600000
 20
928.000000
 30
0.0
 10
345.900000
 20
922.000000
 30
0.0
 10
357.000000
 20
922.000000
 30
0.0
  0
SPLINE
  5
18a
100
AcDbEntity
  8
0
 62
7
100
AcDbSpline
 70
8
 71
3
 72
8
 73
4
 74
0
 40
0
 40
0
 40
0
 40
0
 40
1
 40
1
 40
1
 40
1
 10
357.000000
 20
922.000000
 30
0.0
 10
368.100000
 20
922.000000
 30
0.0
 10
378.600000
 20
928.400000
 30
0.0
 10
383.800000
 20
938.400000
 30
0.0
  0
SPLINE
  5
18b
100
AcDbEntity
  8
0
 62
7
100
AcDbSpline
 70
8
 71
3
 72
8
 73
4
 74
0
 40
0
 40
0
 40
0
 40
0
 40
1
 40
1
 40
1
 40
1
 10
383.800000
 20
938.400000
 30
0.0
 10
386.100000
 20
942.800000
 30
0.0
 10
386.500000
 20
944.700000
 30
0.0
 10
386.500000
 20
952.000000
 30
0.0
  0
SPLINE
  5
18c
100
AcDbEntity
  8
0
 62
7
100
AcDbSpline
 70
8
 71
3
 72
8
 73
4
 74
0
 40
0
 40
0
 40
0
 40
0
 40
1
 40
1
 40
1
 40
1
 10
386.500000
 20
952.000000
 30
0.0
 10
386.500000
 20
959.300000
 30
0.0
 10
386.100000
 20
961.200000
 30
0.0
 10
383.800000
 20
965.600000
 30
0.0
  0
SPLINE
  5
18d
100
AcDbEntity
  8
0
 62
7
100
AcDbSpline
 70
8
 71
3
 72
8
 73
4
 74
0
 40
0
 40
0
 40
0
 40
0
 40
1
 40
1
 40
1
 40
1
 10
383.800000
 20
965.600000
 30
0.0
 10
380.800000
 20
971.300000
 30
0.0
 10
374.700000
 20
977.300000
 30
0.0
 10
369.600000
 20
979.400000
 30
0.0
  0
SPLINE
  5
18e
100
AcDbEntity
  8
0
 62
7
100
AcDbSpline
 70
8
 71
3
 72
8
 73
4
 74
0
 40
0
 40
0
 40
0
 40
0
 40
1
 40
1
 40
1
 40
1
 10
369.600000
 20
979.400000
 30
0.0
 10
367.600000
 20
980.200000
 30
0.0
 10
362.200000
 20
981.600000
 30
0.0
 10
357.400000
 20
982.500000
 30
0.0
  0
SPLINE
  5
18f
100
AcDbEntity
  8
0
 62
7
100
AcDbSpline
 70
8
 71
3
 72
8
 73
4
 74
0
 40
0
 40
0
 40
0
 40
0
 40
1
 40
1
 40
1
 40
1
 10
357.400000
 20
982.500000
 30
0.0
 10
334.300000
 20
986.800000
 30
0.0
 10
314.600000
 20
998.600000
 30
0.0
 10
300.100000
 20
1016.500000
 30
0.0
  0
SPLINE
  5
190
100
AcDbEntity
  8
0
 62
7
100
AcDbSpline
 70
8
 71
3
 72
8
 73
4
 74
0
 40
0
 40
0
 40
0
 40
0
 40
1
 40
1
 40
1
 40
1
 10
300.100000
 20
1016.500000
 30
0.0
 10
286.300000
 20
1033.700000
 30
0.0
 10
278.300000
 20
1051.900000
 30
0.0
 10
273.300000
 20
1077.500000
 30
0.0
  0
SPLINE
  5
191
100
AcDbEntity
  8
0
 62
7
100
AcDbSpline
 70
8
 71
3
 72
8
 73
4
 74
0
 40
0
 40
0
 40
0
 40
0
 40
1
 40
1
 40
1
 40
1
 10
273.300000
 20
1077.500000
 30
0.0
 10
271.700000
 20
1085.700000
 30
0.0
 10
271.500000
 20
1098.400000
 30
0.0
 10
271.000000
 20
1219.000000
 30
0.0
  0
LWPOLYLINE
  5
192
100
AcDbEntity
  8
0
 62
7
100
AcDbPolyline
 90
3
 70
0
 10
214.300000
 20
1356.200000
 30
0.0
 10
211.500000
 20
1350.500000
 30
0.0
 10
211.500000
 20
1215.000000
 30
0.0
  0
SPLINE
  5
193
100
AcDbEntity
  8
0
 62
7
100
AcDbSpline
 70
8
 71
3
 72
8
 73
4
 74
0
 40
0
 40
0
 40
0
 40
0
 40
1
 40
1
 40
1
 40
1
 10
268.200000
 20
1356.200000
 30
0.0
 10
261.500000
 20
1369.800000
 30
0.0
 10
244.600000
 20
1376.400000
 30
0.0
 10
230.400000
 20
1370.900000
 30
0.0
  0
LWPOLYLINE
  5
194
100
AcDbEntity
  8
0
 62
7
100
AcDbPolyline
 90
3
 70
0
 10
271.000000
 20
1219.000000
 30
0.0
 10
270.500000
 20
1351.500000
 30
0.0
 10
268.200000
 20
1356.200000
 30
0.0
  0
SPLINE
  5
195
100
AcDbEntity
  8
0
 62
7
100
AcDbSpline
 70
8
 71
3
 72
8
 73
4
 74
0
 40
0
 40
0
 40
0
 40
0
 40
1
 40
1
 40
1
 40
1
 10
543.900000
 20
1371.100000
 30
0.0
 10
537.900000
 20
1368.700000
 30
0.0
 10
532.800000
 20
1364.900000
 30
0.0
 10
529.800000
 20
1360.200000
 30
0.0
  0
SPLINE
  5
196
100
AcDbEntity
  8
0
 62
7
100
AcDbSpline
 70
8
 71
3
 72
8
 73
4
 74
0
 40
0
 40
0
 40
0
 40
0
 40
1
 40
1
 40
1
 40
1
 10
529.800000
 20
1360.200000
 30
0.0
 10
524.200000
 20
1351.700000
 30
0.0
 10
524.500000
 20
1360.200000
 30
0.0
 10
523.900000
 20
1215.000000
 30
0.0
  0
SPLINE
  5
197
100
AcDbEntity
  8
0
 62
7
100
AcDbSpline
 70
8
 71
3
 72
8
 73
4
 74
0
 40
0
 40
0
 40
0
 40
0
 40
1
 40
1
 40
1
 40
1
 10
523.900000
 20
1215.000000
 30
0.0
 10
523.400000
 20
1083.300000
 30
0.0
 10
523.300000
 20
1080.300000
 30
0.0
 10
521.300000
 20
1071.000000
 30
0.0
  0
SPLINE
  5
198
100
AcDbEntity
  8
0
 62
7
100
AcDbSpline
 70
8
 71
3
 72
8
 73
4
 74
0
 40
0
 40
0
 40
0
 40
0
 40
1
 40
1
 40
1
 40
1
 10
521.300000
 20
1071.000000
 30
0.0
 10
510.600000
 20
1022.200000
 30
0.0
 10
480.500000
 20
989.700000
 30
0.0
 10
439.300000
 20
982.500000
 30
0.0
  0
SPLINE
  5
199
100
AcDbEntity
  8
0
 62
7
100
AcDbSpline
 70
8
 71
3
 72
8
 73
4
 74
0
 40
0
 40
0
 40
0
 40
0
 40
1
 40
1
 40
1
 40
1
 10
439.300000
 20
982.500000
 30
0.0
 10
428.500000
 20
980.600000
 30
0.0
 10
425.100000
 20
979.100000
 30
0.0
 10
419.100000
 20
973.500000
 30
0.0
  0
SPLINE
  5
19a
100
AcDbEntity
  8
0
 62
7
100
AcDbSpline
 70
8
 71
3
 72
8
 73
4
 74
0
 40
0
 40
0
 40
0
 40
0
 40
1
 40
1
 40
1
 40
1
 10
419.100000
 20
973.500000
 30
0.0
 10
406.600000
 20
961.800000
 30
0.0
 10
406.800000
 20
941.800000
 30
0.0
 10
419.500000
 20
930.200000
 30
0.0
  0
SPLINE
  5
19b
100
AcDbEntity
  8
0
 62
7
100
AcDbSpline
 70
8
 71
3
 72
8
 73
4
 74
0
 40
0
 40
0
 40
0
 40
0
 40
1
 40
1
 40
1
 40
1
 10
419.500000
 20
930.200000
 30
0.0
 10
428.400000
 20
922.000000
 30
0.0
 10
436.500000
 20
920.400000
 30
0.0
 10
453.000000
 20
923.600000
 30
0.0
  0
SPLINE
  5
19c
100
AcDbEntity
  8
0
 62
7
100
AcDbSpline
 70
8
 71
3
 72
8
 73
4
 74
0
 40
0
 40
0
 40
0
 40
0
 40
1
 40
1
 40
1
 40
1
 10
453.000000
 20
923.600000
 30
0.0
 10
480.900000
 20
928.800000
 30
0.0
 10
507.300000
 20
942.700000
 30
0.0
 10
528.800000
 20
963.500000
 30
0.0
  0
SPLINE
  5
19d
100
AcDbEntity
  8
0
 62
7
100
AcDbSpline
 70
8
 71
3
 72
8
 73
4
 74
0
 40
0
 40
0
 40
0
 40
0
 40
1
 40
1
 40
1
 40
1
 10
528.800000
 20
963.500000
 30
0.0
 10
561.100000
 20
994.500000
 30
0.0
 10
580.000000
 20
1036.500000
 30
0.0
 10
584.000000
 20
1086.100000
 30
0.0
  0
SPLINE
  5
19e
100
AcDbEntity
  8
0
 62
7
100
AcDbSpline
 70
8
 71
3
 72
8
 73
4
 74
0
 40
0
 40
0
 40
0
 40
0
 40
1
 40
1
 40
1
 40
1
 10
584.000000
 20
1086.100000
 30
0.0
 10
584.700000
 20
1095.100000
 30
0.0
 10
585.000000
 20
1140.800000
 30
0.0
 10
584.800000
 20
1224.500000
 30
0.0
  0
LWPOLYLINE
  5
19f
100
AcDbEntity
  8
0
 62
7
100
AcDbPolyline
 90
1
 70
1
 10
230.400000
 20
1370.900000
 30
0.0
  0
SPLINE
  5
1a0
100
AcDbEntity
  8
0
 62
7
100
AcDbSpline
 70
8
 71
3
 72
8
 73
4
 74
0
 40
0
 40
0
 40
0
 40
0
 40
1
 40
1
 40
1
 40
1
 10
581.800000
 20
1355.200000
 30
0.0
 10
575.000000
 20
1369.700000
 30
0.0
 10
558.300000
 20
1376.700000
 30
0.0
 10
543.900000
 20
1371.100000
 30
0.0
  0
LWPOLYLINE
  5
1a1
100
AcDbEntity
  8
0
 62
7
100
AcDbPolyline
 90
3
 70
0
 10
584.800000
 20
1224.500000
 30
0.0
 10
584.500000
 20
1349.500000
 30
0.0
 10
581.800000
 20
1355.200000
 30
0.0
  0
SPLINE
  5
1a2
100
AcDbEntity
  8
0
 62
7
100
AcDbSpline
 70
8
 71
3
 72
8
 73
4
 74
0
 40
0
 40
0
 40
0
 40
0
 40
1
 40
1
 40
1
 40
1
 10
641.200000
 20
1370.000000
 30
0.0
 10
630.100000
 20
1364.400000
 30
0.0
 10
624.600000
 20
1355.500000
 30
0.0
 10
624.500000
 20
1343.000000
 30
0.0
  0
SPLINE
  5
1a3
100
AcDbEntity
  8
0
 62
7
100
AcDbSpline
 70
8
 71
3
 72
8
 73
4
 74
0
 40
0
 40
0
 40
0
 40
0
 40
1
 40
1
 40
1
 40
1
 10
624.500000
 20
1343.000000
 30
0.0
 10
624.500000
 20
1333.700000
 30
0.0
 10
627.800000
 20
1326.100000
 30
0.0
 10
634.600000
 20
1320.100000
 30
0.0
  0
SPLINE
  5
1a4
100
AcDbEntity
  8
0
 62
7
100
AcDbSpline
 70
8
 71
3
 72
8
 73
4
 74
0
 40
0
 40
0
 40
0
 40
0
 40
1
 40
1
 40
1
 40
1
 10
634.600000
 20
1320.100000
 30
0.0
 10
644.000000
 20
1311.900000
 30
0.0
 10
629.400000
 20
1312.500000
 30
0.0
 10
810.500000
 20
1312.500000
 30
0.0
  0
SPLINE
  5
1a5
100
AcDbEntity
  8
0
 62
7
100
AcDbSpline
 70
8
 71
3
 72
8
 73
4
 74
0
 40
0
 40
0
 40
0
 40
0
 40
1
 40
1
 40
1
 40
1
 10
810.500000
 20
1312.500000
 30
0.0
 10
985.800000
 20
1312.500000
 30
0.0
 10
974.900000
 20
1312.100000
 30
0.0
 10
983.700000
 20
1318.200000
 30
0.0
  0
SPLINE
  5
1a6
100
AcDbEntity
  8
0
 62
7
100
AcDbSpline
 70
8
 71
3
 72
8
 73
4
 74
0
 40
0
 40
0
 40
0
 40
0
 40
1
 40
1
 40
1
 40
1
 10
983.700000
 20
1318.200000
 30
0.0
 10
992.000000
 20
1323.900000
 30
0.0
 10
998.000000
 20
1336.900000
 30
0.0
 10
996.500000
 20
1346.300000
 30
0.0
  0
SPLINE
  5
1a7
100
AcDbEntity
  8
0
 62
7
100
AcDbSpline
 70
8
 71
3
 72
8
 73
4
 74
0
 40
0
 40
0
 40
0
 40
0
 40
1
 40
1
 40
1
 40
1
 10
996.500000
 20
1346.300000
 30
0.0
 10
994.900000
 20
1356.400000
 30
0.0
 10
988.400000
 20
1365.600000
 30
0.0
 10
979.700000
 20
1370.200000
 30
0.0
  0
LWPOLYLINE
  5
1a8
100
AcDbEntity
  8
0
 62
7
100
AcDbPolyline
 90
1
 70
1
 10
543.900000
 20
1371.100000
 30
0.0
  0
SPLINE
  5
1a9
100
AcDbEntity
  8
0
 62
7
100
AcDbSpline
 70
8
 71
3
 72
8
 73
4
 74
0
 40
0
 40
0
 40
0
 40
0
 40
1
 40
1
 40
1
 40
1
 10
1055.100000
 20
1370.800000
 30
0.0
 10
1048.600000
 20
1368.300000
 30
0.0
 10
1041.700000
 20
1361.800000
 30
0.0
 10
1038.700000
 20
1355.200000
 30
0.0
  0
LWPOLYLINE
  5
1aa
100
AcDbEntity
  8
0
 62
7
100
AcDbPolyline
 90
6
 70
0
 10
979.700000
 20
1370.200000
 30
0.0
 10
975.500000
 20
1372.500000
 30
0.0
 10
811.400000
 20
1372.800000
 30
0.0
 10
647.400000
 20
1373.000000
 30
0.0
 10
641.200000
 20
1370.000000
 30
0.0
 10
641.200000
 20
1370.000000
 30
0.0
  0
SPLINE
  5
1ab
100
AcDbEntity
  8
0
 62
7
100
AcDbSpline
 70
8
 71
3
 72
8
 73
4
 74
0
 40
0
 40
0
 40
0
 40
0
 40
1
 40
1
 40
1
 40
1
 10
1039.300000
 20
932.800000
 30
0.0
 10
1044.200000
 20
922.700000
 30
0.0
 10
1053.000000
 20
917.000000
 30
0.0
 10
1064.500000
 20
916.200000
 30
0.0
  0
SPLINE
  5
1ac
100
AcDbEntity
  8
0
 62
7
100
AcDbSpline
 70
8
 71
3
 72
8
 73
4
 74
0
 40
0
 40
0
 40
0
 40
0
 40
1
 40
1
 40
1
 40
1
 10
1064.500000
 20
916.200000
 30
0.0
 10
1077.400000
 20
915.400000
 30
0.0
 10
1088.200000
 20
921.900000
 30
0.0
 10
1093.900000
 20
934.000000
 30
0.0
  0
LWPOLYLINE
  5
1ad
100
AcDbEntity
  8
0
 62
7
100
AcDbPolyline
 90
5
 70
0
 10
1038.700000
 20
1355.200000
 30
0.0
 10
1036.500000
 20
1350.500000
 30
0.0
 10
1036.500000
 20
1144.500000
 30
0.0
 10
1036.500000
 20
938.500000
 30
0.0
 10
1039.300000
 20
932.800000
 30
0.0
  0
SPLINE
  5
1ae
100
AcDbEntity
  8
0
 62
7
100
AcDbSpline
 70
8
 71
3
 72
8
 73
4
 74
0
 40
0
 40
0
 40
0
 40
0
 40
1
 40
1
 40
1
 40
1
 10
1094.100000
 20
1354.800000
 30
0.0
 10
1087.400000
 20
1369.500000
 30
0.0
 10
1070.200000
 20
1376.600000
 30
0.0
 10
1055.100000
 20
1370.800000
 30
0.0
  0
LWPOLYLINE
  5
1af
100
AcDbEntity
  8
0
 62
7
100
AcDbPolyline
 90
5
 70
0
 10
1093.900000
 20
934.000000
 30
0.0
 10
1096.500000
 20
939.500000
 30
0.0
 10
1096.500000
 20
1144.500000
 30
0.0
 10
1096.500000
 20
1349.500000
 30
0.0
 10
1094.100000
 20
1354.800000
 30
0.0
  0
SPLINE
  5
1b0
100
AcDbEntity
  8
0
 62
7
100
AcDbSpline
 70
8
 71
3
 72
8
 73
4
 74
0
 40
0
 40
0
 40
0
 40
0
 40
1
 40
1
 40
1
 40
1
 10
1139.700000
 20
1371.600000
 30
0.0
 10
1128.100000
 20
1367.400000
 30
0.0
 10
1119.900000
 20
1356.200000
 30
0.0
 10
1119.600000
 20
1344.000000
 30
0.0
  0
SPLINE
  5
1b1
100
AcDbEntity
  8
0
 62
7
100
AcDbSpline
 70
8
 71
3
 72
8
 73
4
 74
0
 40
0
 40
0
 40
0
 40
0
 40
1
 40
1
 40
1
 40
1
 10
1119.600000
 20
1344.000000
 30
0.0
 10
1119.400000
 20
1331.500000
 30
0.0
 10
1125.200000
 20
1321.700000
 30
0.0
 10
1136.400000
 20
1316.000000
 30
0.0
  0
LWPOLYLINE
  5
1b2
100
AcDbEntity
  8
0
 62
7
100
AcDbPolyline
 90
1
 70
1
 10
1055.100000
 20
1370.800000
 30
0.0
  0
SPLINE
  5
1b3
100
AcDbEntity
  8
0
 62
7
100
AcDbSpline
 70
8
 71
3
 72
8
 73
4
 74
0
 40
0
 40
0
 40
0
 40
0
 40
1
 40
1
 40
1
 40
1
 10
1354.100000
 20
1315.100000
 30
0.0
 10
1365.100000
 20
1320.300000
 30
0.0
 10
1371.000000
 20
1328.800000
 30
0.0
 10
1371.800000
 20
1340.600000
 30
0.0
  0
SPLINE
  5
1b4
100
AcDbEntity
  8
0
 62
7
100
AcDbSpline
 70
8
 71
3
 72
8
 73
4
 74
0
 40
0
 40
0
 40
0
 40
0
 40
1
 40
1
 40
1
 40
1
 10
1371.800000
 20
1340.600000
 30
0.0
 10
1372.500000
 20
1350.900000
 30
0.0
 10
1370.200000
 20
1356.900000
 30
0.0
 10
1363.100000
 20
1364.100000
 30
0.0
  0
SPLINE
  5
1b5
100
AcDbEntity
  8
0
 62
7
100
AcDbSpline
 70
8
 71
3
 72
8
 73
4
 74
0
 40
0
 40
0
 40
0
 40
0
 40
1
 40
1
 40
1
 40
1
 10
1363.100000
 20
1364.100000
 30
0.0
 10
1353.500000
 20
1373.700000
 30
0.0
 10
1362.400000
 20
1373.000000
 30
0.0
 10
1245.600000
 20
1373.000000
 30
0.0
  0
SPLINE
  5
1b6
100
AcDbEntity
  8
0
 62
7
100
AcDbSpline
 70
8
 71
3
 72
8
 73
4
 74
0
 40
0
 40
0
 40
0
 40
0
 40
1
 40
1
 40
1
 40
1
 10
1245.600000
 20
1373.000000
 30
0.0
 10
1162.300000
 20
1372.900000
 30
0.0
 10
1142.800000
 20
1372.700000
 30
0.0
 10
1139.700000
 20
1371.600000
 30
0.0
  0
LWPOLYLINE
  5
1b7
100
AcDbEntity
  8
0
 62
7
100
AcDbPolyline
 90
5
 70
0
 10
1136.400000
 20
1316.000000
 30
0.0
 10
1143.300000
 20
1312.500000
 30
0.0
 10
1245.900000
 20
1312.500000
 30
0.0
 10
1348.500000
 20
1312.500000
 30
0.0
 10
1354.100000
 20
1315.100000
 30
0.0
  0
SPLINE
  5
1b8
100
AcDbEntity
  8
0
 62
7
100
AcDbSpline
 70
8
 71
3
 72
8
 73
4
 74
0
 40
0
 40
0
 40
0
 40
0
 40
1
 40
1
 40
1
 40
1
 10
800.500000
 20
1287.800000
 30
0.0
 10
795.500000
 20
1286.000000
 30
0.0
 10
789.800000
 20
1281.700000
 30
0.0
 10
786.300000
 20
1277.200000
 30
0.0
  0
SPLINE
  5
1b9
100
AcDbEntity
  8
0
 62
7
100
AcDbSpline
 70
8
 71
3
 72
8
 73
4
 74
0
 40
0
 40
0
 40
0
 40
0
 40
1
 40
1
 40
1
 40
1
 10
786.300000
 20
1277.200000
 30
0.0
 10
779.600000
 20
1268.300000
 30
0.0
 10
779.900000
 20
1279.400000
 30
0.0
 10
780.200000
 20
1100.400000
 30
0.0
  0
SPLINE
  5
1ba
100
AcDbEntity
  8
0
 62
7
100
AcDbSpline
 70
8
 71
3
 72
8
 73
4
 74
0
 40
0
 40
0
 40
0
 40
0
 40
1
 40
1
 40
1
 40
1
 10
780.200000
 20
1100.400000
 30
0.0
 10
780.500000
 20
947.900000
 30
0.0
 10
780.600000
 20
938.300000
 30
0.0
 10
782.300000
 20
934.600000
 30
0.0
  0
SPLINE
  5
1bb
100
AcDbEntity
  8
0
 62
7
100
AcDbSpline
 70
8
 71
3
 72
8
 73
4
 74
0
 40
0
 40
0
 40
0
 40
0
 40
1
 40
1
 40
1
 40
1
 10
782.300000
 20
934.600000
 30
0.0
 10
787.200000
 20
923.700000
 30
0.0
 10
796.800000
 20
917.000000
 30
0.0
 10
808.400000
 20
916.200000
 30
0.0
  0
SPLINE
  5
1bc
100
AcDbEntity
  8
0
 62
7
100
AcDbSpline
 70
8
 71
3
 72
8
 73
4
 74
0
 40
0
 40
0
 40
0
 40
0
 40
1
 40
1
 40
1
 40
1
 10
808.400000
 20
916.200000
 30
0.0
 10
821.500000
 20
915.400000
 30
0.0
 10
832.200000
 20
921.800000
 30
0.0
 10
837.800000
 20
933.800000
 30
0.0
  0
LWPOLYLINE
  5
1bd
100
AcDbEntity
  8
0
 62
7
100
AcDbPolyline
 90
1
 70
1
 10
1139.700000
 20
1371.600000
 30
0.0
  0
SPLINE
  5
1be
100
AcDbEntity
  8
0
 62
7
100
AcDbSpline
 70
8
 71
3
 72
8
 73
4
 74
0
 40
0
 40
0
 40
0
 40
0
 40
1
 40
1
 40
1
 40
1
 10
840.500000
 20
1101.500000
 30
0.0
 10
840.500000
 20
1233.800000
 30
0.0
 10
840.300000
 20
1264.300000
 30
0.0
 10
839.200000
 20
1268.100000
 30
0.0
  0
SPLINE
  5
1bf
100
AcDbEntity
  8
0
 62
7
100
AcDbSpline
 70
8
 71
3
 72
8
 73
4
 74
0
 40
0
 40
0
 40
0
 40
0
 40
1
 40
1
 40
1
 40
1
 10
839.200000
 20
1268.100000
 30
0.0
 10
837.100000
 20
1275.300000
 30
0.0
 10
831.400000
 20
1282.000000
 30
0.0
 10
824.100000
 20
1285.700000
 30
0.0
  0
SPLINE
  5
1c0
100
AcDbEntity
  8
0
 62
7
100
AcDbSpline
 70
8
 71
3
 72
8
 73
4
 74
0
 40
0
 40
0
 40
0
 40
0
 40
1
 40
1
 40
1
 40
1
 10
824.100000
 20
1285.700000
 30
0.0
 10
818.700000
 20
1288.600000
 30
0.0
 10
816.900000
 20
1289.000000
 30
0.0
 10
810.700000
 20
1288.900000
 30
0.0
  0
SPLINE
  5
1c1
100
AcDbEntity
  8
0
 62
7
100
AcDbSpline
 70
8
 71
3
 72
8
 73
4
 74
0
 40
0
 40
0
 40
0
 40
0
 40
1
 40
1
 40
1
 40
1
 10
810.700000
 20
1288.900000
 30
0.0
 10
806.700000
 20
1288.900000
 30
0.0
 10
802.200000
 20
1288.400000
 30
0.0
 10
800.500000
 20
1287.800000
 30
0.0
  0
LWPOLYLINE
  5
1c2
100
AcDbEntity
  8
0
 62
7
100
AcDbPolyline
 90
3
 70
0
 10
837.800000
 20
933.800000
 30
0.0
 10
840.500000
 20
939.500000
 30
0.0
 10
840.500000
 20
1101.500000
 30
0.0
  0
SPLINE
  5
1c3
100
AcDbEntity
  8
0
 62
7
100
AcDbSpline
 70
8
 71
3
 72
8
 73
4
 74
0
 40
0
 40
0
 40
0
 40
0
 40
1
 40
1
 40
1
 40
1
 10
1141.500000
 20
1178.600000
 30
0.0
 10
1132.200000
 20
1175.700000
 30
0.0
 10
1125.600000
 20
1169.800000
 30
0.0
 10
1121.700000
 20
1161.100000
 30
0.0
  0
SPLINE
  5
1c4
100
AcDbEntity
  8
0
 62
7
100
AcDbSpline
 70
8
 71
3
 72
8
 73
4
 74
0
 40
0
 40
0
 40
0
 40
0
 40
1
 40
1
 40
1
 40
1
 10
1121.700000
 20
1161.100000
 30
0.0
 10
1118.900000
 20
1154.800000
 30
0.0
 10
1118.900000
 20
1144.200000
 30
0.0
 10
1121.700000
 20
1137.800000
 30
0.0
  0
SPLINE
  5
1c5
100
AcDbEntity
  8
0
 62
7
100
AcDbSpline
 70
8
 71
3
 72
8
 73
4
 74
0
 40
0
 40
0
 40
0
 40
0
 40
1
 40
1
 40
1
 40
1
 10
1121.700000
 20
1137.800000
 30
0.0
 10
1124.600000
 20
1131.300000
 30
0.0
 10
1131.100000
 20
1124.700000
 30
0.0
 10
1137.300000
 20
1121.900000
 30
0.0
  0
LWPOLYLINE
  5
1c6
100
AcDbEntity
  8
0
 62
7
100
AcDbPolyline
 90
1
 70
1
 10
800.500000
 20
1287.800000
 30
0.0
  0
SPLINE
  5
1c7
100
AcDbEntity
  8
0
 62
7
100
AcDbSpline
 70
8
 71
3
 72
8
 73
4
 74
0
 40
0
 40
0
 40
0
 40
0
 40
1
 40
1
 40
1
 40
1
 10
1219.900000
 20
1119.200000
 30
0.0
 10
1306.600000
 20
1118.900000
 30
0.0
 10
1303.700000
 20
1118.700000
 30
0.0
 10
1312.800000
 20
1125.900000
 30
0.0
  0
SPLINE
  5
1c8
100
AcDbEntity
  8
0
 62
7
100
AcDbSpline
 70
8
 71
3
 72
8
 73
4
 74
0
 40
0
 40
0
 40
0
 40
0
 40
1
 40
1
 40
1
 40
1
 10
1312.800000
 20
1125.900000
 30
0.0
 10
1320.200000
 20
1131.800000
 30
0.0
 10
1323.500000
 20
1139.100000
 30
0.0
 10
1323.500000
 20
1149.500000
 30
0.0
  0
SPLINE
  5
1c9
100
AcDbEntity
  8
0
 62
7
100
AcDbSpline
 70
8
 71
3
 72
8
 73
4
 74
0
 40
0
 40
0
 40
0
 40
0
 40
1
 40
1
 40
1
 40
1
 10
1323.500000
 20
1149.500000
 30
0.0
 10
1323.500000
 20
1159.900000
 30
0.0
 10
1320.200000
 20
1167.200000
 30
0.0
 10
1312.800000
 20
1173.000000
 30
0.0
  0
SPLINE
  5
1ca
100
AcDbEntity
  8
0
 62
7
100
AcDbSpline
 70
8
 71
3
 72
8
 73
4
 74
0
 40
0
 40
0
 40
0
 40
0
 40
1
 40
1
 40
1
 40
1
 10
1312.800000
 20
1173.000000
 30
0.0
 10
1303.700000
 20
1180.200000
 30
0.0
 10
1306.600000
 20
1180.000000
 30
0.0
 10
1221.600000
 20
1179.900000
 30
0.0
  0
SPLINE
  5
1cb
100
AcDbEntity
  8
0
 62
7
100
AcDbSpline
 70
8
 71
3
 72
8
 73
4
 74
0
 40
0
 40
0
 40
0
 40
0
 40
1
 40
1
 40
1
 40
1
 10
1221.600000
 20
1179.900000
 30
0.0
 10
1163.200000
 20
1179.900000
 30
0.0
 10
1144.600000
 20
1179.600000
 30
0.0
 10
1141.500000
 20
1178.600000
 30
0.0
  0
LWPOLYLINE
  5
1cc
100
AcDbEntity
  8
0
 62
7
100
AcDbPolyline
 90
3
 70
0
 10
1137.300000
 20
1121.900000
 30
0.0
 10
1142.500000
 20
1119.500000
 30
0.0
 10
1219.900000
 20
1119.200000
 30
0.0
  0
SPLINE
  5
1cd
100
AcDbEntity
  8
0
 62
7
100
AcDbSpline
 70
8
 71
3
 72
8
 73
4
 74
0
 40
0
 40
0
 40
0
 40
0
 40
1
 40
1
 40
1
 40
1
 10
1431.700000
 20
1131.600000
 30
0.0
 10
1421.300000
 20
1127.800000
 30
0.0
 10
1414.100000
 20
1119.200000
 30
0.0
 10
1412.100000
 20
1108.200000
 30
0.0
  0
SPLINE
  5
1ce
100
AcDbEntity
  8
0
 62
7
100
AcDbSpline
 70
8
 71
3
 72
8
 73
4
 74
0
 40
0
 40
0
 40
0
 40
0
 40
1
 40
1
 40
1
 40
1
 10
1412.100000
 20
1108.200000
 30
0.0
 10
1411.000000
 20
1102.700000
 30
0.0
 10
1412.700000
 20
1089.700000
 30
0.0
 10
1416.500000
 20
1074.800000
 30
0.0
  0
SPLINE
  5
1cf
100
AcDbEntity
  8
0
 62
7
100
AcDbSpline
 70
8
 71
3
 72
8
 73
4
 74
0
 40
0
 40
0
 40
0
 40
0
 40
1
 40
1
 40
1
 40
1
 10
1416.500000
 20
1074.800000
 30
0.0
 10
1423.500000
 20
1047.000000
 30
0.0
 10
1438.200000
 20
1018.200000
 30
0.0
 10
1457.300000
 20
994.500000
 30
0.0
  0
SPLINE
  5
1d0
100
AcDbEntity
  8
0
 62
7
100
AcDbSpline
 70
8
 71
3
 72
8
 73
4
 74
0
 40
0
 40
0
 40
0
 40
0
 40
1
 40
1
 40
1
 40
1
 10
1457.300000
 20
994.500000
 30
0.0
 10
1466.500000
 20
983.200000
 30
0.0
 10
1486.700000
 20
963.800000
 30
0.0
 10
1498.800000
 20
954.700000
 30
0.0
  0
SPLINE
  5
1d1
100
AcDbEntity
  8
0
 62
7
100
AcDbSpline
 70
8
 71
3
 72
8
 73
4
 74
0
 40
0
 40
0
 40
0
 40
0
 40
1
 40
1
 40
1
 40
1
 10
1498.800000
 20
954.700000
 30
0.0
 10
1530.700000
 20
930.800000
 30
0.0
 10
1569.000000
 20
914.800000
 30
0.0
 10
1610.000000
 20
908.400000
 30
0.0
  0
SPLINE
  5
1d2
100
AcDbEntity
  8
0
 62
7
100
AcDbSpline
 70
8
 71
3
 72
8
 73
4
 74
0
 40
0
 40
0
 40
0
 40
0
 40
1
 40
1
 40
1
 40
1
 10
1610.000000
 20
908.400000
 30
0.0
 10
1626.300000
 20
905.800000
 30
0.0
 10
1664.000000
 20
905.800000
 30
0.0
 10
1679.500000
 20
908.300000
 30
0.0
  0
SPLINE
  5
1d3
100
AcDbEntity
  8
0
 62
7
100
AcDbSpline
 70
8
 71
3
 72
8
 73
4
 74
0
 40
0
 40
0
 40
0
 40
0
 40
1
 40
1
 40
1
 40
1
 10
1679.500000
 20
908.300000
 30
0.0
 10
1735.000000
 20
917.600000
 30
0.0
 10
1779.500000
 20
940.600000
 30
0.0
 10
1817.000000
 20
979.600000
 30
0.0
  0
SPLINE
  5
1d4
100
AcDbEntity
  8
0
 62
7
100
AcDbSpline
 70
8
 71
3
 72
8
 73
4
 74
0
 40
0
 40
0
 40
0
 40
0
 40
1
 40
1
 40
1
 40
1
 10
1817.000000
 20
979.600000
 30
0.0
 10
1829.900000
 20
993.000000
 30
0.0
 10
1832.300000
 20
997.500000
 30
0.0
 10
1832.400000
 20
1008.000000
 30
0.0
  0
SPLINE
  5
1d5
100
AcDbEntity
  8
0
 62
7
100
AcDbSpline
 70
8
 71
3
 72
8
 73
4
 74
0
 40
0
 40
0
 40
0
 40
0
 40
1
 40
1
 40
1
 40
1
 10
1832.400000
 20
1008.000000
 30
0.0
 10
1832.500000
 20
1017.400000
 30
0.0
 10
1829.700000
 20
1024.200000
 30
0.0
 10
1823.300000
 20
1030.100000
 30
0.0
  0
SPLINE
  5
1d6
100
AcDbEntity
  8
0
 62
7
100
AcDbSpline
 70
8
 71
3
 72
8
 73
4
 74
0
 40
0
 40
0
 40
0
 40
0
 40
1
 40
1
 40
1
 40
1
 10
1823.300000
 20
1030.100000
 30
0.0
 10
1813.900000
 20
1038.800000
 30
0.0
 10
1800.900000
 20
1040.800000
 30
0.0
 10
1789.200000
 20
1035.300000
 30
0.0
  0
SPLINE
  5
1d7
100
AcDbEntity
  8
0
 62
7
100
AcDbSpline
 70
8
 71
3
 72
8
 73
4
 74
0
 40
0
 40
0
 40
0
 40
0
 40
1
 40
1
 40
1
 40
1
 10
1789.200000
 20
1035.300000
 30
0.0
 10
1787.200000
 20
1034.400000
 30
0.0
 10
1781.200000
 20
1029.200000
 30
0.0
 10
1776.000000
 20
1023.700000
 30
0.0
  0
SPLINE
  5
1d8
100
AcDbEntity
  8
0
 62
7
100
AcDbSpline
 70
8
 71
3
 72
8
 73
4
 74
0
 40
0
 40
0
 40
0
 40
0
 40
1
 40
1
 40
1
 40
1
 10
1776.000000
 20
1023.700000
 30
0.0
 10
1765.400000
 20
1012.700000
 30
0.0
 10
1752.200000
 20
1001.600000
 30
0.0
 10
1741.200000
 20
994.500000
 30
0.0
  0
SPLINE
  5
1d9
100
AcDbEntity
  8
0
 62
7
100
AcDbSpline
 70
8
 71
3
 72
8
 73
4
 74
0
 40
0
 40
0
 40
0
 40
0
 40
1
 40
1
 40
1
 40
1
 10
1741.200000
 20
994.500000
 30
0.0
 10
1731.200000
 20
988.100000
 30
0.0
 10
1711.400000
 20
978.700000
 30
0.0
 10
1700.200000
 20
975.000000
 30
0.0
  0
SPLINE
  5
1da
100
AcDbEntity
  8
0
 62
7
100
AcDbSpline
 70
8
 71
3
 72
8
 73
4
 74
0
 40
0
 40
0
 40
0
 40
0
 40
1
 40
1
 40
1
 40
1
 10
1700.200000
 20
975.000000
 30
0.0
 10
1661.200000
 20
962.400000
 30
0.0
 10
1616.000000
 20
963.900000
 30
0.0
 10
1577.600000
 20
979.100000
 30
0.0
  0
SPLINE
  5
1db
100
AcDbEntity
  8
0
 62
7
100
AcDbSpline
 70
8
 71
3
 72
8
 73
4
 74
0
 40
0
 40
0
 40
0
 40
0
 40
1
 40
1
 40
1
 40
1
 10
1577.600000
 20
979.100000
 30
0.0
 10
1521.400000
 20
1001.400000
 30
0.0
 10
1481.500000
 20
1047.900000
 30
0.0
 10
1472.500000
 20
1101.500000
 30
0.0
  0
SPLINE
  5
1dc
100
AcDbEntity
  8
0
 62
7
100
AcDbSpline
 70
8
 71
3
 72
8
 73
4
 74
0
 40
0
 40
0
 40
0
 40
0
 40
1
 40
1
 40
1
 40
1
 10
1472.500000
 20
1101.500000
 30
0.0
 10
1470.600000
 20
1113.200000
 30
0.0
 10
1468.500000
 20
1118.300000
 30
0.0
 10
1463.700000
 20
1123.700000
 30
0.0
  0
SPLINE
  5
1dd
100
AcDbEntity
  8
0
 62
7
100
AcDbSpline
 70
8
 71
3
 72
8
 73
4
 74
0
 40
0
 40
0
 40
0
 40
0
 40
1
 40
1
 40
1
 40
1
 10
1463.700000
 20
1123.700000
 30
0.0
 10
1458.300000
 20
1129.600000
 30
0.0
 10
1451.900000
 20
1132.400000
 30
0.0
 10
1443.000000
 20
1132.700000
 30
0.0
  0
SPLINE
  5
1de
100
AcDbEntity
  8
0
 62
7
100
AcDbSpline
 70
8
 71
3
 72
8
 73
4
 74
0
 40
0
 40
0
 40
0
 40
0
 40
1
 40
1
 40
1
 40
1
 10
1443.000000
 20
1132.700000
 30
0.0
 10
1438.400000
 20
1132.900000
 30
0.0
 10
1434.100000
 20
1132.500000
 30
0.0
 10
1431.700000
 20
1131.600000
 30
0.0
  0
LWPOLYLINE
  5
1df
100
AcDbEntity
  8
0
 62
7
100
AcDbPolyline
 90
1
 70
1
 10
1141.500000
 20
1178.600000
 30
0.0
  0
SPLINE
  5
1e0
100
AcDbEntity
  8
0
 62
7
100
AcDbSpline
 70
8
 71
3
 72
8
 73
4
 74
0
 40
0
 40
0
 40
0
 40
0
 40
1
 40
1
 40
1
 40
1
 10
1145.400000
 20
976.000000
 30
0.0
 10
1139.200000
 20
975.100000
 30
0.0
 10
1130.800000
 20
970.700000
 30
0.0
 10
1127.300000
 20
966.500000
 30
0.0
  0
SPLINE
  5
1e1
100
AcDbEntity
  8
0
 62
7
100
AcDbSpline
 70
8
 71
3
 72
8
 73
4
 74
0
 40
0
 40
0
 40
0
 40
0
 40
1
 40
1
 40
1
 40
1
 10
1127.300000
 20
966.500000
 30
0.0
 10
1122.500000
 20
960.900000
 30
0.0
 10
1119.600000
 20
953.100000
 30
0.0
 10
1119.600000
 20
945.900000
 30
0.0
  0
SPLINE
  5
1e2
100
AcDbEntity
  8
0
 62
7
100
AcDbSpline
 70
8
 71
3
 72
8
 73
4
 74
0
 40
0
 40
0
 40
0
 40
0
 40
1
 40
1
 40
1
 40
1
 10
1119.600000
 20
945.900000
 30
0.0
 10
1119.600000
 20
940.400000
 30
0.0
 10
1120.200000
 20
938.100000
 30
0.0
 10
1122.800000
 20
932.700000
 30
0.0
  0
SPLINE
  5
1e3
100
AcDbEntity
  8
0
 62
7
100
AcDbSpline
 70
8
 71
3
 72
8
 73
4
 74
0
 40
0
 40
0
 40
0
 40
0
 40
1
 40
1
 40
1
 40
1
 10
1122.800000
 20
932.700000
 30
0.0
 10
1126.500000
 20
925.300000
 30
0.0
 10
1130.100000
 20
921.800000
 30
0.0
 10
1138.000000
 20
918.100000
 30
0.0
  0
LWPOLYLINE
  5
1e4
100
AcDbEntity
  8
0
 62
7
100
AcDbPolyline
 90
1
 70
1
 10
1431.700000
 20
1131.600000
 30
0.0
  0
SPLINE
  5
1e5
100
AcDbEntity
  8
0
 62
7
100
AcDbSpline
 70
8
 71
3
 72
8
 73
4
 74
0
 40
0
 40
0
 40
0
 40
0
 40
1
 40
1
 40
1
 40
1
 10
1245.500000
 20
915.500000
 30
0.0
 10
1361.200000
 20
915.500000
 30
0.0
 10
1352.700000
 20
914.900000
 30
0.0
 10
1362.300000
 20
923.900000
 30
0.0
  0
SPLINE
  5
1e6
100
AcDbEntity
  8
0
 62
7
100
AcDbSpline
 70
8
 71
3
 72
8
 73
4
 74
0
 40
0
 40
0
 40
0
 40
0
 40
1
 40
1
 40
1
 40
1
 10
1362.300000
 20
923.900000
 30
0.0
 10
1370.000000
 20
931.000000
 30
0.0
 10
1371.500000
 20
934.700000
 30
0.0
 10
1371.500000
 20
946.000000
 30
0.0
  0
SPLINE
  5
1e7
100
AcDbEntity
  8
0
 62
7
100
AcDbSpline
 70
8
 71
3
 72
8
 73
4
 74
0
 40
0
 40
0
 40
0
 40
0
 40
1
 40
1
 40
1
 40
1
 10
1371.500000
 20
946.000000
 30
0.0
 10
1371.500000
 20
957.000000
 30
0.0
 10
1370.000000
 20
960.800000
 30
0.0
 10
1362.800000
 20
967.600000
 30
0.0
  0
SPLINE
  5
1e8
100
AcDbEntity
  8
0
 62
7
100
AcDbSpline
 70
8
 71
3
 72
8
 73
4
 74
0
 40
0
 40
0
 40
0
 40
0
 40
1
 40
1
 40
1
 40
1
 10
1362.800000
 20
967.600000
 30
0.0
 10
1357.300000
 20
972.900000
 30
0.0
 10
1353.800000
 20
974.700000
 30
0.0
 10
1345.900000
 20
975.900000
 30
0.0
  0
SPLINE
  5
1e9
100
AcDbEntity
  8
0
 62
7
100
AcDbSpline
 70
8
 71
3
 72
8
 73
4
 74
0
 40
0
 40
0
 40
0
 40
0
 40
1
 40
1
 40
1
 40
1
 10
1345.900000
 20
975.900000
 30
0.0
 10
1338.500000
 20
977.200000
 30
0.0
 10
1153.600000
 20
977.200000
 30
0.0
 10
1145.400000
 20
976.000000
 30
0.0
  0
LWPOLYLINE
  5
1ea
100
AcDbEntity
  8
0
 62
7
100
AcDbPolyline
 90
3
 70
0
 10
1138.000000
 20
918.100000
 30
0.0
 10
1143.500000
 20
915.500000
 30
0.0
 10
1245.500000
 20
915.500000
 30
0.0
  0
SPLINE
  5
1eb
100
AcDbEntity
  8
0
 62
7
100
AcDbSpline
 70
8
 71
3
 72
8
 73
4
 74
0
 40
0
 40
0
 40
0
 40
0
 40
1
 40
1
 40
1
 40
1
 10
469.100000
 20
689.200000
 30
0.0
 10
461.700000
 20
685.500000
 30
0.0
 10
459.000000
 20
677.200000
 30
0.0
 10
463.200000
 20
671.000000
 30
0.0
  0
SPLINE
  5
1ec
100
AcDbEntity
  8
0
 62
7
100
AcDbSpline
 70
8
 71
3
 72
8
 73
4
 74
0
 40
0
 40
0
 40
0
 40
0
 40
1
 40
1
 40
1
 40
1
 10
463.200000
 20
671.000000
 30
0.0
 10
464.500000
 20
669.100000
 30
0.0
 10
467.100000
 20
666.700000
 30
0.0
 10
469.000000
 20
665.800000
 30
0.0
  0
SPLINE
  5
1ed
100
AcDbEntity
  8
0
 62
7
100
AcDbSpline
 70
8
 71
3
 72
8
 73
4
 74
0
 40
0
 40
0
 40
0
 40
0
 40
1
 40
1
 40
1
 40
1
 10
469.000000
 20
665.800000
 30
0.0
 10
478.400000
 20
661.000000
 30
0.0
 10
489.300000
 20
667.300000
 30
0.0
 10
489.300000
 20
677.300000
 30
0.0
  0
SPLINE
  5
1ee
100
AcDbEntity
  8
0
 62
7
100
AcDbSpline
 70
8
 71
3
 72
8
 73
4
 74
0
 40
0
 40
0
 40
0
 40
0
 40
1
 40
1
 40
1
 40
1
 10
489.300000
 20
677.300000
 30
0.0
 10
489.300000
 20
682.900000
 30
0.0
 10
486.400000
 20
687.200000
 30
0.0
 10
481.000000
 20
689.400000
 30
0.0
  0
SPLINE
  5
1ef
100
AcDbEntity
  8
0
 62
7
100
AcDbSpline
 70
8
 71
3
 72
8
 73
4
 74
0
 40
0
 40
0
 40
0
 40
0
 40
1
 40
1
 40
1
 40
1
 10
481.000000
 20
689.400000
 30
0.0
 10
475.800000
 20
691.400000
 30
0.0
 10
473.300000
 20
691.400000
 30
0.0
 10
469.100000
 20
689.200000
 30
0.0
  0
LWPOLYLINE
  5
1f0
100
AcDbEntity
  8
0
 62
7
100
AcDbPolyline
 90
1
 70
1
 10
1145.400000
 20
976.000000
 30
0.0
  0
SPLINE
  5
1f1
100
AcDbEntity
  8
0
 62
7
100
AcDbSpline
 70
8
 71
3
 72
8
 73
4
 74
0
 40
0
 40
0
 40
0
 40
0
 40
1
 40
1
 40
1
 40
1
 10
866.000000
 20
689.200000
 30
0.0
 10
860.700000
 20
686.600000
 30
0.0
 10
857.700000
 20
681.500000
 30
0.0
 10
858.300000
 20
676.200000
 30
0.0
  0
SPLINE
  5
1f2
100
AcDbEntity
  8
0
 62
7
100
AcDbSpline
 70
8
 71
3
 72
8
 73
4
 74
0
 40
0
 40
0
 40
0
 40
0
 40
1
 40
1
 40
1
 40
1
 10
858.300000
 20
676.200000
 30
0.0
 10
859.500000
 20
664.700000
 30
0.0
 10
874.100000
 20
660.200000
 30
0.0
 10
882.600000
 20
668.600000
 30
0.0
  0
SPLINE
  5
1f3
100
AcDbEntity
  8
0
 62
7
100
AcDbSpline
 70
8
 71
3
 72
8
 73
4
 74
0
 40
0
 40
0
 40
0
 40
0
 40
1
 40
1
 40
1
 40
1
 10
882.600000
 20
668.600000
 30
0.0
 10
885.500000
 20
671.500000
 30
0.0
 10
886.000000
 20
672.800000
 30
0.0
 10
886.000000
 20
676.600000
 30
0.0
  0
SPLINE
  5
1f4
100
AcDbEntity
  8
0
 62
7
100
AcDbSpline
 70
8
 71
3
 72
8
 73
4
 74
0
 40
0
 40
0
 40
0
 40
0
 40
1
 40
1
 40
1
 40
1
 10
886.000000
 20
676.600000
 30
0.0
 10
886.000000
 20
682.900000
 30
0.0
 10
883.700000
 20
686.800000
 30
0.0
 10
878.700000
 20
689.100000
 30
0.0
  0
SPLINE
  5
1f5
100
AcDbEntity
  8
0
 62
7
100
AcDbSpline
 70
8
 71
3
 72
8
 73
4
 74
0
 40
0
 40
0
 40
0
 40
0
 40
1
 40
1
 40
1
 40
1
 10
878.700000
 20
689.100000
 30
0.0
 10
873.500000
 20
691.400000
 30
0.0
 10
870.500000
 20
691.500000
 30
0.0
 10
866.000000
 20
689.200000
 30
0.0
  0
LWPOLYLINE
  5
1f6
100
AcDbEntity
  8
0
 62
7
100
AcDbPolyline
 90
1
 70
1
 10
469.100000
 20
689.200000
 30
0.0
  0
SPLINE
  5
1f7
100
AcDbEntity
  8
0
 62
7
100
AcDbSpline
 70
8
 71
3
 72
8
 73
4
 74
0
 40
0
 40
0
 40
0
 40
0
 40
1
 40
1
 40
1
 40
1
 10
2071.400000
 20
689.600000
 30
0.0
 10
2064.500000
 20
686.600000
 30
0.0
 10
2061.500000
 20
678.800000
 30
0.0
 10
2064.600000
 20
672.400000
 30
0.0
  0
SPLINE
  5
1f8
100
AcDbEntity
  8
0
 62
7
100
AcDbSpline
 70
8
 71
3
 72
8
 73
4
 74
0
 40
0
 40
0
 40
0
 40
0
 40
1
 40
1
 40
1
 40
1
 10
2064.600000
 20
672.400000
 30
0.0
 10
2067.100000
 20
667.500000
 30
0.0
 10
2070.800000
 20
664.900000
 30
0.0
 10
2076.100000
 20
664.300000
 30
0.0
  0
SPLINE
  5
1f9
100
AcDbEntity
  8
0
 62
7
100
AcDbSpline
 70
8
 71
3
 72
8
 73
4
 74
0
 40
0
 40
0
 40
0
 40
0
 40
1
 40
1
 40
1
 40
1
 10
2076.100000
 20
664.300000
 30
0.0
 10
2084.500000
 20
663.500000
 30
0.0
 10
2091.300000
 20
669.400000
 30
0.0
 10
2091.300000
 20
677.400000
 30
0.0
  0
SPLINE
  5
1fa
100
AcDbEntity
  8
0
 62
7
100
AcDbSpline
 70
8
 71
3
 72
8
 73
4
 74
0
 40
0
 40
0
 40
0
 40
0
 40
1
 40
1
 40
1
 40
1
 10
2091.300000
 20
677.400000
 30
0.0
 10
2091.300000
 20
683.100000
 30
0.0
 10
2089.000000
 20
686.600000
 30
0.0
 10
2083.700000
 20
689.100000
 30
0.0
  0
SPLINE
  5
1fb
100
AcDbEntity
  8
0
 62
7
100
AcDbSpline
 70
8
 71
3
 72
8
 73
4
 74
0
 40
0
 40
0
 40
0
 40
0
 40
1
 40
1
 40
1
 40
1
 10
2083.700000
 20
689.100000
 30
0.0
 10
2078.800000
 20
691.300000
 30
0.0
 10
2075.600000
 20
691.400000
 30
0.0
 10
2071.400000
 20
689.600000
 30
0.0
  0
LWPOLYLINE
  5
1fc
100
AcDbEntity
  8
0
 62
7
100
AcDbPolyline
 90
1
 70
1
 10
866.000000
 20
689.200000
 30
0.0
  0
SPLINE
  5
1fd
100
AcDbEntity
  8
0
 62
7
100
AcDbSpline
 70
8
 71
3
 72
8
 73
4
 74
0
 40
0
 40
0
 40
0
 40
0
 40
1
 40
1
 40
1
 40
1
 10
230.200000
 20
642.300000
 30
0.0
 10
230.500000
 20
595.700000
 30
0.0
 10
230.500000
 20
595.500000
 30
0.0
 10
232.900000
 20
589.500000
 30
0.0
  0
SPLINE
  5
1fe
100
AcDbEntity
  8
0
 62
7
100
AcDbSpline
 70
8
 71
3
 72
8
 73
4
 74
0
 40
0
 40
0
 40
0
 40
0
 40
1
 40
1
 40
1
 40
1
 10
232.900000
 20
589.500000
 30
0.0
 10
240.000000
 20
571.500000
 30
0.0
 10
253.500000
 20
561.000000
 30
0.0
 10
273.200000
 20
557.900000
 30
0.0
  0
SPLINE
  5
1ff
100
AcDbEntity
  8
0
 62
7
100
AcDbSpline
 70
8
 71
3
 72
8
 73
4
 74
0
 40
0
 40
0
 40
0
 40
0
 40
1
 40
1
 40
1
 40
1
 10
273.200000
 20
557.900000
 30
0.0
 10
285.800000
 20
555.900000
 30
0.0
 10
300.300000
 20
558.600000
 30
0.0
 10
310.800000
 20
564.700000
 30
0.0
  0
SPLINE
  5
200
100
AcDbEntity
  8
0
 62
7
100
AcDbSpline
 70
8
 71
3
 72
8
 73
4
 74
0
 40
0
 40
0
 40
0
 40
0
 40
1
 40
1
 40
1
 40
1
 10
310.800000
 20
564.700000
 30
0.0
 10
317.100000
 20
568.400000
 30
0.0
 10
324.200000
 20
576.000000
 30
0.0
 10
327.900000
 20
583.000000
 30
0.0
  0
SPLINE
  5
201
100
AcDbEntity
  8
0
 62
7
100
AcDbSpline
 70
8
 71
3
 72
8
 73
4
 74
0
 40
0
 40
0
 40
0
 40
0
 40
1
 40
1
 40
1
 40
1
 10
327.900000
 20
583.000000
 30
0.0
 10
333.500000
 20
593.600000
 30
0.0
 10
334.000000
 20
597.800000
 30
0.0
 10
334.000000
 20
645.800000
 30
0.0
  0
LWPOLYLINE
  5
202
100
AcDbEntity
  8
0
 62
7
100
AcDbPolyline
 90
1
 70
1
 10
2071.400000
 20
689.600000
 30
0.0
  0
SPLINE
  5
203
100
AcDbEntity
  8
0
 62
7
100
AcDbSpline
 70
8
 71
3
 72
8
 73
4
 74
0
 40
0
 40
0
 40
0
 40
0
 40
1
 40
1
 40
1
 40
1
 10
310.800000
 20
645.300000
 30
0.0
 10
310.500000
 20
606.600000
 30
0.0
 10
310.200000
 20
601.000000
 30
0.0
 10
308.700000
 20
596.900000
 30
0.0
  0
SPLINE
  5
204
100
AcDbEntity
  8
0
 62
7
100
AcDbSpline
 70
8
 71
3
 72
8
 73
4
 74
0
 40
0
 40
0
 40
0
 40
0
 40
1
 40
1
 40
1
 40
1
 10
308.700000
 20
596.900000
 30
0.0
 10
306.200000
 20
590.400000
 30
0.0
 10
301.700000
 20
585.500000
 30
0.0
 10
295.500000
 20
582.400000
 30
0.0
  0
SPLINE
  5
205
100
AcDbEntity
  8
0
 62
7
100
AcDbSpline
 70
8
 71
3
 72
8
 73
4
 74
0
 40
0
 40
0
 40
0
 40
0
 40
1
 40
1
 40
1
 40
1
 10
295.500000
 20
582.400000
 30
0.0
 10
290.900000
 20
580.200000
 30
0.0
 10
288.600000
 20
579.700000
 30
0.0
 10
281.900000
 20
579.700000
 30
0.0
  0
SPLINE
  5
206
100
AcDbEntity
  8
0
 62
7
100
AcDbSpline
 70
8
 71
3
 72
8
 73
4
 74
0
 40
0
 40
0
 40
0
 40
0
 40
1
 40
1
 40
1
 40
1
 10
281.900000
 20
579.700000
 30
0.0
 10
275.000000
 20
579.700000
 30
0.0
 10
273.100000
 20
580.100000
 30
0.0
 10
268.200000
 20
582.600000
 30
0.0
  0
SPLINE
  5
207
100
AcDbEntity
  8
0
 62
7
100
AcDbSpline
 70
8
 71
3
 72
8
 73
4
 74
0
 40
0
 40
0
 40
0
 40
0
 40
1
 40
1
 40
1
 40
1
 10
268.200000
 20
582.600000
 30
0.0
 10
262.100000
 20
585.800000
 30
0.0
 10
256.900000
 20
591.700000
 30
0.0
 10
254.800000
 20
597.800000
 30
0.0
  0
SPLINE
  5
208
100
AcDbEntity
  8
0
 62
7
100
AcDbSpline
 70
8
 71
3
 72
8
 73
4
 74
0
 40
0
 40
0
 40
0
 40
0
 40
1
 40
1
 40
1
 40
1
 10
254.800000
 20
597.800000
 30
0.0
 10
254.000000
 20
600.400000
 30
0.0
 10
253.500000
 20
613.900000
 30
0.0
 10
253.300000
 20
645.300000
 30
0.0
  0
LWPOLYLINE
  5
209
100
AcDbEntity
  8
0
 62
7
100
AcDbPolyline
 90
5
 70
0
 10
334.000000
 20
645.800000
 30
0.0
 10
334.000000
 20
689.000000
 30
0.0
 10
322.600000
 20
689.000000
 30
0.0
 10
311.100000
 20
689.000000
 30
0.0
 10
310.800000
 20
645.300000
 30
0.0
  0
LWPOLYLINE
  5
20a
100
AcDbEntity
  8
0
 62
7
100
AcDbPolyline
 90
6
 70
0
 10
253.300000
 20
645.300000
 30
0.0
 10
252.900000
 20
689.000000
 30
0.0
 10
241.400000
 20
689.000000
 30
0.0
 10
229.900000
 20
689.000000
 30
0.0
 10
230.200000
 20
642.300000
 30
0.0
 10
230.200000
 20
642.300000
 30
0.0
  0
SPLINE
  5
20b
100
AcDbEntity
  8
0
 62
7
100
AcDbSpline
 70
8
 71
3
 72
8
 73
4
 74
0
 40
0
 40
0
 40
0
 40
0
 40
1
 40
1
 40
1
 40
1
 10
971.000000
 20
641.300000
 30
0.0
 10
959.200000
 20
651.900000
 30
0.0
 10
938.300000
 20
653.000000
 30
0.0
 10
923.800000
 20
643.800000
 30
0.0
  0
SPLINE
  5
20c
100
AcDbEntity
  8
0
 62
7
100
AcDbSpline
 70
8
 71
3
 72
8
 73
4
 74
0
 40
0
 40
0
 40
0
 40
0
 40
1
 40
1
 40
1
 40
1
 10
923.800000
 20
643.800000
 30
0.0
 10
911.100000
 20
635.700000
 30
0.0
 10
904.000000
 20
621.600000
 30
0.0
 10
904.000000
 20
603.900000
 30
0.0
  0
SPLINE
  5
20d
100
AcDbEntity
  8
0
 62
7
100
AcDbSpline
 70
8
 71
3
 72
8
 73
4
 74
0
 40
0
 40
0
 40
0
 40
0
 40
1
 40
1
 40
1
 40
1
 10
904.000000
 20
603.900000
 30
0.0
 10
904.000000
 20
576.900000
 30
0.0
 10
921.100000
 20
558.700000
 30
0.0
 10
946.500000
 20
558.700000
 30
0.0
  0
SPLINE
  5
20e
100
AcDbEntity
  8
0
 62
7
100
AcDbSpline
 70
8
 71
3
 72
8
 73
4
 74
0
 40
0
 40
0
 40
0
 40
0
 40
1
 40
1
 40
1
 40
1
 10
946.500000
 20
558.700000
 30
0.0
 10
958.200000
 20
558.700000
 30
0.0
 10
965.500000
 20
561.300000
 30
0.0
 10
972.300000
 20
568.000000
 30
0.0
  0
LWPOLYLINE
  5
20f
100
AcDbEntity
  8
0
 62
7
100
AcDbPolyline
 90
3
 70
0
 10
976.000000
 20
662.900000
 30
0.0
 10
976.000000
 20
636.800000
 30
0.0
 10
971.000000
 20
641.300000
 30
0.0
  0
SPLINE
  5
210
100
AcDbEntity
  8
0
 62
7
100
AcDbSpline
 70
8
 71
3
 72
8
 73
4
 74
0
 40
0
 40
0
 40
0
 40
0
 40
1
 40
1
 40
1
 40
1
 10
963.100000
 20
627.200000
 30
0.0
 10
979.600000
 20
618.600000
 30
0.0
 10
981.200000
 20
594.100000
 30
0.0
 10
965.900000
 20
583.000000
 30
0.0
  0
SPLINE
  5
211
100
AcDbEntity
  8
0
 62
7
100
AcDbSpline
 70
8
 71
3
 72
8
 73
4
 74
0
 40
0
 40
0
 40
0
 40
0
 40
1
 40
1
 40
1
 40
1
 10
965.900000
 20
583.000000
 30
0.0
 10
961.200000
 20
579.600000
 30
0.0
 10
952.800000
 20
577.600000
 30
0.0
 10
947.300000
 20
578.600000
 30
0.0
  0
SPLINE
  5
212
100
AcDbEntity
  8
0
 62
7
100
AcDbSpline
 70
8
 71
3
 72
8
 73
4
 74
0
 40
0
 40
0
 40
0
 40
0
 40
1
 40
1
 40
1
 40
1
 10
947.300000
 20
578.600000
 30
0.0
 10
941.800000
 20
579.500000
 30
0.0
 10
934.400000
 20
583.800000
 30
0.0
 10
931.400000
 20
587.700000
 30
0.0
  0
SPLINE
  5
213
100
AcDbEntity
  8
0
 62
7
100
AcDbSpline
 70
8
 71
3
 72
8
 73
4
 74
0
 40
0
 40
0
 40
0
 40
0
 40
1
 40
1
 40
1
 40
1
 10
931.400000
 20
587.700000
 30
0.0
 10
923.500000
 20
598.000000
 30
0.0
 10
924.600000
 20
614.600000
 30
0.0
 10
933.700000
 20
623.200000
 30
0.0
  0
SPLINE
  5
214
100
AcDbEntity
  8
0
 62
7
100
AcDbSpline
 70
8
 71
3
 72
8
 73
4
 74
0
 40
0
 40
0
 40
0
 40
0
 40
1
 40
1
 40
1
 40
1
 10
933.700000
 20
623.200000
 30
0.0
 10
941.300000
 20
630.400000
 30
0.0
 10
953.700000
 20
632.100000
 30
0.0
 10
963.100000
 20
627.200000
 30
0.0
  0
LWPOLYLINE
  5
215
100
AcDbEntity
  8
0
 62
7
100
AcDbPolyline
 90
12
 70
0
 10
972.300000
 20
568.000000
 30
0.0
 10
977.000000
 20
572.700000
 30
0.0
 10
977.000000
 20
566.400000
 30
0.0
 10
977.000000
 20
560.000000
 30
0.0
 10
987.500000
 20
560.000000
 30
0.0
 10
998.000000
 20
560.000000
 30
0.0
 10
998.000000
 20
624.500000
 30
0.0
 10
998.000000
 20
689.000000
 30
0.0
 10
987.000000
 20
689.000000
 30
0.0
 10
976.000000
 20
689.000000
 30
0.0
 10
976.000000
 20
662.900000
 30
0.0
 10
976.000000
 20
662.900000
 30
0.0
  0
LWPOLYLINE
  5
216
100
AcDbEntity
  8
0
 62
7
100
AcDbPolyline
 90
1
 70
1
 10
963.100000
 20
627.200000
 30
0.0
  0
SPLINE
  5
217
100
AcDbEntity
  8
0
 62
7
100
AcDbSpline
 70
8
 71
3
 72
8
 73
4
 74
0
 40
0
 40
0
 40
0
 40
0
 40
1
 40
1
 40
1
 40
1
 10
1198.300000
 20
641.000000
 30
0.0
 10
1196.300000
 20
642.800000
 30
0.0
 10
1192.100000
 20
645.500000
 30
0.0
 10
1189.000000
 20
646.900000
 30
0.0
  0
SPLINE
  5
218
100
AcDbEntity
  8
0
 62
7
100
AcDbSpline
 70
8
 71
3
 72
8
 73
4
 74
0
 40
0
 40
0
 40
0
 40
0
 40
1
 40
1
 40
1
 40
1
 10
1189.000000
 20
646.900000
 30
0.0
 10
1184.100000
 20
649.200000
 30
0.0
 10
1182.300000
 20
649.500000
 30
0.0
 10
1172.500000
 20
649.500000
 30
0.0
  0
SPLINE
  5
219
100
AcDbEntity
  8
0
 62
7
100
AcDbSpline
 70
8
 71
3
 72
8
 73
4
 74
0
 40
0
 40
0
 40
0
 40
0
 40
1
 40
1
 40
1
 40
1
 10
1172.500000
 20
649.500000
 30
0.0
 10
1162.100000
 20
649.500000
 30
0.0
 10
1161.100000
 20
649.300000
 30
0.0
 10
1154.900000
 20
646.300000
 30
0.0
  0
SPLINE
  5
21a
100
AcDbEntity
  8
0
 62
7
100
AcDbSpline
 70
8
 71
3
 72
8
 73
4
 74
0
 40
0
 40
0
 40
0
 40
0
 40
1
 40
1
 40
1
 40
1
 10
1154.900000
 20
646.300000
 30
0.0
 10
1137.600000
 20
637.700000
 30
0.0
 10
1127.900000
 20
617.800000
 30
0.0
 10
1130.900000
 20
596.800000
 30
0.0
  0
SPLINE
  5
21b
100
AcDbEntity
  8
0
 62
7
100
AcDbSpline
 70
8
 71
3
 72
8
 73
4
 74
0
 40
0
 40
0
 40
0
 40
0
 40
1
 40
1
 40
1
 40
1
 10
1130.900000
 20
596.800000
 30
0.0
 10
1133.700000
 20
576.700000
 30
0.0
 10
1145.700000
 20
563.300000
 30
0.0
 10
1164.200000
 20
559.400000
 30
0.0
  0
SPLINE
  5
21c
100
AcDbEntity
  8
0
 62
7
100
AcDbSpline
 70
8
 71
3
 72
8
 73
4
 74
0
 40
0
 40
0
 40
0
 40
0
 40
1
 40
1
 40
1
 40
1
 10
1164.200000
 20
559.400000
 30
0.0
 10
1177.800000
 20
556.500000
 30
0.0
 10
1190.900000
 20
559.800000
 30
0.0
 10
1199.200000
 20
568.100000
 30
0.0
  0
LWPOLYLINE
  5
21d
100
AcDbEntity
  8
0
 62
7
100
AcDbPolyline
 90
3
 70
0
 10
1202.000000
 20
663.400000
 30
0.0
 10
1202.000000
 20
637.800000
 30
0.0
 10
1198.300000
 20
641.000000
 30
0.0
  0
SPLINE
  5
21e
100
AcDbEntity
  8
0
 62
7
100
AcDbSpline
 70
8
 71
3
 72
8
 73
4
 74
0
 40
0
 40
0
 40
0
 40
0
 40
1
 40
1
 40
1
 40
1
 10
1186.200000
 20
628.800000
 30
0.0
 10
1191.900000
 20
627.100000
 30
0.0
 10
1198.300000
 20
621.000000
 30
0.0
 10
1201.000000
 20
614.800000
 30
0.0
  0
SPLINE
  5
21f
100
AcDbEntity
  8
0
 62
7
100
AcDbSpline
 70
8
 71
3
 72
8
 73
4
 74
0
 40
0
 40
0
 40
0
 40
0
 40
1
 40
1
 40
1
 40
1
 10
1201.000000
 20
614.800000
 30
0.0
 10
1204.200000
 20
607.300000
 30
0.0
 10
1203.500000
 20
597.000000
 30
0.0
 10
1199.400000
 20
590.300000
 30
0.0
  0
SPLINE
  5
220
100
AcDbEntity
  8
0
 62
7
100
AcDbSpline
 70
8
 71
3
 72
8
 73
4
 74
0
 40
0
 40
0
 40
0
 40
0
 40
1
 40
1
 40
1
 40
1
 10
1199.400000
 20
590.300000
 30
0.0
 10
1189.100000
 20
573.700000
 30
0.0
 10
1164.500000
 20
574.600000
 30
0.0
 10
1155.800000
 20
591.900000
 30
0.0
  0
SPLINE
  5
221
100
AcDbEntity
  8
0
 62
7
100
AcDbSpline
 70
8
 71
3
 72
8
 73
4
 74
0
 40
0
 40
0
 40
0
 40
0
 40
1
 40
1
 40
1
 40
1
 10
1155.800000
 20
591.900000
 30
0.0
 10
1153.500000
 20
596.300000
 30
0.0
 10
1153.000000
 20
598.700000
 30
0.0
 10
1153.000000
 20
604.500000
 30
0.0
  0
SPLINE
  5
222
100
AcDbEntity
  8
0
 62
7
100
AcDbSpline
 70
8
 71
3
 72
8
 73
4
 74
0
 40
0
 40
0
 40
0
 40
0
 40
1
 40
1
 40
1
 40
1
 10
1153.000000
 20
604.500000
 30
0.0
 10
1153.000000
 20
615.900000
 30
0.0
 10
1158.200000
 20
624.100000
 30
0.0
 10
1168.200000
 20
628.500000
 30
0.0
  0
SPLINE
  5
223
100
AcDbEntity
  8
0
 62
7
100
AcDbSpline
 70
8
 71
3
 72
8
 73
4
 74
0
 40
0
 40
0
 40
0
 40
0
 40
1
 40
1
 40
1
 40
1
 10
1168.200000
 20
628.500000
 30
0.0
 10
1172.200000
 20
630.200000
 30
0.0
 10
1180.900000
 20
630.400000
 30
0.0
 10
1186.200000
 20
628.800000
 30
0.0
  0
LWPOLYLINE
  5
224
100
AcDbEntity
  8
0
 62
7
100
AcDbPolyline
 90
12
 70
0
 10
1199.200000
 20
568.100000
 30
0.0
 10
1204.000000
 20
572.900000
 30
0.0
 10
1204.000000
 20
566.400000
 30
0.0
 10
1204.000000
 20
559.900000
 30
0.0
 10
1214.300000
 20
560.200000
 30
0.0
 10
1224.500000
 20
560.500000
 30
0.0
 10
1224.800000
 20
624.800000
 30
0.0
 10
1225.000000
 20
689.000000
 30
0.0
 10
1213.500000
 20
689.000000
 30
0.0
 10
1202.000000
 20
689.000000
 30
0.0
 10
1202.000000
 20
663.400000
 30
0.0
 10
1202.000000
 20
663.400000
 30
0.0
  0
LWPOLYLINE
  5
225
100
AcDbEntity
  8
0
 62
7
100
AcDbPolyline
 90
1
 70
1
 10
1186.200000
 20
628.800000
 30
0.0
  0
LWPOLYLINE
  5
226
100
AcDbEntity
  8
0
 62
7
100
AcDbPolyline
 90
17
 70
1
 10
1292.000000
 20
678.500000
 30
0.0
 10
1292.000000
 20
668.000000
 30
0.0
 10
1311.500000
 20
668.000000
 30
0.0
 10
1331.000000
 20
668.000000
 30
0.0
 10
1331.200000
 20
614.300000
 30
0.0
 10
1331.500000
 20
560.500000
 30
0.0
 10
1342.800000
 20
560.200000
 30
0.0
 10
1354.000000
 20
559.900000
 30
0.0
 10
1354.000000
 20
613.900000
 30
0.0
 10
1354.000000
 20
668.000000
 30
0.0
 10
1373.800000
 20
668.200000
 30
0.0
 10
1393.500000
 20
668.500000
 30
0.0
 10
1393.800000
 20
678.800000
 30
0.0
 10
1394.100000
 20
689.000000
 30
0.0
 10
1343.000000
 20
689.000000
 30
0.0
 10
1292.000000
 20
689.000000
 30
0.0
 10
1292.000000
 20
678.500000
 30
0.0
  0
SPLINE
  5
227
100
AcDbEntity
  8
0
 62
7
100
AcDbSpline
 70
8
 71
3
 72
8
 73
4
 74
0
 40
0
 40
0
 40
0
 40
0
 40
1
 40
1
 40
1
 40
1
 10
1884.500000
 20
676.600000
 30
0.0
 10
1879.800000
 20
669.800000
 30
0.0
 10
1876.000000
 20
663.900000
 30
0.0
 10
1876.000000
 20
663.600000
 30
0.0
  0
SPLINE
  5
228
100
AcDbEntity
  8
0
 62
7
100
AcDbSpline
 70
8
 71
3
 72
8
 73
4
 74
0
 40
0
 40
0
 40
0
 40
0
 40
1
 40
1
 40
1
 40
1
 10
1876.000000
 20
663.600000
 30
0.0
 10
1876.000000
 20
663.300000
 30
0.0
 10
1879.700000
 20
663.000000
 30
0.0
 10
1884.300000
 20
663.000000
 30
0.0
  0
LWPOLYLINE
  5
229
100
AcDbEntity
  8
0
 62
7
100
AcDbPolyline
 90
9
 70
1
 10
1794.000000
 20
624.500000
 30
0.0
 10
1794.000000
 20
560.000000
 30
0.0
 10
1805.000000
 20
560.000000
 30
0.0
 10
1816.000000
 20
560.000000
 30
0.0
 10
1816.000000
 20
624.500000
 30
0.0
 10
1816.000000
 20
689.000000
 30
0.0
 10
1805.000000
 20
689.000000
 30
0.0
 10
1794.000000
 20
689.000000
 30
0.0
 10
1794.000000
 20
624.500000
 30
0.0
  0
SPLINE
  5
22a
100
AcDbEntity
  8
0
 62
7
100
AcDbSpline
 70
8
 71
3
 72
8
 73
4
 74
0
 40
0
 40
0
 40
0
 40
0
 40
1
 40
1
 40
1
 40
1
 10
398.000000
 20
649.100000
 30
0.0
 10
391.600000
 20
647.100000
 30
0.0
 10
385.100000
 20
641.900000
 30
0.0
 10
382.200000
 20
636.500000
 30
0.0
  0
SPLINE
  5
22b
100
AcDbEntity
  8
0
 62
7
100
AcDbSpline
 70
8
 71
3
 72
8
 73
4
 74
0
 40
0
 40
0
 40
0
 40
0
 40
1
 40
1
 40
1
 40
1
 10
382.200000
 20
636.500000
 30
0.0
 10
381.300000
 20
634.900000
 30
0.0
 10
381.100000
 20
635.800000
 30
0.0
 10
381.000000
 20
641.300000
 30
0.0
  0
LWPOLYLINE
  5
22c
100
AcDbEntity
  8
0
 62
7
100
AcDbPolyline
 90
8
 70
0
 10
1884.300000
 20
663.000000
 30
0.0
 10
1892.500000
 20
663.000000
 30
0.0
 10
1905.500000
 20
676.000000
 30
0.0
 10
1918.500000
 20
689.000000
 30
0.0
 10
1905.800000
 20
689.000000
 30
0.0
 10
1893.100000
 20
689.000000
 30
0.0
 10
1884.500000
 20
676.600000
 30
0.0
 10
1884.500000
 20
676.600000
 30
0.0
  0
SPLINE
  5
22d
100
AcDbEntity
  8
0
 62
7
100
AcDbSpline
 70
8
 71
3
 72
8
 73
4
 74
0
 40
0
 40
0
 40
0
 40
0
 40
1
 40
1
 40
1
 40
1
 10
382.000000
 20
588.500000
 30
0.0
 10
382.500000
 20
616.600000
 30
0.0
 10
382.700000
 20
618.200000
 30
0.0
 10
386.200000
 20
623.300000
 30
0.0
  0
SPLINE
  5
22e
100
AcDbEntity
  8
0
 62
7
100
AcDbSpline
 70
8
 71
3
 72
8
 73
4
 74
0
 40
0
 40
0
 40
0
 40
0
 40
1
 40
1
 40
1
 40
1
 10
386.200000
 20
623.300000
 30
0.0
 10
390.600000
 20
629.600000
 30
0.0
 10
403.000000
 20
632.100000
 30
0.0
 10
409.600000
 20
628.100000
 30
0.0
  0
SPLINE
  5
22f
100
AcDbEntity
  8
0
 62
7
100
AcDbSpline
 70
8
 71
3
 72
8
 73
4
 74
0
 40
0
 40
0
 40
0
 40
0
 40
1
 40
1
 40
1
 40
1
 10
409.600000
 20
628.100000
 30
0.0
 10
416.000000
 20
624.200000
 30
0.0
 10
416.400000
 20
621.700000
 30
0.0
 10
417.000000
 20
589.500000
 30
0.0
  0
LWPOLYLINE
  5
230
100
AcDbEntity
  8
0
 62
7
100
AcDbPolyline
 90
9
 70
0
 10
381.000000
 20
641.300000
 30
0.0
 10
381.000000
 20
648.000000
 30
0.0
 10
370.500000
 20
648.000000
 30
0.0
 10
360.000000
 20
648.000000
 30
0.0
 10
360.000000
 20
604.000000
 30
0.0
 10
360.000000
 20
559.900000
 30
0.0
 10
370.800000
 20
560.200000
 30
0.0
 10
381.500000
 20
560.500000
 30
0.0
 10
382.000000
 20
588.500000
 30
0.0
  0
SPLINE
  5
231
100
AcDbEntity
  8
0
 62
7
100
AcDbSpline
 70
8
 71
3
 72
8
 73
4
 74
0
 40
0
 40
0
 40
0
 40
0
 40
1
 40
1
 40
1
 40
1
 10
439.500000
 20
592.000000
 30
0.0
 10
439.500000
 20
619.200000
 30
0.0
 10
439.300000
 20
624.300000
 30
0.0
 10
437.700000
 20
629.200000
 30
0.0
  0
SPLINE
  5
232
100
AcDbEntity
  8
0
 62
7
100
AcDbSpline
 70
8
 71
3
 72
8
 73
4
 74
0
 40
0
 40
0
 40
0
 40
0
 40
1
 40
1
 40
1
 40
1
 10
437.700000
 20
629.200000
 30
0.0
 10
435.300000
 20
637.200000
 30
0.0
 10
430.600000
 20
642.900000
 30
0.0
 10
423.500000
 20
646.500000
 30
0.0
  0
SPLINE
  5
233
100
AcDbEntity
  8
0
 62
7
100
AcDbSpline
 70
8
 71
3
 72
8
 73
4
 74
0
 40
0
 40
0
 40
0
 40
0
 40
1
 40
1
 40
1
 40
1
 10
423.500000
 20
646.500000
 30
0.0
 10
418.500000
 20
649.100000
 30
0.0
 10
416.400000
 20
649.500000
 30
0.0
 10
409.100000
 20
649.700000
 30
0.0
  0
SPLINE
  5
234
100
AcDbEntity
  8
0
 62
7
100
AcDbSpline
 70
8
 71
3
 72
8
 73
4
 74
0
 40
0
 40
0
 40
0
 40
0
 40
1
 40
1
 40
1
 40
1
 10
409.100000
 20
649.700000
 30
0.0
 10
404.400000
 20
649.800000
 30
0.0
 10
399.400000
 20
649.600000
 30
0.0
 10
398.000000
 20
649.100000
 30
0.0
  0
LWPOLYLINE
  5
235
100
AcDbEntity
  8
0
 62
7
100
AcDbPolyline
 90
5
 70
0
 10
417.000000
 20
589.500000
 30
0.0
 10
417.500000
 20
560.500000
 30
0.0
 10
428.500000
 20
560.500000
 30
0.0
 10
439.500000
 20
560.500000
 30
0.0
 10
439.500000
 20
592.000000
 30
0.0
  0
SPLINE
  5
236
100
AcDbEntity
  8
0
 62
7
100
AcDbSpline
 70
8
 71
3
 72
8
 73
4
 74
0
 40
0
 40
0
 40
0
 40
0
 40
1
 40
1
 40
1
 40
1
 10
635.000000
 20
648.400000
 30
0.0
 10
626.700000
 20
646.200000
 30
0.0
 10
621.400000
 20
643.300000
 30
0.0
 10
615.100000
 20
637.500000
 30
0.0
  0
SPLINE
  5
237
100
AcDbEntity
  8
0
 62
7
100
AcDbSpline
 70
8
 71
3
 72
8
 73
4
 74
0
 40
0
 40
0
 40
0
 40
0
 40
1
 40
1
 40
1
 40
1
 10
615.100000
 20
637.500000
 30
0.0
 10
592.100000
 20
616.100000
 30
0.0
 10
598.000000
 20
576.800000
 30
0.0
 10
626.300000
 20
563.500000
 30
0.0
  0
SPLINE
  5
238
100
AcDbEntity
  8
0
 62
7
100
AcDbSpline
 70
8
 71
3
 72
8
 73
4
 74
0
 40
0
 40
0
 40
0
 40
0
 40
1
 40
1
 40
1
 40
1
 10
626.300000
 20
563.500000
 30
0.0
 10
643.300000
 20
555.500000
 30
0.0
 10
662.700000
 20
557.000000
 30
0.0
 10
676.900000
 20
567.500000
 30
0.0
  0
SPLINE
  5
239
100
AcDbEntity
  8
0
 62
7
100
AcDbSpline
 70
8
 71
3
 72
8
 73
4
 74
0
 40
0
 40
0
 40
0
 40
0
 40
1
 40
1
 40
1
 40
1
 10
676.900000
 20
567.500000
 30
0.0
 10
682.400000
 20
571.600000
 30
0.0
 10
685.800000
 20
575.500000
 30
0.0
 10
684.700000
 20
576.600000
 30
0.0
  0
SPLINE
  5
23a
100
AcDbEntity
  8
0
 62
7
100
AcDbSpline
 70
8
 71
3
 72
8
 73
4
 74
0
 40
0
 40
0
 40
0
 40
0
 40
1
 40
1
 40
1
 40
1
 10
684.700000
 20
576.600000
 30
0.0
 10
684.500000
 20
576.900000
 30
0.0
 10
681.000000
 20
579.500000
 30
0.0
 10
677.000000
 20
582.500000
 30
0.0
  0
LWPOLYLINE
  5
23b
100
AcDbEntity
  8
0
 62
7
100
AcDbPolyline
 90
1
 70
1
 10
398.000000
 20
649.100000
 30
0.0
  0
SPLINE
  5
23c
100
AcDbEntity
  8
0
 62
7
100
AcDbSpline
 70
8
 71
3
 72
8
 73
4
 74
0
 40
0
 40
0
 40
0
 40
0
 40
1
 40
1
 40
1
 40
1
 10
666.100000
 20
584.300000
 30
0.0
 10
659.000000
 20
577.300000
 30
0.0
 10
649.600000
 20
574.700000
 30
0.0
 10
640.100000
 20
577.000000
 30
0.0
  0
SPLINE
  5
23d
100
AcDbEntity
  8
0
 62
7
100
AcDbSpline
 70
8
 71
3
 72
8
 73
4
 74
0
 40
0
 40
0
 40
0
 40
0
 40
1
 40
1
 40
1
 40
1
 10
640.100000
 20
577.000000
 30
0.0
 10
633.300000
 20
578.600000
 30
0.0
 10
626.700000
 20
584.400000
 30
0.0
 10
624.600000
 20
590.700000
 30
0.0
  0
SPLINE
  5
23e
100
AcDbEntity
  8
0
 62
7
100
AcDbSpline
 70
8
 71
3
 72
8
 73
4
 74
0
 40
0
 40
0
 40
0
 40
0
 40
1
 40
1
 40
1
 40
1
 10
624.600000
 20
590.700000
 30
0.0
 10
623.700000
 20
593.300000
 30
0.0
 10
623.000000
 20
595.500000
 30
0.0
 10
623.000000
 20
595.700000
 30
0.0
  0
SPLINE
  5
23f
100
AcDbEntity
  8
0
 62
7
100
AcDbSpline
 70
8
 71
3
 72
8
 73
4
 74
0
 40
0
 40
0
 40
0
 40
0
 40
1
 40
1
 40
1
 40
1
 10
623.000000
 20
595.700000
 30
0.0
 10
623.000000
 20
595.800000
 30
0.0
 10
638.000000
 20
596.100000
 30
0.0
 10
656.300000
 20
596.200000
 30
0.0
  0
LWPOLYLINE
  5
240
100
AcDbEntity
  8
0
 62
7
100
AcDbPolyline
 90
3
 70
0
 10
677.000000
 20
582.500000
 30
0.0
 10
669.800000
 20
587.900000
 30
0.0
 10
666.100000
 20
584.300000
 30
0.0
  0
SPLINE
  5
241
100
AcDbEntity
  8
0
 62
7
100
AcDbSpline
 70
8
 71
3
 72
8
 73
4
 74
0
 40
0
 40
0
 40
0
 40
0
 40
1
 40
1
 40
1
 40
1
 10
689.300000
 20
605.400000
 30
0.0
 10
688.600000
 20
633.100000
 30
0.0
 10
672.900000
 20
650.100000
 30
0.0
 10
648.300000
 20
649.900000
 30
0.0
  0
SPLINE
  5
242
100
AcDbEntity
  8
0
 62
7
100
AcDbSpline
 70
8
 71
3
 72
8
 73
4
 74
0
 40
0
 40
0
 40
0
 40
0
 40
1
 40
1
 40
1
 40
1
 10
648.300000
 20
649.900000
 30
0.0
 10
644.000000
 20
649.900000
 30
0.0
 10
638.000000
 20
649.200000
 30
0.0
 10
635.000000
 20
648.400000
 30
0.0
  0
LWPOLYLINE
  5
243
100
AcDbEntity
  8
0
 62
7
100
AcDbPolyline
 90
3
 70
0
 10
656.300000
 20
596.200000
 30
0.0
 10
689.500000
 20
596.500000
 30
0.0
 10
689.300000
 20
605.400000
 30
0.0
  0
SPLINE
  5
244
100
AcDbEntity
  8
0
 62
7
100
AcDbSpline
 70
8
 71
3
 72
8
 73
4
 74
0
 40
0
 40
0
 40
0
 40
0
 40
1
 40
1
 40
1
 40
1
 10
655.700000
 20
631.500000
 30
0.0
 10
657.800000
 20
630.600000
 30
0.0
 10
660.300000
 20
629.200000
 30
0.0
 10
661.300000
 20
628.200000
 30
0.0
  0
SPLINE
  5
245
100
AcDbEntity
  8
0
 62
7
100
AcDbSpline
 70
8
 71
3
 72
8
 73
4
 74
0
 40
0
 40
0
 40
0
 40
0
 40
1
 40
1
 40
1
 40
1
 10
661.300000
 20
628.200000
 30
0.0
 10
664.100000
 20
625.700000
 30
0.0
 10
667.000000
 20
619.500000
 30
0.0
 10
667.000000
 20
616.000000
 30
0.0
  0
LWPOLYLINE
  5
246
100
AcDbEntity
  8
0
 62
7
100
AcDbPolyline
 90
1
 70
1
 10
635.000000
 20
648.400000
 30
0.0
  0
SPLINE
  5
247
100
AcDbEntity
  8
0
 62
7
100
AcDbSpline
 70
8
 71
3
 72
8
 73
4
 74
0
 40
0
 40
0
 40
0
 40
0
 40
1
 40
1
 40
1
 40
1
 10
623.600000
 20
615.800000
 30
0.0
 10
625.300000
 20
622.700000
 30
0.0
 10
630.700000
 20
629.800000
 30
0.0
 10
636.000000
 20
631.900000
 30
0.0
  0
SPLINE
  5
248
100
AcDbEntity
  8
0
 62
7
100
AcDbSpline
 70
8
 71
3
 72
8
 73
4
 74
0
 40
0
 40
0
 40
0
 40
0
 40
1
 40
1
 40
1
 40
1
 10
636.000000
 20
631.900000
 30
0.0
 10
639.900000
 20
633.400000
 30
0.0
 10
651.600000
 20
633.200000
 30
0.0
 10
655.700000
 20
631.500000
 30
0.0
  0
LWPOLYLINE
  5
249
100
AcDbEntity
  8
0
 62
7
100
AcDbPolyline
 90
5
 70
0
 10
667.000000
 20
616.000000
 30
0.0
 10
667.000000
 20
613.000000
 30
0.0
 10
645.000000
 20
613.000000
 30
0.0
 10
623.000000
 20
613.000000
 30
0.0
 10
623.600000
 20
615.800000
 30
0.0
  0
SPLINE
  5
24a
100
AcDbEntity
  8
0
 62
7
100
AcDbSpline
 70
8
 71
3
 72
8
 73
4
 74
0
 40
0
 40
0
 40
0
 40
0
 40
1
 40
1
 40
1
 40
1
 10
749.000000
 20
649.100000
 30
0.0
 10
744.000000
 20
647.500000
 30
0.0
 10
740.100000
 20
645.000000
 30
0.0
 10
736.100000
 20
640.400000
 30
0.0
  0
LWPOLYLINE
  5
24b
100
AcDbEntity
  8
0
 62
7
100
AcDbPolyline
 90
1
 70
1
 10
655.700000
 20
631.500000
 30
0.0
  0
SPLINE
  5
24c
100
AcDbEntity
  8
0
 62
7
100
AcDbSpline
 70
8
 71
3
 72
8
 73
4
 74
0
 40
0
 40
0
 40
0
 40
0
 40
1
 40
1
 40
1
 40
1
 10
735.300000
 20
618.800000
 30
0.0
 10
736.800000
 20
621.100000
 30
0.0
 10
739.900000
 20
624.200000
 30
0.0
 10
742.200000
 20
625.700000
 30
0.0
  0
SPLINE
  5
24d
100
AcDbEntity
  8
0
 62
7
100
AcDbSpline
 70
8
 71
3
 72
8
 73
4
 74
0
 40
0
 40
0
 40
0
 40
0
 40
1
 40
1
 40
1
 40
1
 10
742.200000
 20
625.700000
 30
0.0
 10
746.100000
 20
628.300000
 30
0.0
 10
747.100000
 20
628.500000
 30
0.0
 10
756.200000
 20
628.400000
 30
0.0
  0
LWPOLYLINE
  5
24e
100
AcDbEntity
  8
0
 62
7
100
AcDbPolyline
 90
13
 70
0
 10
736.100000
 20
640.400000
 30
0.0
 10
732.000000
 20
635.700000
 30
0.0
 10
732.000000
 20
641.900000
 30
0.0
 10
732.000000
 20
648.000000
 30
0.0
 10
721.000000
 20
648.000000
 30
0.0
 10
710.000000
 20
648.000000
 30
0.0
 10
710.000000
 20
604.000000
 30
0.0
 10
710.000000
 20
559.900000
 30
0.0
 10
720.800000
 20
560.200000
 30
0.0
 10
731.500000
 20
560.500000
 30
0.0
 10
732.000000
 20
587.600000
 30
0.0
 10
732.500000
 20
614.700000
 30
0.0
 10
735.300000
 20
618.800000
 30
0.0
  0
SPLINE
  5
24f
100
AcDbEntity
  8
0
 62
7
100
AcDbSpline
 70
8
 71
3
 72
8
 73
4
 74
0
 40
0
 40
0
 40
0
 40
0
 40
1
 40
1
 40
1
 40
1
 10
766.000000
 20
638.600000
 30
0.0
 10
766.000000
 20
648.300000
 30
0.0
 10
765.900000
 20
648.800000
 30
0.0
 10
763.800000
 20
649.400000
 30
0.0
  0
SPLINE
  5
250
100
AcDbEntity
  8
0
 62
7
100
AcDbSpline
 70
8
 71
3
 72
8
 73
4
 74
0
 40
0
 40
0
 40
0
 40
0
 40
1
 40
1
 40
1
 40
1
 10
763.800000
 20
649.400000
 30
0.0
 10
760.700000
 20
650.200000
 30
0.0
 10
752.100000
 20
650.000000
 30
0.0
 10
749.000000
 20
649.100000
 30
0.0
  0
LWPOLYLINE
  5
251
100
AcDbEntity
  8
0
 62
7
100
AcDbPolyline
 90
3
 70
0
 10
756.200000
 20
628.400000
 30
0.0
 10
766.000000
 20
628.400000
 30
0.0
 10
766.000000
 20
638.600000
 30
0.0
  0
SPLINE
  5
252
100
AcDbEntity
  8
0
 62
7
100
AcDbSpline
 70
8
 71
3
 72
8
 73
4
 74
0
 40
0
 40
0
 40
0
 40
0
 40
1
 40
1
 40
1
 40
1
 10
797.200000
 20
648.400000
 30
0.0
 10
790.500000
 20
646.600000
 30
0.0
 10
788.800000
 20
645.700000
 30
0.0
 10
783.800000
 20
641.200000
 30
0.0
  0
SPLINE
  5
253
100
AcDbEntity
  8
0
 62
7
100
AcDbSpline
 70
8
 71
3
 72
8
 73
4
 74
0
 40
0
 40
0
 40
0
 40
0
 40
1
 40
1
 40
1
 40
1
 10
783.800000
 20
641.200000
 30
0.0
 10
776.500000
 20
634.600000
 30
0.0
 10
773.500000
 20
624.900000
 30
0.0
 10
775.900000
 20
615.400000
 30
0.0
  0
SPLINE
  5
254
100
AcDbEntity
  8
0
 62
7
100
AcDbSpline
 70
8
 71
3
 72
8
 73
4
 74
0
 40
0
 40
0
 40
0
 40
0
 40
1
 40
1
 40
1
 40
1
 10
775.900000
 20
615.400000
 30
0.0
 10
778.500000
 20
605.200000
 30
0.0
 10
784.900000
 20
600.800000
 30
0.0
 10
803.400000
 20
596.500000
 30
0.0
  0
SPLINE
  5
255
100
AcDbEntity
  8
0
 62
7
100
AcDbSpline
 70
8
 71
3
 72
8
 73
4
 74
0
 40
0
 40
0
 40
0
 40
0
 40
1
 40
1
 40
1
 40
1
 10
803.400000
 20
596.500000
 30
0.0
 10
809.600000
 20
595.100000
 30
0.0
 10
816.100000
 20
593.000000
 30
0.0
 10
817.800000
 20
592.000000
 30
0.0
  0
SPLINE
  5
256
100
AcDbEntity
  8
0
 62
7
100
AcDbSpline
 70
8
 71
3
 72
8
 73
4
 74
0
 40
0
 40
0
 40
0
 40
0
 40
1
 40
1
 40
1
 40
1
 10
817.800000
 20
592.000000
 30
0.0
 10
823.300000
 20
588.600000
 30
0.0
 10
823.200000
 20
581.700000
 30
0.0
 10
817.700000
 20
577.600000
 30
0.0
  0
SPLINE
  5
257
100
AcDbEntity
  8
0
 62
7
100
AcDbSpline
 70
8
 71
3
 72
8
 73
4
 74
0
 40
0
 40
0
 40
0
 40
0
 40
1
 40
1
 40
1
 40
1
 10
817.700000
 20
577.600000
 30
0.0
 10
815.300000
 20
575.900000
 30
0.0
 10
813.400000
 20
575.500000
 30
0.0
 10
806.700000
 20
575.500000
 30
0.0
  0
SPLINE
  5
258
100
AcDbEntity
  8
0
 62
7
100
AcDbSpline
 70
8
 71
3
 72
8
 73
4
 74
0
 40
0
 40
0
 40
0
 40
0
 40
1
 40
1
 40
1
 40
1
 10
806.700000
 20
575.500000
 30
0.0
 10
799.300000
 20
575.500000
 30
0.0
 10
797.700000
 20
575.900000
 30
0.0
 10
790.600000
 20
579.300000
 30
0.0
  0
SPLINE
  5
259
100
AcDbEntity
  8
0
 62
7
100
AcDbSpline
 70
8
 71
3
 72
8
 73
4
 74
0
 40
0
 40
0
 40
0
 40
0
 40
1
 40
1
 40
1
 40
1
 10
790.600000
 20
579.300000
 30
0.0
 10
786.300000
 20
581.400000
 30
0.0
 10
782.600000
 20
582.900000
 30
0.0
 10
782.500000
 20
582.800000
 30
0.0
  0
SPLINE
  5
25a
100
AcDbEntity
  8
0
 62
7
100
AcDbSpline
 70
8
 71
3
 72
8
 73
4
 74
0
 40
0
 40
0
 40
0
 40
0
 40
1
 40
1
 40
1
 40
1
 10
782.500000
 20
582.800000
 30
0.0
 10
780.900000
 20
580.800000
 30
0.0
 10
774.000000
 20
569.000000
 30
0.0
 10
774.000000
 20
568.300000
 30
0.0
  0
SPLINE
  5
25b
100
AcDbEntity
  8
0
 62
7
100
AcDbSpline
 70
8
 71
3
 72
8
 73
4
 74
0
 40
0
 40
0
 40
0
 40
0
 40
1
 40
1
 40
1
 40
1
 10
774.000000
 20
568.300000
 30
0.0
 10
774.000000
 20
567.000000
 30
0.0
 10
785.100000
 20
561.500000
 30
0.0
 10
790.500000
 20
560.100000
 30
0.0
  0
SPLINE
  5
25c
100
AcDbEntity
  8
0
 62
7
100
AcDbSpline
 70
8
 71
3
 72
8
 73
4
 74
0
 40
0
 40
0
 40
0
 40
0
 40
1
 40
1
 40
1
 40
1
 10
790.500000
 20
560.100000
 30
0.0
 10
807.200000
 20
555.800000
 30
0.0
 10
827.400000
 20
559.400000
 30
0.0
 10
836.900000
 20
568.300000
 30
0.0
  0
SPLINE
  5
25d
100
AcDbEntity
  8
0
 62
7
100
AcDbSpline
 70
8
 71
3
 72
8
 73
4
 74
0
 40
0
 40
0
 40
0
 40
0
 40
1
 40
1
 40
1
 40
1
 10
836.900000
 20
568.300000
 30
0.0
 10
841.900000
 20
573.000000
 30
0.0
 10
844.000000
 20
578.300000
 30
0.0
 10
844.000000
 20
586.300000
 30
0.0
  0
SPLINE
  5
25e
100
AcDbEntity
  8
0
 62
7
100
AcDbSpline
 70
8
 71
3
 72
8
 73
4
 74
0
 40
0
 40
0
 40
0
 40
0
 40
1
 40
1
 40
1
 40
1
 10
844.000000
 20
586.300000
 30
0.0
 10
844.000000
 20
601.700000
 30
0.0
 10
837.200000
 20
608.000000
 30
0.0
 10
814.700000
 20
613.400000
 30
0.0
  0
SPLINE
  5
25f
100
AcDbEntity
  8
0
 62
7
100
AcDbSpline
 70
8
 71
3
 72
8
 73
4
 74
0
 40
0
 40
0
 40
0
 40
0
 40
1
 40
1
 40
1
 40
1
 10
814.700000
 20
613.400000
 30
0.0
 10
798.500000
 20
617.300000
 30
0.0
 10
795.400000
 20
619.600000
 30
0.0
 10
797.900000
 20
626.200000
 30
0.0
  0
SPLINE
  5
260
100
AcDbEntity
  8
0
 62
7
100
AcDbSpline
 70
8
 71
3
 72
8
 73
4
 74
0
 40
0
 40
0
 40
0
 40
0
 40
1
 40
1
 40
1
 40
1
 10
797.900000
 20
626.200000
 30
0.0
 10
800.200000
 20
632.400000
 30
0.0
 10
811.300000
 20
633.800000
 30
0.0
 10
823.500000
 20
629.500000
 30
0.0
  0
SPLINE
  5
261
100
AcDbEntity
  8
0
 62
7
100
AcDbSpline
 70
8
 71
3
 72
8
 73
4
 74
0
 40
0
 40
0
 40
0
 40
0
 40
1
 40
1
 40
1
 40
1
 10
823.500000
 20
629.500000
 30
0.0
 10
827.400000
 20
628.100000
 30
0.0
 10
830.900000
 20
626.900000
 30
0.0
 10
831.400000
 20
626.800000
 30
0.0
  0
SPLINE
  5
262
100
AcDbEntity
  8
0
 62
7
100
AcDbSpline
 70
8
 71
3
 72
8
 73
4
 74
0
 40
0
 40
0
 40
0
 40
0
 40
1
 40
1
 40
1
 40
1
 10
831.400000
 20
626.800000
 30
0.0
 10
832.500000
 20
626.400000
 30
0.0
 10
840.900000
 20
640.200000
 30
0.0
 10
840.300000
 20
641.300000
 30
0.0
  0
SPLINE
  5
263
100
AcDbEntity
  8
0
 62
7
100
AcDbSpline
 70
8
 71
3
 72
8
 73
4
 74
0
 40
0
 40
0
 40
0
 40
0
 40
1
 40
1
 40
1
 40
1
 10
840.300000
 20
641.300000
 30
0.0
 10
839.400000
 20
642.900000
 30
0.0
 10
829.800000
 20
647.100000
 30
0.0
 10
823.800000
 20
648.500000
 30
0.0
  0
SPLINE
  5
264
100
AcDbEntity
  8
0
 62
7
100
AcDbSpline
 70
8
 71
3
 72
8
 73
4
 74
0
 40
0
 40
0
 40
0
 40
0
 40
1
 40
1
 40
1
 40
1
 10
823.800000
 20
648.500000
 30
0.0
 10
815.900000
 20
650.300000
 30
0.0
 10
804.200000
 20
650.300000
 30
0.0
 10
797.200000
 20
648.400000
 30
0.0
  0
LWPOLYLINE
  5
265
100
AcDbEntity
  8
0
 62
7
100
AcDbPolyline
 90
1
 70
1
 10
749.000000
 20
649.100000
 30
0.0
  0
SPLINE
  5
266
100
AcDbEntity
  8
0
 62
7
100
AcDbSpline
 70
8
 71
3
 72
8
 73
4
 74
0
 40
0
 40
0
 40
0
 40
0
 40
1
 40
1
 40
1
 40
1
 10
1046.800000
 20
648.100000
 30
0.0
 10
1039.300000
 20
645.700000
 30
0.0
 10
1035.200000
 20
643.000000
 30
0.0
 10
1029.800000
 20
637.200000
 30
0.0
  0
SPLINE
  5
267
100
AcDbEntity
  8
0
 62
7
100
AcDbSpline
 70
8
 71
3
 72
8
 73
4
 74
0
 40
0
 40
0
 40
0
 40
0
 40
1
 40
1
 40
1
 40
1
 10
1029.800000
 20
637.200000
 30
0.0
 10
1009.900000
 20
615.900000
 30
0.0
 10
1014.800000
 20
576.800000
 30
0.0
 10
1039.000000
 20
563.600000
 30
0.0
  0
SPLINE
  5
268
100
AcDbEntity
  8
0
 62
7
100
AcDbSpline
 70
8
 71
3
 72
8
 73
4
 74
0
 40
0
 40
0
 40
0
 40
0
 40
1
 40
1
 40
1
 40
1
 10
1039.000000
 20
563.600000
 30
0.0
 10
1054.500000
 20
555.200000
 30
0.0
 10
1075.200000
 20
557.100000
 30
0.0
 10
1086.200000
 20
568.100000
 30
0.0
  0
LWPOLYLINE
  5
269
100
AcDbEntity
  8
0
 62
7
100
AcDbPolyline
 90
1
 70
1
 10
797.200000
 20
648.400000
 30
0.0
  0
SPLINE
  5
26a
100
AcDbEntity
  8
0
 62
7
100
AcDbSpline
 70
8
 71
3
 72
8
 73
4
 74
0
 40
0
 40
0
 40
0
 40
0
 40
1
 40
1
 40
1
 40
1
 10
1085.900000
 20
640.500000
 30
0.0
 10
1079.000000
 20
646.700000
 30
0.0
 10
1071.900000
 20
649.400000
 30
0.0
 10
1061.500000
 20
649.700000
 30
0.0
  0
SPLINE
  5
26b
100
AcDbEntity
  8
0
 62
7
100
AcDbSpline
 70
8
 71
3
 72
8
 73
4
 74
0
 40
0
 40
0
 40
0
 40
0
 40
1
 40
1
 40
1
 40
1
 10
1061.500000
 20
649.700000
 30
0.0
 10
1054.800000
 20
649.900000
 30
0.0
 10
1051.100000
 20
649.500000
 30
0.0
 10
1046.800000
 20
648.100000
 30
0.0
  0
LWPOLYLINE
  5
26c
100
AcDbEntity
  8
0
 62
7
100
AcDbPolyline
 90
13
 70
0
 10
1086.200000
 20
568.100000
 30
0.0
 10
1091.000000
 20
572.900000
 30
0.0
 10
1091.000000
 20
566.400000
 30
0.0
 10
1091.000000
 20
559.900000
 30
0.0
 10
1101.300000
 20
560.200000
 30
0.0
 10
1111.500000
 20
560.500000
 30
0.0
 10
1111.800000
 20
605.300000
 30
0.0
 10
1112.000000
 20
650.000000
 30
0.0
 10
1101.000000
 20
650.000000
 30
0.0
 10
1090.000000
 20
650.000000
 30
0.0
 10
1090.000000
 20
643.400000
 30
0.0
 10
1090.000000
 20
636.800000
 30
0.0
 10
1085.900000
 20
640.500000
 30
0.0
  0
SPLINE
  5
26d
100
AcDbEntity
  8
0
 62
7
100
AcDbSpline
 70
8
 71
3
 72
8
 73
4
 74
0
 40
0
 40
0
 40
0
 40
0
 40
1
 40
1
 40
1
 40
1
 10
1073.400000
 20
628.900000
 30
0.0
 10
1079.100000
 20
627.300000
 30
0.0
 10
1087.200000
 20
618.800000
 30
0.0
 10
1088.900000
 20
612.800000
 30
0.0
  0
SPLINE
  5
26e
100
AcDbEntity
  8
0
 62
7
100
AcDbSpline
 70
8
 71
3
 72
8
 73
4
 74
0
 40
0
 40
0
 40
0
 40
0
 40
1
 40
1
 40
1
 40
1
 10
1088.900000
 20
612.800000
 30
0.0
 10
1094.600000
 20
592.600000
 30
0.0
 10
1079.100000
 20
574.900000
 30
0.0
 10
1059.500000
 20
579.000000
 30
0.0
  0
SPLINE
  5
26f
100
AcDbEntity
  8
0
 62
7
100
AcDbSpline
 70
8
 71
3
 72
8
 73
4
 74
0
 40
0
 40
0
 40
0
 40
0
 40
1
 40
1
 40
1
 40
1
 10
1059.500000
 20
579.000000
 30
0.0
 10
1047.600000
 20
581.500000
 30
0.0
 10
1040.000000
 20
591.400000
 30
0.0
 10
1040.000000
 20
604.400000
 30
0.0
  0
SPLINE
  5
270
100
AcDbEntity
  8
0
 62
7
100
AcDbSpline
 70
8
 71
3
 72
8
 73
4
 74
0
 40
0
 40
0
 40
0
 40
0
 40
1
 40
1
 40
1
 40
1
 10
1040.000000
 20
604.400000
 30
0.0
 10
1040.000000
 20
612.700000
 30
0.0
 10
1042.000000
 20
617.900000
 30
0.0
 10
1047.100000
 20
622.900000
 30
0.0
  0
SPLINE
  5
271
100
AcDbEntity
  8
0
 62
7
100
AcDbSpline
 70
8
 71
3
 72
8
 73
4
 74
0
 40
0
 40
0
 40
0
 40
0
 40
1
 40
1
 40
1
 40
1
 10
1047.100000
 20
622.900000
 30
0.0
 10
1053.600000
 20
629.400000
 30
0.0
 10
1063.500000
 20
631.700000
 30
0.0
 10
1073.400000
 20
628.900000
 30
0.0
  0
LWPOLYLINE
  5
272
100
AcDbEntity
  8
0
 62
7
100
AcDbPolyline
 90
1
 70
1
 10
1046.800000
 20
648.100000
 30
0.0
  0
SPLINE
  5
273
100
AcDbEntity
  8
0
 62
7
100
AcDbSpline
 70
8
 71
3
 72
8
 73
4
 74
0
 40
0
 40
0
 40
0
 40
0
 40
1
 40
1
 40
1
 40
1
 10
1416.100000
 20
648.500000
 30
0.0
 10
1393.200000
 20
642.100000
 30
0.0
 10
1379.700000
 20
621.300000
 30
0.0
 10
1383.100000
 20
597.500000
 30
0.0
  0
SPLINE
  5
274
100
AcDbEntity
  8
0
 62
7
100
AcDbSpline
 70
8
 71
3
 72
8
 73
4
 74
0
 40
0
 40
0
 40
0
 40
0
 40
1
 40
1
 40
1
 40
1
 10
1383.100000
 20
597.500000
 30
0.0
 10
1385.800000
 20
578.100000
 30
0.0
 10
1399.600000
 20
563.700000
 30
0.0
 10
1419.500000
 20
559.500000
 30
0.0
  0
SPLINE
  5
275
100
AcDbEntity
  8
0
 62
7
100
AcDbSpline
 70
8
 71
3
 72
8
 73
4
 74
0
 40
0
 40
0
 40
0
 40
0
 40
1
 40
1
 40
1
 40
1
 10
1419.500000
 20
559.500000
 30
0.0
 10
1428.200000
 20
557.700000
 30
0.0
 10
1431.700000
 20
557.700000
 30
0.0
 10
1440.100000
 20
559.400000
 30
0.0
  0
SPLINE
  5
276
100
AcDbEntity
  8
0
 62
7
100
AcDbSpline
 70
8
 71
3
 72
8
 73
4
 74
0
 40
0
 40
0
 40
0
 40
0
 40
1
 40
1
 40
1
 40
1
 10
1440.100000
 20
559.400000
 30
0.0
 10
1449.300000
 20
561.400000
 30
0.0
 10
1455.400000
 20
564.500000
 30
0.0
 10
1461.900000
 20
570.600000
 30
0.0
  0
SPLINE
  5
277
100
AcDbEntity
  8
0
 62
7
100
AcDbSpline
 70
8
 71
3
 72
8
 73
4
 74
0
 40
0
 40
0
 40
0
 40
0
 40
1
 40
1
 40
1
 40
1
 10
1461.900000
 20
570.600000
 30
0.0
 10
1467.300000
 20
575.700000
 30
0.0
 10
1467.400000
 20
575.900000
 30
0.0
 10
1465.500000
 20
577.400000
 30
0.0
  0
SPLINE
  5
278
100
AcDbEntity
  8
0
 62
7
100
AcDbSpline
 70
8
 71
3
 72
8
 73
4
 74
0
 40
0
 40
0
 40
0
 40
0
 40
1
 40
1
 40
1
 40
1
 10
1465.500000
 20
577.400000
 30
0.0
 10
1464.400000
 20
578.200000
 30
0.0
 10
1460.800000
 20
580.800000
 30
0.0
 10
1457.500000
 20
583.300000
 30
0.0
  0
LWPOLYLINE
  5
279
100
AcDbEntity
  8
0
 62
7
100
AcDbPolyline
 90
1
 70
1
 10
1073.400000
 20
628.900000
 30
0.0
  0
SPLINE
  5
27a
100
AcDbEntity
  8
0
 62
7
100
AcDbSpline
 70
8
 71
3
 72
8
 73
4
 74
0
 40
0
 40
0
 40
0
 40
0
 40
1
 40
1
 40
1
 40
1
 10
1446.700000
 20
583.400000
 30
0.0
 10
1432.400000
 20
570.600000
 30
0.0
 10
1408.800000
 20
576.000000
 30
0.0
 10
1405.400000
 20
592.800000
 30
0.0
  0
LWPOLYLINE
  5
27b
100
AcDbEntity
  8
0
 62
7
100
AcDbPolyline
 90
3
 70
0
 10
1457.500000
 20
583.300000
 30
0.0
 10
1451.600000
 20
587.800000
 30
0.0
 10
1446.700000
 20
583.400000
 30
0.0
  0
SPLINE
  5
27c
100
AcDbEntity
  8
0
 62
7
100
AcDbSpline
 70
8
 71
3
 72
8
 73
4
 74
0
 40
0
 40
0
 40
0
 40
0
 40
1
 40
1
 40
1
 40
1
 10
1471.000000
 20
603.800000
 30
0.0
 10
1470.900000
 20
624.100000
 30
0.0
 10
1462.200000
 20
639.900000
 30
0.0
 10
1447.200000
 20
646.800000
 30
0.0
  0
SPLINE
  5
27d
100
AcDbEntity
  8
0
 62
7
100
AcDbSpline
 70
8
 71
3
 72
8
 73
4
 74
0
 40
0
 40
0
 40
0
 40
0
 40
1
 40
1
 40
1
 40
1
 10
1447.200000
 20
646.800000
 30
0.0
 10
1440.100000
 20
650.000000
 30
0.0
 10
1424.700000
 20
650.900000
 30
0.0
 10
1416.100000
 20
648.500000
 30
0.0
  0
LWPOLYLINE
  5
27e
100
AcDbEntity
  8
0
 62
7
100
AcDbPolyline
 90
5
 70
0
 10
1405.400000
 20
592.800000
 30
0.0
 10
1404.800000
 20
596.000000
 30
0.0
 10
1437.900000
 20
596.000000
 30
0.0
 10
1471.000000
 20
596.000000
 30
0.0
 10
1471.000000
 20
603.800000
 30
0.0
  0
SPLINE
  5
27f
100
AcDbEntity
  8
0
 62
7
100
AcDbSpline
 70
8
 71
3
 72
8
 73
4
 74
0
 40
0
 40
0
 40
0
 40
0
 40
1
 40
1
 40
1
 40
1
 10
1440.300000
 20
630.000000
 30
0.0
 10
1444.400000
 20
627.200000
 30
0.0
 10
1447.500000
 20
622.200000
 30
0.0
 10
1448.500000
 20
616.800000
 30
0.0
  0
LWPOLYLINE
  5
280
100
AcDbEntity
  8
0
 62
7
100
AcDbPolyline
 90
1
 70
1
 10
1416.100000
 20
648.500000
 30
0.0
  0
SPLINE
  5
281
100
AcDbEntity
  8
0
 62
7
100
AcDbSpline
 70
8
 71
3
 72
8
 73
4
 74
0
 40
0
 40
0
 40
0
 40
0
 40
1
 40
1
 40
1
 40
1
 10
1427.100000
 20
613.000000
 30
0.0
 10
1402.000000
 20
613.000000
 30
0.0
 10
1403.100000
 20
612.500000
 30
0.0
 10
1407.400000
 20
621.500000
 30
0.0
  0
SPLINE
  5
282
100
AcDbEntity
  8
0
 62
7
100
AcDbSpline
 70
8
 71
3
 72
8
 73
4
 74
0
 40
0
 40
0
 40
0
 40
0
 40
1
 40
1
 40
1
 40
1
 10
1407.400000
 20
621.500000
 30
0.0
 10
1411.600000
 20
630.600000
 30
0.0
 10
1416.300000
 20
633.100000
 30
0.0
 10
1428.100000
 20
632.800000
 30
0.0
  0
SPLINE
  5
283
100
AcDbEntity
  8
0
 62
7
100
AcDbSpline
 70
8
 71
3
 72
8
 73
4
 74
0
 40
0
 40
0
 40
0
 40
0
 40
1
 40
1
 40
1
 40
1
 10
1428.100000
 20
632.800000
 30
0.0
 10
1435.300000
 20
632.500000
 30
0.0
 10
1437.200000
 20
632.100000
 30
0.0
 10
1440.300000
 20
630.000000
 30
0.0
  0
LWPOLYLINE
  5
284
100
AcDbEntity
  8
0
 62
7
100
AcDbPolyline
 90
3
 70
0
 10
1448.500000
 20
616.800000
 30
0.0
 10
1449.200000
 20
613.000000
 30
0.0
 10
1427.100000
 20
613.000000
 30
0.0
  0
SPLINE
  5
285
100
AcDbEntity
  8
0
 62
7
100
AcDbSpline
 70
8
 71
3
 72
8
 73
4
 74
0
 40
0
 40
0
 40
0
 40
0
 40
1
 40
1
 40
1
 40
1
 10
1520.700000
 20
648.600000
 30
0.0
 10
1506.900000
 20
644.600000
 30
0.0
 10
1497.000000
 20
636.400000
 30
0.0
 10
1491.100000
 20
624.100000
 30
0.0
  0
SPLINE
  5
286
100
AcDbEntity
  8
0
 62
7
100
AcDbSpline
 70
8
 71
3
 72
8
 73
4
 74
0
 40
0
 40
0
 40
0
 40
0
 40
1
 40
1
 40
1
 40
1
 10
1491.100000
 20
624.100000
 30
0.0
 10
1487.600000
 20
616.700000
 30
0.0
 10
1487.500000
 20
616.200000
 30
0.0
 10
1487.500000
 20
604.500000
 30
0.0
  0
SPLINE
  5
287
100
AcDbEntity
  8
0
 62
7
100
AcDbSpline
 70
8
 71
3
 72
8
 73
4
 74
0
 40
0
 40
0
 40
0
 40
0
 40
1
 40
1
 40
1
 40
1
 10
1487.500000
 20
604.500000
 30
0.0
 10
1487.500000
 20
594.400000
 30
0.0
 10
1487.900000
 20
591.600000
 30
0.0
 10
1489.800000
 20
587.000000
 30
0.0
  0
SPLINE
  5
288
100
AcDbEntity
  8
0
 62
7
100
AcDbSpline
 70
8
 71
3
 72
8
 73
4
 74
0
 40
0
 40
0
 40
0
 40
0
 40
1
 40
1
 40
1
 40
1
 10
1489.800000
 20
587.000000
 30
0.0
 10
1498.000000
 20
566.800000
 30
0.0
 10
1520.500000
 20
554.800000
 30
0.0
 10
1542.100000
 20
559.300000
 30
0.0
  0
SPLINE
  5
289
100
AcDbEntity
  8
0
 62
7
100
AcDbSpline
 70
8
 71
3
 72
8
 73
4
 74
0
 40
0
 40
0
 40
0
 40
0
 40
1
 40
1
 40
1
 40
1
 10
1542.100000
 20
559.300000
 30
0.0
 10
1550.200000
 20
560.900000
 30
0.0
 10
1558.700000
 20
564.500000
 30
0.0
 10
1563.300000
 20
568.200000
 30
0.0
  0
LWPOLYLINE
  5
28a
100
AcDbEntity
  8
0
 62
7
100
AcDbPolyline
 90
1
 70
1
 10
1440.300000
 20
630.000000
 30
0.0
  0
SPLINE
  5
28b
100
AcDbEntity
  8
0
 62
7
100
AcDbSpline
 70
8
 71
3
 72
8
 73
4
 74
0
 40
0
 40
0
 40
0
 40
0
 40
1
 40
1
 40
1
 40
1
 10
1548.400000
 20
583.900000
 30
0.0
 10
1543.800000
 20
579.700000
 30
0.0
 10
1540.900000
 20
578.600000
 30
0.0
 10
1534.000000
 20
578.600000
 30
0.0
  0
SPLINE
  5
28c
100
AcDbEntity
  8
0
 62
7
100
AcDbSpline
 70
8
 71
3
 72
8
 73
4
 74
0
 40
0
 40
0
 40
0
 40
0
 40
1
 40
1
 40
1
 40
1
 10
1534.000000
 20
578.600000
 30
0.0
 10
1518.800000
 20
578.600000
 30
0.0
 10
1508.000000
 20
590.800000
 30
0.0
 10
1509.200000
 20
606.400000
 30
0.0
  0
SPLINE
  5
28d
100
AcDbEntity
  8
0
 62
7
100
AcDbSpline
 70
8
 71
3
 72
8
 73
4
 74
0
 40
0
 40
0
 40
0
 40
0
 40
1
 40
1
 40
1
 40
1
 10
1509.200000
 20
606.400000
 30
0.0
 10
1510.100000
 20
617.000000
 30
0.0
 10
1515.800000
 20
624.800000
 30
0.0
 10
1525.400000
 20
628.500000
 30
0.0
  0
SPLINE
  5
28e
100
AcDbEntity
  8
0
 62
7
100
AcDbSpline
 70
8
 71
3
 72
8
 73
4
 74
0
 40
0
 40
0
 40
0
 40
0
 40
1
 40
1
 40
1
 40
1
 10
1525.400000
 20
628.500000
 30
0.0
 10
1532.500000
 20
631.200000
 30
0.0
 10
1539.500000
 20
630.200000
 30
0.0
 10
1546.000000
 20
625.600000
 30
0.0
  0
LWPOLYLINE
  5
28f
100
AcDbEntity
  8
0
 62
7
100
AcDbPolyline
 90
5
 70
0
 10
1563.300000
 20
568.200000
 30
0.0
 10
1566.100000
 20
570.500000
 30
0.0
 10
1558.600000
 20
578.500000
 30
0.0
 10
1551.200000
 20
586.500000
 30
0.0
 10
1548.400000
 20
583.900000
 30
0.0
  0
SPLINE
  5
290
100
AcDbEntity
  8
0
 62
7
100
AcDbSpline
 70
8
 71
3
 72
8
 73
4
 74
0
 40
0
 40
0
 40
0
 40
0
 40
1
 40
1
 40
1
 40
1
 10
1561.700000
 20
640.600000
 30
0.0
 10
1555.100000
 20
646.600000
 30
0.0
 10
1547.600000
 20
649.200000
 30
0.0
 10
1535.500000
 20
649.600000
 30
0.0
  0
SPLINE
  5
291
100
AcDbEntity
  8
0
 62
7
100
AcDbSpline
 70
8
 71
3
 72
8
 73
4
 74
0
 40
0
 40
0
 40
0
 40
0
 40
1
 40
1
 40
1
 40
1
 10
1535.500000
 20
649.600000
 30
0.0
 10
1529.000000
 20
649.800000
 30
0.0
 10
1523.800000
 20
649.500000
 30
0.0
 10
1520.700000
 20
648.600000
 30
0.0
  0
LWPOLYLINE
  5
292
100
AcDbEntity
  8
0
 62
7
100
AcDbPolyline
 90
5
 70
0
 10
1546.000000
 20
625.600000
 30
0.0
 10
1551.300000
 20
621.800000
 30
0.0
 10
1558.700000
 20
629.200000
 30
0.0
 10
1566.100000
 20
636.500000
 30
0.0
 10
1561.700000
 20
640.600000
 30
0.0
  0
SPLINE
  5
293
100
AcDbEntity
  8
0
 62
7
100
AcDbSpline
 70
8
 71
3
 72
8
 73
4
 74
0
 40
0
 40
0
 40
0
 40
0
 40
1
 40
1
 40
1
 40
1
 10
1617.000000
 20
649.100000
 30
0.0
 10
1612.000000
 20
647.500000
 30
0.0
 10
1608.100000
 20
645.000000
 30
0.0
 10
1604.100000
 20
640.400000
 30
0.0
  0
LWPOLYLINE
  5
294
100
AcDbEntity
  8
0
 62
7
100
AcDbPolyline
 90
1
 70
1
 10
1520.700000
 20
648.600000
 30
0.0
  0
SPLINE
  5
295
100
AcDbEntity
  8
0
 62
7
100
AcDbSpline
 70
8
 71
3
 72
8
 73
4
 74
0
 40
0
 40
0
 40
0
 40
0
 40
1
 40
1
 40
1
 40
1
 10
1604.300000
 20
621.800000
 30
0.0
 10
1607.800000
 20
627.100000
 30
0.0
 10
1613.300000
 20
630.000000
 30
0.0
 10
1620.100000
 20
630.000000
 30
0.0
  0
SPLINE
  5
296
100
AcDbEntity
  8
0
 62
7
100
AcDbSpline
 70
8
 71
3
 72
8
 73
4
 74
0
 40
0
 40
0
 40
0
 40
0
 40
1
 40
1
 40
1
 40
1
 10
1620.100000
 20
630.000000
 30
0.0
 10
1626.500000
 20
630.000000
 30
0.0
 10
1630.500000
 20
627.700000
 30
0.0
 10
1633.300000
 20
622.500000
 30
0.0
  0
SPLINE
  5
297
100
AcDbEntity
  8
0
 62
7
100
AcDbSpline
 70
8
 71
3
 72
8
 73
4
 74
0
 40
0
 40
0
 40
0
 40
0
 40
1
 40
1
 40
1
 40
1
 10
1633.300000
 20
622.500000
 30
0.0
 10
1635.400000
 20
618.700000
 30
0.0
 10
1635.500000
 20
616.800000
 30
0.0
 10
1636.000000
 20
589.500000
 30
0.0
  0
LWPOLYLINE
  5
298
100
AcDbEntity
  8
0
 62
7
100
AcDbPolyline
 90
13
 70
0
 10
1604.100000
 20
640.400000
 30
0.0
 10
1600.000000
 20
635.700000
 30
0.0
 10
1600.000000
 20
641.900000
 30
0.0
 10
1600.000000
 20
648.000000
 30
0.0
 10
1589.500000
 20
648.000000
 30
0.0
 10
1579.000000
 20
648.000000
 30
0.0
 10
1579.000000
 20
604.000000
 30
0.0
 10
1579.000000
 20
559.900000
 30
0.0
 10
1589.800000
 20
560.200000
 30
0.0
 10
1600.500000
 20
560.500000
 30
0.0
 10
1601.000000
 20
589.100000
 30
0.0
 10
1601.500000
 20
617.700000
 30
0.0
 10
1604.300000
 20
621.800000
 30
0.0
  0
SPLINE
  5
299
100
AcDbEntity
  8
0
 62
7
100
AcDbSpline
 70
8
 71
3
 72
8
 73
4
 74
0
 40
0
 40
0
 40
0
 40
0
 40
1
 40
1
 40
1
 40
1
 10
1658.800000
 20
587.000000
 30
0.0
 10
1659.200000
 20
625.000000
 30
0.0
 10
1657.700000
 20
633.400000
 30
0.0
 10
1649.000000
 20
641.900000
 30
0.0
  0
SPLINE
  5
29a
100
AcDbEntity
  8
0
 62
7
100
AcDbSpline
 70
8
 71
3
 72
8
 73
4
 74
0
 40
0
 40
0
 40
0
 40
0
 40
1
 40
1
 40
1
 40
1
 10
1649.000000
 20
641.900000
 30
0.0
 10
1643.400000
 20
647.300000
 30
0.0
 10
1635.900000
 20
650.000000
 30
0.0
 10
1626.700000
 20
649.900000
 30
0.0
  0
SPLINE
  5
29b
100
AcDbEntity
  8
0
 62
7
100
AcDbSpline
 70
8
 71
3
 72
8
 73
4
 74
0
 40
0
 40
0
 40
0
 40
0
 40
1
 40
1
 40
1
 40
1
 10
1626.700000
 20
649.900000
 30
0.0
 10
1622.700000
 20
649.900000
 30
0.0
 10
1618.400000
 20
649.500000
 30
0.0
 10
1617.000000
 20
649.100000
 30
0.0
  0
LWPOLYLINE
  5
29c
100
AcDbEntity
  8
0
 62
7
100
AcDbPolyline
 90
5
 70
0
 10
1636.000000
 20
589.500000
 30
0.0
 10
1636.500000
 20
560.500000
 30
0.0
 10
1647.500000
 20
560.500000
 30
0.0
 10
1658.500000
 20
560.500000
 30
0.0
 10
1658.800000
 20
587.000000
 30
0.0
  0
SPLINE
  5
29d
100
AcDbEntity
  8
0
 62
7
100
AcDbSpline
 70
8
 71
3
 72
8
 73
4
 74
0
 40
0
 40
0
 40
0
 40
0
 40
1
 40
1
 40
1
 40
1
 10
1712.100000
 20
648.400000
 30
0.0
 10
1689.400000
 20
642.300000
 30
0.0
 10
1675.400000
 20
620.600000
 30
0.0
 10
1679.000000
 20
597.200000
 30
0.0
  0
SPLINE
  5
29e
100
AcDbEntity
  8
0
 62
7
100
AcDbSpline
 70
8
 71
3
 72
8
 73
4
 74
0
 40
0
 40
0
 40
0
 40
0
 40
1
 40
1
 40
1
 40
1
 10
1679.000000
 20
597.200000
 30
0.0
 10
1682.100000
 20
577.800000
 30
0.0
 10
1695.700000
 20
563.700000
 30
0.0
 10
1715.500000
 20
559.500000
 30
0.0
  0
SPLINE
  5
29f
100
AcDbEntity
  8
0
 62
7
100
AcDbSpline
 70
8
 71
3
 72
8
 73
4
 74
0
 40
0
 40
0
 40
0
 40
0
 40
1
 40
1
 40
1
 40
1
 10
1715.500000
 20
559.500000
 30
0.0
 10
1724.200000
 20
557.700000
 30
0.0
 10
1727.700000
 20
557.700000
 30
0.0
 10
1736.300000
 20
559.500000
 30
0.0
  0
SPLINE
  5
2a0
100
AcDbEntity
  8
0
 62
7
100
AcDbSpline
 70
8
 71
3
 72
8
 73
4
 74
0
 40
0
 40
0
 40
0
 40
0
 40
1
 40
1
 40
1
 40
1
 10
1736.300000
 20
559.500000
 30
0.0
 10
1757.600000
 20
564.000000
 30
0.0
 10
1771.300000
 20
578.900000
 30
0.0
 10
1773.500000
 20
600.000000
 30
0.0
  0
SPLINE
  5
2a1
100
AcDbEntity
  8
0
 62
7
100
AcDbSpline
 70
8
 71
3
 72
8
 73
4
 74
0
 40
0
 40
0
 40
0
 40
0
 40
1
 40
1
 40
1
 40
1
 10
1773.500000
 20
600.000000
 30
0.0
 10
1775.800000
 20
622.400000
 30
0.0
 10
1761.500000
 20
642.700000
 30
0.0
 10
1739.300000
 20
648.500000
 30
0.0
  0
SPLINE
  5
2a2
100
AcDbEntity
  8
0
 62
7
100
AcDbSpline
 70
8
 71
3
 72
8
 73
4
 74
0
 40
0
 40
0
 40
0
 40
0
 40
1
 40
1
 40
1
 40
1
 10
1739.300000
 20
648.500000
 30
0.0
 10
1732.200000
 20
650.400000
 30
0.0
 10
1719.200000
 20
650.300000
 30
0.0
 10
1712.100000
 20
648.400000
 30
0.0
  0
LWPOLYLINE
  5
2a3
100
AcDbEntity
  8
0
 62
7
100
AcDbPolyline
 90
1
 70
1
 10
1617.000000
 20
649.100000
 30
0.0
  0
SPLINE
  5
2a4
100
AcDbEntity
  8
0
 62
7
100
AcDbSpline
 70
8
 71
3
 72
8
 73
4
 74
0
 40
0
 40
0
 40
0
 40
0
 40
1
 40
1
 40
1
 40
1
 10
1736.500000
 20
628.100000
 30
0.0
 10
1741.700000
 20
625.800000
 30
0.0
 10
1746.800000
 20
620.700000
 30
0.0
 10
1749.100000
 20
615.500000
 30
0.0
  0
SPLINE
  5
2a5
100
AcDbEntity
  8
0
 62
7
100
AcDbSpline
 70
8
 71
3
 72
8
 73
4
 74
0
 40
0
 40
0
 40
0
 40
0
 40
1
 40
1
 40
1
 40
1
 10
1749.100000
 20
615.500000
 30
0.0
 10
1752.100000
 20
609.100000
 30
0.0
 10
1751.700000
 20
598.700000
 30
0.0
 10
1748.300000
 20
591.900000
 30
0.0
  0
SPLINE
  5
2a6
100
AcDbEntity
  8
0
 62
7
100
AcDbSpline
 70
8
 71
3
 72
8
 73
4
 74
0
 40
0
 40
0
 40
0
 40
0
 40
1
 40
1
 40
1
 40
1
 10
1748.300000
 20
591.900000
 30
0.0
 10
1739.100000
 20
573.800000
 30
0.0
 10
1713.200000
 20
573.800000
 30
0.0
 10
1703.800000
 20
591.900000
 30
0.0
  0
SPLINE
  5
2a7
100
AcDbEntity
  8
0
 62
7
100
AcDbSpline
 70
8
 71
3
 72
8
 73
4
 74
0
 40
0
 40
0
 40
0
 40
0
 40
1
 40
1
 40
1
 40
1
 10
1703.800000
 20
591.900000
 30
0.0
 10
1700.700000
 20
597.900000
 30
0.0
 10
1700.100000
 20
606.100000
 30
0.0
 10
1702.200000
 20
613.400000
 30
0.0
  0
SPLINE
  5
2a8
100
AcDbEntity
  8
0
 62
7
100
AcDbSpline
 70
8
 71
3
 72
8
 73
4
 74
0
 40
0
 40
0
 40
0
 40
0
 40
1
 40
1
 40
1
 40
1
 10
1702.200000
 20
613.400000
 30
0.0
 10
1703.700000
 20
618.500000
 30
0.0
 10
1712.400000
 20
627.500000
 30
0.0
 10
1717.100000
 20
628.800000
 30
0.0
  0
SPLINE
  5
2a9
100
AcDbEntity
  8
0
 62
7
100
AcDbSpline
 70
8
 71
3
 72
8
 73
4
 74
0
 40
0
 40
0
 40
0
 40
0
 40
1
 40
1
 40
1
 40
1
 10
1717.100000
 20
628.800000
 30
0.0
 10
1722.800000
 20
630.500000
 30
0.0
 10
1732.100000
 20
630.100000
 30
0.0
 10
1736.500000
 20
628.100000
 30
0.0
  0
LWPOLYLINE
  5
2aa
100
AcDbEntity
  8
0
 62
7
100
AcDbPolyline
 90
1
 70
1
 10
1712.100000
 20
648.400000
 30
0.0
  0
SPLINE
  5
2ab
100
AcDbEntity
  8
0
 62
7
100
AcDbSpline
 70
8
 71
3
 72
8
 73
4
 74
0
 40
0
 40
0
 40
0
 40
0
 40
1
 40
1
 40
1
 40
1
 10
1870.300000
 20
648.500000
 30
0.0
 10
1842.400000
 20
640.900000
 30
0.0
 10
1828.600000
 20
610.800000
 30
0.0
 10
1841.000000
 20
584.200000
 30
0.0
  0
SPLINE
  5
2ac
100
AcDbEntity
  8
0
 62
7
100
AcDbSpline
 70
8
 71
3
 72
8
 73
4
 74
0
 40
0
 40
0
 40
0
 40
0
 40
1
 40
1
 40
1
 40
1
 10
1841.000000
 20
584.200000
 30
0.0
 10
1844.800000
 20
576.000000
 30
0.0
 10
1852.700000
 20
567.800000
 30
0.0
 10
1860.400000
 20
564.000000
 30
0.0
  0
SPLINE
  5
2ad
100
AcDbEntity
  8
0
 62
7
100
AcDbSpline
 70
8
 71
3
 72
8
 73
4
 74
0
 40
0
 40
0
 40
0
 40
0
 40
1
 40
1
 40
1
 40
1
 10
1860.400000
 20
564.000000
 30
0.0
 10
1866.800000
 20
560.900000
 30
0.0
 10
1878.000000
 20
558.000000
 30
0.0
 10
1884.000000
 20
558.000000
 30
0.0
  0
SPLINE
  5
2ae
100
AcDbEntity
  8
0
 62
7
100
AcDbSpline
 70
8
 71
3
 72
8
 73
4
 74
0
 40
0
 40
0
 40
0
 40
0
 40
1
 40
1
 40
1
 40
1
 10
1884.000000
 20
558.000000
 30
0.0
 10
1890.000000
 20
558.000000
 30
0.0
 10
1901.300000
 20
560.900000
 30
0.0
 10
1907.700000
 20
564.000000
 30
0.0
  0
SPLINE
  5
2af
100
AcDbEntity
  8
0
 62
7
100
AcDbSpline
 70
8
 71
3
 72
8
 73
4
 74
0
 40
0
 40
0
 40
0
 40
0
 40
1
 40
1
 40
1
 40
1
 10
1907.700000
 20
564.000000
 30
0.0
 10
1914.900000
 20
567.600000
 30
0.0
 10
1923.500000
 20
576.300000
 30
0.0
 10
1926.900000
 20
583.600000
 30
0.0
  0
SPLINE
  5
2b0
100
AcDbEntity
  8
0
 62
7
100
AcDbSpline
 70
8
 71
3
 72
8
 73
4
 74
0
 40
0
 40
0
 40
0
 40
0
 40
1
 40
1
 40
1
 40
1
 10
1926.900000
 20
583.600000
 30
0.0
 10
1939.600000
 20
610.600000
 30
0.0
 10
1925.700000
 20
641.100000
 30
0.0
 10
1897.300000
 20
648.500000
 30
0.0
  0
SPLINE
  5
2b1
100
AcDbEntity
  8
0
 62
7
100
AcDbSpline
 70
8
 71
3
 72
8
 73
4
 74
0
 40
0
 40
0
 40
0
 40
0
 40
1
 40
1
 40
1
 40
1
 10
1897.300000
 20
648.500000
 30
0.0
 10
1890.200000
 20
650.400000
 30
0.0
 10
1877.200000
 20
650.300000
 30
0.0
 10
1870.300000
 20
648.500000
 30
0.0
  0
LWPOLYLINE
  5
2b2
100
AcDbEntity
  8
0
 62
7
100
AcDbPolyline
 90
1
 70
1
 10
1736.500000
 20
628.100000
 30
0.0
  0
SPLINE
  5
2b3
100
AcDbEntity
  8
0
 62
7
100
AcDbSpline
 70
8
 71
3
 72
8
 73
4
 74
0
 40
0
 40
0
 40
0
 40
0
 40
1
 40
1
 40
1
 40
1
 10
1893.800000
 20
628.500000
 30
0.0
 10
1898.700000
 20
626.400000
 30
0.0
 10
1904.800000
 20
620.500000
 30
0.0
 10
1907.100000
 20
615.500000
 30
0.0
  0
SPLINE
  5
2b4
100
AcDbEntity
  8
0
 62
7
100
AcDbSpline
 70
8
 71
3
 72
8
 73
4
 74
0
 40
0
 40
0
 40
0
 40
0
 40
1
 40
1
 40
1
 40
1
 10
1907.100000
 20
615.500000
 30
0.0
 10
1910.100000
 20
609.100000
 30
0.0
 10
1909.700000
 20
598.700000
 30
0.0
 10
1906.300000
 20
591.900000
 30
0.0
  0
SPLINE
  5
2b5
100
AcDbEntity
  8
0
 62
7
100
AcDbSpline
 70
8
 71
3
 72
8
 73
4
 74
0
 40
0
 40
0
 40
0
 40
0
 40
1
 40
1
 40
1
 40
1
 10
1906.300000
 20
591.900000
 30
0.0
 10
1897.100000
 20
573.800000
 30
0.0
 10
1871.200000
 20
573.800000
 30
0.0
 10
1861.800000
 20
591.900000
 30
0.0
  0
SPLINE
  5
2b6
100
AcDbEntity
  8
0
 62
7
100
AcDbSpline
 70
8
 71
3
 72
8
 73
4
 74
0
 40
0
 40
0
 40
0
 40
0
 40
1
 40
1
 40
1
 40
1
 10
1861.800000
 20
591.900000
 30
0.0
 10
1858.700000
 20
597.800000
 30
0.0
 10
1858.100000
 20
606.100000
 30
0.0
 10
1860.100000
 20
613.400000
 30
0.0
  0
SPLINE
  5
2b7
100
AcDbEntity
  8
0
 62
7
100
AcDbSpline
 70
8
 71
3
 72
8
 73
4
 74
0
 40
0
 40
0
 40
0
 40
0
 40
1
 40
1
 40
1
 40
1
 10
1860.100000
 20
613.400000
 30
0.0
 10
1861.500000
 20
618.300000
 30
0.0
 10
1870.400000
 20
627.500000
 30
0.0
 10
1875.100000
 20
628.800000
 30
0.0
  0
SPLINE
  5
2b8
100
AcDbEntity
  8
0
 62
7
100
AcDbSpline
 70
8
 71
3
 72
8
 73
4
 74
0
 40
0
 40
0
 40
0
 40
0
 40
1
 40
1
 40
1
 40
1
 10
1875.100000
 20
628.800000
 30
0.0
 10
1880.400000
 20
630.400000
 30
0.0
 10
1889.700000
 20
630.200000
 30
0.0
 10
1893.800000
 20
628.500000
 30
0.0
  0
LWPOLYLINE
  5
2b9
100
AcDbEntity
  8
0
 62
7
100
AcDbPolyline
 90
1
 70
1
 10
1870.300000
 20
648.500000
 30
0.0
  0
SPLINE
  5
2ba
100
AcDbEntity
  8
0
 62
7
100
AcDbSpline
 70
8
 71
3
 72
8
 73
4
 74
0
 40
0
 40
0
 40
0
 40
0
 40
1
 40
1
 40
1
 40
1
 10
1978.700000
 20
648.900000
 30
0.0
 10
1969.800000
 20
646.800000
 30
0.0
 10
1960.100000
 20
640.000000
 30
0.0
 10
1955.100000
 20
632.200000
 30
0.0
  0
SPLINE
  5
2bb
100
AcDbEntity
  8
0
 62
7
100
AcDbSpline
 70
8
 71
3
 72
8
 73
4
 74
0
 40
0
 40
0
 40
0
 40
0
 40
1
 40
1
 40
1
 40
1
 10
1955.100000
 20
632.200000
 30
0.0
 10
1942.900000
 20
613.200000
 30
0.0
 10
1945.100000
 20
586.800000
 30
0.0
 10
1960.100000
 20
571.800000
 30
0.0
  0
SPLINE
  5
2bc
100
AcDbEntity
  8
0
 62
7
100
AcDbSpline
 70
8
 71
3
 72
8
 73
4
 74
0
 40
0
 40
0
 40
0
 40
0
 40
1
 40
1
 40
1
 40
1
 10
1960.100000
 20
571.800000
 30
0.0
 10
1974.800000
 20
557.100000
 30
0.0
 10
2000.900000
 20
555.300000
 30
0.0
 10
2015.400000
 20
568.100000
 30
0.0
  0
LWPOLYLINE
  5
2bd
100
AcDbEntity
  8
0
 62
7
100
AcDbPolyline
 90
1
 70
1
 10
1893.800000
 20
628.500000
 30
0.0
  0
SPLINE
  5
2be
100
AcDbEntity
  8
0
 62
7
100
AcDbSpline
 70
8
 71
3
 72
8
 73
4
 74
0
 40
0
 40
0
 40
0
 40
0
 40
1
 40
1
 40
1
 40
1
 10
2018.800000
 20
562.500000
 30
0.0
 10
2018.200000
 20
549.900000
 30
0.0
 10
2014.900000
 20
544.100000
 30
0.0
 10
2006.000000
 20
539.400000
 30
0.0
  0
SPLINE
  5
2bf
100
AcDbEntity
  8
0
 62
7
100
AcDbSpline
 70
8
 71
3
 72
8
 73
4
 74
0
 40
0
 40
0
 40
0
 40
0
 40
1
 40
1
 40
1
 40
1
 10
2006.000000
 20
539.400000
 30
0.0
 10
2003.200000
 20
537.900000
 30
0.0
 10
2000.300000
 20
537.500000
 30
0.0
 10
1992.000000
 20
537.500000
 30
0.0
  0
SPLINE
  5
2c0
100
AcDbEntity
  8
0
 62
7
100
AcDbSpline
 70
8
 71
3
 72
8
 73
4
 74
0
 40
0
 40
0
 40
0
 40
0
 40
1
 40
1
 40
1
 40
1
 10
1992.000000
 20
537.500000
 30
0.0
 10
1980.200000
 20
537.500000
 30
0.0
 10
1976.000000
 20
538.900000
 30
0.0
 10
1966.900000
 20
545.600000
 30
0.0
  0
SPLINE
  5
2c1
100
AcDbEntity
  8
0
 62
7
100
AcDbSpline
 70
8
 71
3
 72
8
 73
4
 74
0
 40
0
 40
0
 40
0
 40
0
 40
1
 40
1
 40
1
 40
1
 10
1966.900000
 20
545.600000
 30
0.0
 10
1964.100000
 20
547.600000
 30
0.0
 10
1961.800000
 20
549.100000
 30
0.0
 10
1961.600000
 20
548.900000
 30
0.0
  0
SPLINE
  5
2c2
100
AcDbEntity
  8
0
 62
7
100
AcDbSpline
 70
8
 71
3
 72
8
 73
4
 74
0
 40
0
 40
0
 40
0
 40
0
 40
1
 40
1
 40
1
 40
1
 10
1961.600000
 20
548.900000
 30
0.0
 10
1961.400000
 20
548.700000
 30
0.0
 10
1958.500000
 20
544.700000
 30
0.0
 10
1955.100000
 20
540.100000
 30
0.0
  0
SPLINE
  5
2c3
100
AcDbEntity
  8
0
 62
7
100
AcDbSpline
 70
8
 71
3
 72
8
 73
4
 74
0
 40
0
 40
0
 40
0
 40
0
 40
1
 40
1
 40
1
 40
1
 10
1955.100000
 20
540.100000
 30
0.0
 10
1950.400000
 20
533.700000
 30
0.0
 10
1949.200000
 20
531.500000
 30
0.0
 10
1950.100000
 20
530.400000
 30
0.0
  0
SPLINE
  5
2c4
100
AcDbEntity
  8
0
 62
7
100
AcDbSpline
 70
8
 71
3
 72
8
 73
4
 74
0
 40
0
 40
0
 40
0
 40
0
 40
1
 40
1
 40
1
 40
1
 10
1950.100000
 20
530.400000
 30
0.0
 10
1952.500000
 20
527.500000
 30
0.0
 10
1961.400000
 20
522.700000
 30
0.0
 10
1968.800000
 20
520.200000
 30
0.0
  0
SPLINE
  5
2c5
100
AcDbEntity
  8
0
 62
7
100
AcDbSpline
 70
8
 71
3
 72
8
 73
4
 74
0
 40
0
 40
0
 40
0
 40
0
 40
1
 40
1
 40
1
 40
1
 10
1968.800000
 20
520.200000
 30
0.0
 10
1975.600000
 20
518.000000
 30
0.0
 10
1978.200000
 20
517.600000
 30
0.0
 10
1991.000000
 20
517.600000
 30
0.0
  0
SPLINE
  5
2c6
100
AcDbEntity
  8
0
 62
7
100
AcDbSpline
 70
8
 71
3
 72
8
 73
4
 74
0
 40
0
 40
0
 40
0
 40
0
 40
1
 40
1
 40
1
 40
1
 10
1991.000000
 20
517.600000
 30
0.0
 10
2006.600000
 20
517.500000
 30
0.0
 10
2011.800000
 20
518.600000
 30
0.0
 10
2020.600000
 20
523.700000
 30
0.0
  0
SPLINE
  5
2c7
100
AcDbEntity
  8
0
 62
7
100
AcDbSpline
 70
8
 71
3
 72
8
 73
4
 74
0
 40
0
 40
0
 40
0
 40
0
 40
1
 40
1
 40
1
 40
1
 10
2020.600000
 20
523.700000
 30
0.0
 10
2026.100000
 20
526.800000
 30
0.0
 10
2033.700000
 20
535.000000
 30
0.0
 10
2036.000000
 20
540.300000
 30
0.0
  0
SPLINE
  5
2c8
100
AcDbEntity
  8
0
 62
7
100
AcDbSpline
 70
8
 71
3
 72
8
 73
4
 74
0
 40
0
 40
0
 40
0
 40
0
 40
1
 40
1
 40
1
 40
1
 10
2036.000000
 20
540.300000
 30
0.0
 10
2041.200000
 20
552.000000
 30
0.0
 10
2041.300000
 20
553.600000
 30
0.0
 10
2041.800000
 20
602.300000
 30
0.0
  0
LWPOLYLINE
  5
2c9
100
AcDbEntity
  8
0
 62
7
100
AcDbPolyline
 90
3
 70
0
 10
2015.400000
 20
568.100000
 30
0.0
 10
2019.300000
 20
571.400000
 30
0.0
 10
2018.800000
 20
562.500000
 30
0.0
  0
SPLINE
  5
2ca
100
AcDbEntity
  8
0
 62
7
100
AcDbSpline
 70
8
 71
3
 72
8
 73
4
 74
0
 40
0
 40
0
 40
0
 40
0
 40
1
 40
1
 40
1
 40
1
 10
2015.100000
 20
641.300000
 30
0.0
 10
2007.100000
 20
648.800000
 30
0.0
 10
1991.800000
 20
652.000000
 30
0.0
 10
1978.700000
 20
648.900000
 30
0.0
  0
LWPOLYLINE
  5
2cb
100
AcDbEntity
  8
0
 62
7
100
AcDbPolyline
 90
7
 70
0
 10
2041.800000
 20
602.300000
 30
0.0
 10
2042.100000
 20
648.000000
 30
0.0
 10
2031.100000
 20
648.000000
 30
0.0
 10
2020.000000
 20
648.000000
 30
0.0
 10
2020.000000
 20
642.400000
 30
0.0
 10
2020.000000
 20
636.700000
 30
0.0
 10
2015.100000
 20
641.300000
 30
0.0
  0
SPLINE
  5
2cc
100
AcDbEntity
  8
0
 62
7
100
AcDbSpline
 70
8
 71
3
 72
8
 73
4
 74
0
 40
0
 40
0
 40
0
 40
0
 40
1
 40
1
 40
1
 40
1
 10
2004.300000
 20
628.900000
 30
0.0
 10
2009.200000
 20
627.600000
 30
0.0
 10
2015.800000
 20
621.600000
 30
0.0
 10
2018.100000
 20
616.500000
 30
0.0
  0
SPLINE
  5
2cd
100
AcDbEntity
  8
0
 62
7
100
AcDbSpline
 70
8
 71
3
 72
8
 73
4
 74
0
 40
0
 40
0
 40
0
 40
0
 40
1
 40
1
 40
1
 40
1
 10
2018.100000
 20
616.500000
 30
0.0
 10
2020.600000
 20
611.000000
 30
0.0
 10
2020.600000
 20
598.900000
 30
0.0
 10
2018.100000
 20
593.500000
 30
0.0
  0
SPLINE
  5
2ce
100
AcDbEntity
  8
0
 62
7
100
AcDbSpline
 70
8
 71
3
 72
8
 73
4
 74
0
 40
0
 40
0
 40
0
 40
0
 40
1
 40
1
 40
1
 40
1
 10
2018.100000
 20
593.500000
 30
0.0
 10
2014.000000
 20
584.700000
 30
0.0
 10
2005.700000
 20
579.700000
 30
0.0
 10
1995.000000
 20
579.700000
 30
0.0
  0
SPLINE
  5
2cf
100
AcDbEntity
  8
0
 62
7
100
AcDbSpline
 70
8
 71
3
 72
8
 73
4
 74
0
 40
0
 40
0
 40
0
 40
0
 40
1
 40
1
 40
1
 40
1
 10
1995.000000
 20
579.700000
 30
0.0
 10
1984.400000
 20
579.700000
 30
0.0
 10
1976.300000
 20
584.600000
 30
0.0
 10
1971.900000
 20
593.800000
 30
0.0
  0
SPLINE
  5
2d0
100
AcDbEntity
  8
0
 62
7
100
AcDbSpline
 70
8
 71
3
 72
8
 73
4
 74
0
 40
0
 40
0
 40
0
 40
0
 40
1
 40
1
 40
1
 40
1
 10
1971.900000
 20
593.800000
 30
0.0
 10
1969.200000
 20
599.300000
 30
0.0
 10
1968.900000
 20
609.400000
 30
0.0
 10
1971.200000
 20
615.000000
 30
0.0
  0
SPLINE
  5
2d1
100
AcDbEntity
  8
0
 62
7
100
AcDbSpline
 70
8
 71
3
 72
8
 73
4
 74
0
 40
0
 40
0
 40
0
 40
0
 40
1
 40
1
 40
1
 40
1
 10
1971.200000
 20
615.000000
 30
0.0
 10
1976.300000
 20
627.000000
 30
0.0
 10
1990.200000
 20
632.800000
 30
0.0
 10
2004.300000
 20
628.900000
 30
0.0
  0
LWPOLYLINE
  5
2d2
100
AcDbEntity
  8
0
 62
7
100
AcDbPolyline
 90
1
 70
1
 10
1978.700000
 20
648.900000
 30
0.0
  0
SPLINE
  5
2d3
100
AcDbEntity
  8
0
 62
7
100
AcDbSpline
 70
8
 71
3
 72
8
 73
4
 74
0
 40
0
 40
0
 40
0
 40
0
 40
1
 40
1
 40
1
 40
1
 10
2142.700000
 20
648.500000
 30
0.0
 10
2134.300000
 20
646.200000
 30
0.0
 10
2127.500000
 20
642.200000
 30
0.0
 10
2121.800000
 20
636.200000
 30
0.0
  0
SPLINE
  5
2d4
100
AcDbEntity
  8
0
 62
7
100
AcDbSpline
 70
8
 71
3
 72
8
 73
4
 74
0
 40
0
 40
0
 40
0
 40
0
 40
1
 40
1
 40
1
 40
1
 10
2121.800000
 20
636.200000
 30
0.0
 10
2112.000000
 20
626.000000
 30
0.0
 10
2108.400000
 20
615.800000
 30
0.0
 10
2109.300000
 20
601.100000
 30
0.0
  0
SPLINE
  5
2d5
100
AcDbEntity
  8
0
 62
7
100
AcDbSpline
 70
8
 71
3
 72
8
 73
4
 74
0
 40
0
 40
0
 40
0
 40
0
 40
1
 40
1
 40
1
 40
1
 10
2109.300000
 20
601.100000
 30
0.0
 10
2109.900000
 20
590.900000
 30
0.0
 10
2112.400000
 20
583.600000
 30
0.0
 10
2117.800000
 20
576.500000
 30
0.0
  0
SPLINE
  5
2d6
100
AcDbEntity
  8
0
 62
7
100
AcDbSpline
 70
8
 71
3
 72
8
 73
4
 74
0
 40
0
 40
0
 40
0
 40
0
 40
1
 40
1
 40
1
 40
1
 10
2117.800000
 20
576.500000
 30
0.0
 10
2128.200000
 20
562.800000
 30
0.0
 10
2147.000000
 20
555.800000
 30
0.0
 10
2164.100000
 20
559.300000
 30
0.0
  0
SPLINE
  5
2d7
100
AcDbEntity
  8
0
 62
7
100
AcDbSpline
 70
8
 71
3
 72
8
 73
4
 74
0
 40
0
 40
0
 40
0
 40
0
 40
1
 40
1
 40
1
 40
1
 10
2164.100000
 20
559.300000
 30
0.0
 10
2172.200000
 20
560.900000
 30
0.0
 10
2180.700000
 20
564.500000
 30
0.0
 10
2185.300000
 20
568.200000
 30
0.0
  0
LWPOLYLINE
  5
2d8
100
AcDbEntity
  8
0
 62
7
100
AcDbPolyline
 90
1
 70
1
 10
2004.300000
 20
628.900000
 30
0.0
  0
SPLINE
  5
2d9
100
AcDbEntity
  8
0
 62
7
100
AcDbSpline
 70
8
 71
3
 72
8
 73
4
 74
0
 40
0
 40
0
 40
0
 40
0
 40
1
 40
1
 40
1
 40
1
 10
2170.400000
 20
583.900000
 30
0.0
 10
2165.800000
 20
579.700000
 30
0.0
 10
2162.900000
 20
578.600000
 30
0.0
 10
2156.000000
 20
578.600000
 30
0.0
  0
SPLINE
  5
2da
100
AcDbEntity
  8
0
 62
7
100
AcDbSpline
 70
8
 71
3
 72
8
 73
4
 74
0
 40
0
 40
0
 40
0
 40
0
 40
1
 40
1
 40
1
 40
1
 10
2156.000000
 20
578.600000
 30
0.0
 10
2140.600000
 20
578.600000
 30
0.0
 10
2129.800000
 20
591.100000
 30
0.0
 10
2131.300000
 20
607.300000
 30
0.0
  0
SPLINE
  5
2db
100
AcDbEntity
  8
0
 62
7
100
AcDbSpline
 70
8
 71
3
 72
8
 73
4
 74
0
 40
0
 40
0
 40
0
 40
0
 40
1
 40
1
 40
1
 40
1
 10
2131.300000
 20
607.300000
 30
0.0
 10
2132.500000
 20
620.900000
 30
0.0
 10
2144.000000
 20
630.900000
 30
0.0
 10
2157.400000
 20
629.800000
 30
0.0
  0
SPLINE
  5
2dc
100
AcDbEntity
  8
0
 62
7
100
AcDbSpline
 70
8
 71
3
 72
8
 73
4
 74
0
 40
0
 40
0
 40
0
 40
0
 40
1
 40
1
 40
1
 40
1
 10
2157.400000
 20
629.800000
 30
0.0
 10
2161.600000
 20
629.500000
 30
0.0
 10
2163.900000
 20
628.500000
 30
0.0
 10
2168.000000
 20
625.600000
 30
0.0
  0
LWPOLYLINE
  5
2dd
100
AcDbEntity
  8
0
 62
7
100
AcDbPolyline
 90
5
 70
0
 10
2185.300000
 20
568.200000
 30
0.0
 10
2188.100000
 20
570.500000
 30
0.0
 10
2180.700000
 20
578.500000
 30
0.0
 10
2173.200000
 20
586.500000
 30
0.0
 10
2170.400000
 20
583.900000
 30
0.0
  0
SPLINE
  5
2de
100
AcDbEntity
  8
0
 62
7
100
AcDbSpline
 70
8
 71
3
 72
8
 73
4
 74
0
 40
0
 40
0
 40
0
 40
0
 40
1
 40
1
 40
1
 40
1
 10
2185.500000
 20
639.500000
 30
0.0
 10
2176.800000
 20
646.800000
 30
0.0
 10
2167.200000
 20
650.100000
 30
0.0
 10
2155.000000
 20
649.900000
 30
0.0
  0
SPLINE
  5
2df
100
AcDbEntity
  8
0
 62
7
100
AcDbSpline
 70
8
 71
3
 72
8
 73
4
 74
0
 40
0
 40
0
 40
0
 40
0
 40
1
 40
1
 40
1
 40
1
 10
2155.000000
 20
649.900000
 30
0.0
 10
2150.900000
 20
649.900000
 30
0.0
 10
2145.300000
 20
649.200000
 30
0.0
 10
2142.700000
 20
648.500000
 30
0.0
  0
LWPOLYLINE
  5
2e0
100
AcDbEntity
  8
0
 62
7
100
AcDbPolyline
 90
5
 70
0
 10
2168.000000
 20
625.600000
 30
0.0
 10
2173.300000
 20
621.800000
 30
0.0
 10
2180.900000
 20
629.400000
 30
0.0
 10
2188.500000
 20
637.000000
 30
0.0
 10
2185.500000
 20
639.500000
 30
0.0
  0
SPLINE
  5
2e1
100
AcDbEntity
  8
0
 62
7
100
AcDbSpline
 70
8
 71
3
 72
8
 73
4
 74
0
 40
0
 40
0
 40
0
 40
0
 40
1
 40
1
 40
1
 40
1
 10
2224.500000
 20
648.000000
 30
0.0
 10
2213.600000
 20
644.500000
 30
0.0
 10
2203.500000
 20
634.600000
 30
0.0
 10
2199.000000
 20
623.100000
 30
0.0
  0
SPLINE
  5
2e2
100
AcDbEntity
  8
0
 62
7
100
AcDbSpline
 70
8
 71
3
 72
8
 73
4
 74
0
 40
0
 40
0
 40
0
 40
0
 40
1
 40
1
 40
1
 40
1
 10
2199.000000
 20
623.100000
 30
0.0
 10
2196.200000
 20
616.000000
 30
0.0
 10
2195.200000
 20
600.300000
 30
0.0
 10
2197.000000
 20
592.200000
 30
0.0
  0
SPLINE
  5
2e3
100
AcDbEntity
  8
0
 62
7
100
AcDbSpline
 70
8
 71
3
 72
8
 73
4
 74
0
 40
0
 40
0
 40
0
 40
0
 40
1
 40
1
 40
1
 40
1
 10
2197.000000
 20
592.200000
 30
0.0
 10
2201.000000
 20
574.000000
 30
0.0
 10
2213.600000
 20
561.900000
 30
0.0
 10
2231.800000
 20
558.900000
 30
0.0
  0
SPLINE
  5
2e4
100
AcDbEntity
  8
0
 62
7
100
AcDbSpline
 70
8
 71
3
 72
8
 73
4
 74
0
 40
0
 40
0
 40
0
 40
0
 40
1
 40
1
 40
1
 40
1
 10
2231.800000
 20
558.900000
 30
0.0
 10
2244.300000
 20
556.800000
 30
0.0
 10
2257.700000
 20
560.700000
 30
0.0
 10
2265.000000
 20
568.600000
 30
0.0
  0
LWPOLYLINE
  5
2e5
100
AcDbEntity
  8
0
 62
7
100
AcDbPolyline
 90
1
 70
1
 10
2142.700000
 20
648.500000
 30
0.0
  0
SPLINE
  5
2e6
100
AcDbEntity
  8
0
 62
7
100
AcDbSpline
 70
8
 71
3
 72
8
 73
4
 74
0
 40
0
 40
0
 40
0
 40
0
 40
1
 40
1
 40
1
 40
1
 10
2262.900000
 20
641.400000
 30
0.0
 10
2253.800000
 20
649.600000
 30
0.0
 10
2238.000000
 20
652.300000
 30
0.0
 10
2224.500000
 20
648.000000
 30
0.0
  0
LWPOLYLINE
  5
2e7
100
AcDbEntity
  8
0
 62
7
100
AcDbPolyline
 90
13
 70
0
 10
2265.000000
 20
568.600000
 30
0.0
 10
2269.000000
 20
573.000000
 30
0.0
 10
2269.000000
 20
566.500000
 30
0.0
 10
2269.000000
 20
560.000000
 30
0.0
 10
2279.500000
 20
560.000000
 30
0.0
 10
2290.000000
 20
560.000000
 30
0.0
 10
2290.000000
 20
605.000000
 30
0.0
 10
2290.000000
 20
650.000000
 30
0.0
 10
2279.000000
 20
650.000000
 30
0.0
 10
2268.000000
 20
650.000000
 30
0.0
 10
2268.000000
 20
643.400000
 30
0.0
 10
2268.000000
 20
636.800000
 30
0.0
 10
2262.900000
 20
641.400000
 30
0.0
  0
SPLINE
  5
2e8
100
AcDbEntity
  8
0
 62
7
100
AcDbSpline
 70
8
 71
3
 72
8
 73
4
 74
0
 40
0
 40
0
 40
0
 40
0
 40
1
 40
1
 40
1
 40
1
 10
2252.500000
 20
628.600000
 30
0.0
 10
2262.700000
 20
624.300000
 30
0.0
 10
2268.300000
 20
615.500000
 30
0.0
 10
2268.200000
 20
604.000000
 30
0.0
  0
SPLINE
  5
2e9
100
AcDbEntity
  8
0
 62
7
100
AcDbSpline
 70
8
 71
3
 72
8
 73
4
 74
0
 40
0
 40
0
 40
0
 40
0
 40
1
 40
1
 40
1
 40
1
 10
2268.200000
 20
604.000000
 30
0.0
 10
2268.200000
 20
598.400000
 30
0.0
 10
2267.700000
 20
596.100000
 30
0.0
 10
2265.300000
 20
591.800000
 30
0.0
  0
SPLINE
  5
2ea
100
AcDbEntity
  8
0
 62
7
100
AcDbSpline
 70
8
 71
3
 72
8
 73
4
 74
0
 40
0
 40
0
 40
0
 40
0
 40
1
 40
1
 40
1
 40
1
 10
2265.300000
 20
591.800000
 30
0.0
 10
2260.200000
 20
582.400000
 30
0.0
 10
2249.700000
 20
577.000000
 30
0.0
 10
2239.300000
 20
578.600000
 30
0.0
  0
SPLINE
  5
2eb
100
AcDbEntity
  8
0
 62
7
100
AcDbSpline
 70
8
 71
3
 72
8
 73
4
 74
0
 40
0
 40
0
 40
0
 40
0
 40
1
 40
1
 40
1
 40
1
 10
2239.300000
 20
578.600000
 30
0.0
 10
2232.900000
 20
579.500000
 30
0.0
 10
2225.100000
 20
584.700000
 30
0.0
 10
2221.600000
 20
590.300000
 30
0.0
  0
SPLINE
  5
2ec
100
AcDbEntity
  8
0
 62
7
100
AcDbSpline
 70
8
 71
3
 72
8
 73
4
 74
0
 40
0
 40
0
 40
0
 40
0
 40
1
 40
1
 40
1
 40
1
 10
2221.600000
 20
590.300000
 30
0.0
 10
2219.300000
 20
594.100000
 30
0.0
 10
2218.600000
 20
596.500000
 30
0.0
 10
2218.200000
 20
602.400000
 30
0.0
  0
SPLINE
  5
2ed
100
AcDbEntity
  8
0
 62
7
100
AcDbSpline
 70
8
 71
3
 72
8
 73
4
 74
0
 40
0
 40
0
 40
0
 40
0
 40
1
 40
1
 40
1
 40
1
 10
2218.200000
 20
602.400000
 30
0.0
 10
2217.800000
 20
608.800000
 30
0.0
 10
2218.100000
 20
610.500000
 30
0.0
 10
2220.200000
 20
615.200000
 30
0.0
  0
SPLINE
  5
2ee
100
AcDbEntity
  8
0
 62
7
100
AcDbSpline
 70
8
 71
3
 72
8
 73
4
 74
0
 40
0
 40
0
 40
0
 40
0
 40
1
 40
1
 40
1
 40
1
 10
2220.200000
 20
615.200000
 30
0.0
 10
2222.900000
 20
621.100000
 30
0.0
 10
2228.700000
 20
626.700000
 30
0.0
 10
2234.100000
 20
628.600000
 30
0.0
  0
SPLINE
  5
2ef
100
AcDbEntity
  8
0
 62
7
100
AcDbSpline
 70
8
 71
3
 72
8
 73
4
 74
0
 40
0
 40
0
 40
0
 40
0
 40
1
 40
1
 40
1
 40
1
 10
2234.100000
 20
628.600000
 30
0.0
 10
2238.800000
 20
630.300000
 30
0.0
 10
2248.400000
 20
630.300000
 30
0.0
 10
2252.500000
 20
628.600000
 30
0.0
  0
LWPOLYLINE
  5
2f0
100
AcDbEntity
  8
0
 62
7
100
AcDbPolyline
 90
1
 70
1
 10
2224.500000
 20
648.000000
 30
0.0
  0
LWPOLYLINE
  5
2f1
100
AcDbEntity
  8
0
 62
7
100
AcDbPolyline
 90
1
 70
1
 10
2252.500000
 20
628.600000
 30
0.0
  0
SPLINE
  5
2f2
100
AcDbEntity
  8
0
 62
7
100
AcDbSpline
 70
8
 71
3
 72
8
 73
4
 74
0
 40
0
 40
0
 40
0
 40
0
 40
1
 40
1
 40
1
 40
1
 10
499.400000
 20
647.200000
 30
0.0
 10
499.700000
 20
646.700000
 30
0.0
 10
506.500000
 20
630.200000
 30
0.0
 10
514.500000
 20
610.400000
 30
0.0
  0
SPLINE
  5
2f3
100
AcDbEntity
  8
0
 62
7
100
AcDbSpline
 70
8
 71
3
 72
8
 73
4
 74
0
 40
0
 40
0
 40
0
 40
0
 40
1
 40
1
 40
1
 40
1
 10
514.500000
 20
610.400000
 30
0.0
 10
522.600000
 20
590.700000
 30
0.0
 10
530.500000
 20
571.200000
 30
0.0
 10
532.200000
 20
567.200000
 30
0.0
  0
LWPOLYLINE
  5
2f4
100
AcDbEntity
  8
0
 62
7
100
AcDbPolyline
 90
9
 70
1
 10
464.200000
 20
604.300000
 30
0.0
 10
464.500000
 20
560.500000
 30
0.0
 10
475.300000
 20
560.200000
 30
0.0
 10
486.000000
 20
559.900000
 30
0.0
 10
486.000000
 20
604.000000
 30
0.0
 10
486.000000
 20
648.000000
 30
0.0
 10
475.000000
 20
648.000000
 30
0.0
 10
464.000000
 20
648.000000
 30
0.0
 10
464.200000
 20
604.300000
 30
0.0
  0
SPLINE
  5
2f5
100
AcDbEntity
  8
0
 62
7
100
AcDbSpline
 70
8
 71
3
 72
8
 73
4
 74
0
 40
0
 40
0
 40
0
 40
0
 40
1
 40
1
 40
1
 40
1
 10
581.700000
 20
647.800000
 30
0.0
 10
575.700000
 20
647.900000
 30
0.0
 10
570.600000
 20
647.900000
 30
0.0
 10
570.300000
 20
647.700000
 30
0.0
  0
SPLINE
  5
2f6
100
AcDbEntity
  8
0
 62
7
100
AcDbSpline
 70
8
 71
3
 72
8
 73
4
 74
0
 40
0
 40
0
 40
0
 40
0
 40
1
 40
1
 40
1
 40
1
 10
570.300000
 20
647.700000
 30
0.0
 10
570.100000
 20
647.400000
 30
0.0
 10
564.900000
 20
634.300000
 30
0.0
 10
558.800000
 20
618.400000
 30
0.0
  0
SPLINE
  5
2f7
100
AcDbEntity
  8
0
 62
7
100
AcDbSpline
 70
8
 71
3
 72
8
 73
4
 74
0
 40
0
 40
0
 40
0
 40
0
 40
1
 40
1
 40
1
 40
1
 10
558.800000
 20
618.400000
 30
0.0
 10
552.700000
 20
602.500000
 30
0.0
 10
547.400000
 20
589.100000
 30
0.0
 10
547.000000
 20
588.700000
 30
0.0
  0
SPLINE
  5
2f8
100
AcDbEntity
  8
0
 62
7
100
AcDbSpline
 70
8
 71
3
 72
8
 73
4
 74
0
 40
0
 40
0
 40
0
 40
0
 40
1
 40
1
 40
1
 40
1
 10
547.000000
 20
588.700000
 30
0.0
 10
546.600000
 20
588.300000
 30
0.0
 10
541.200000
 20
601.400000
 30
0.0
 10
534.900000
 20
617.900000
 30
0.0
  0
LWPOLYLINE
  5
2f9
100
AcDbEntity
  8
0
 62
7
100
AcDbPolyline
 90
7
 70
0
 10
532.200000
 20
567.200000
 30
0.0
 10
535.200000
 20
559.900000
 30
0.0
 10
546.800000
 20
560.200000
 30
0.0
 10
558.400000
 20
560.500000
 30
0.0
 10
575.600000
 20
604.000000
 30
0.0
 10
592.700000
 20
647.500000
 30
0.0
 10
581.700000
 20
647.800000
 30
0.0
  0
SPLINE
  5
2fa
100
AcDbEntity
  8
0
 62
7
100
AcDbSpline
 70
8
 71
3
 72
8
 73
4
 74
0
 40
0
 40
0
 40
0
 40
0
 40
1
 40
1
 40
1
 40
1
 10
511.200000
 20
648.000000
 30
0.0
 10
504.400000
 20
648.000000
 30
0.0
 10
499.100000
 20
647.600000
 30
0.0
 10
499.400000
 20
647.200000
 30
0.0
  0
LWPOLYLINE
  5
2fb
100
AcDbEntity
  8
0
 62
7
100
AcDbPolyline
 90
3
 70
0
 10
534.900000
 20
617.900000
 30
0.0
 10
523.500000
 20
648.000000
 30
0.0
 10
511.200000
 20
648.000000
 30
0.0
  0
LWPOLYLINE
  5
2fc
100
AcDbEntity
  8
0
 62
7
100
AcDbPolyline
 90
1
 70
1
 10
499.400000
 20
647.200000
 30
0.0
  0
LWPOLYLINE
  5
2fd
100
AcDbEntity
  8
0
 62
7
100
AcDbPolyline
 90
9
 70
1
 10
861.200000
 20
604.300000
 30
0.0
 10
861.500000
 20
560.500000
 30
0.0
 10
872.300000
 20
560.200000
 30
0.0
 10
883.000000
 20
559.900000
 30
0.0
 10
883.000000
 20
604.000000
 30
0.0
 10
883.000000
 20
648.000000
 30
0.0
 10
872.000000
 20
648.000000
 30
0.0
 10
861.000000
 20
648.000000
 30
0.0
 10
861.200000
 20
604.300000
 30
0.0
  0
LWPOLYLINE
  5
2fe
100
AcDbEntity
  8
0
 62
7
100
AcDbPolyline
 90
9
 70
1
 10
2066.200000
 20
604.300000
 30
0.0
 10
2066.500000
 20
560.500000
 30
0.0
 10
2077.500000
 20
560.500000
 30
0.0
 10
2088.500000
 20
560.500000
 30
0.0
 10
2088.800000
 20
604.300000
 30
0.0
 10
2089.000000
 20
648.000000
 30
0.0
 10
2077.500000
 20
648.000000
 30
0.0
 10
2066.000000
 20
648.000000
 30
0.0
 10
2066.200000
 20
604.300000
 30
0.0
  0
ENDSEC
  0
SECTION
  2
OBJECTS
  0
DICTIONARY
  5
C
330
0
100
AcDbDictionary
  3
ACAD_GROUP
350
D
  3
ACAD_MLINESTYLE
350
17
  0
DICTIONARY
  5
D
330
C
100
AcDbDictionary
  0
DICTIONARY
  5
1A
330
C
100
AcDbDictionary
  0
DICTIONARY
  5
17
330
C
100
AcDbDictionary
  3
STANDARD
350
18
  0
DICTIONARY
  5
19
330
C
100
AcDbDictionary
  0
ENDSEC
  0
EOF
