<?xml version="1.0" standalone="no"?>
<!DOCTYPE svg PUBLIC "-//W3C//DTD SVG 20010904//EN"
 "http://www.w3.org/TR/2001/REC-SVG-20010904/DTD/svg10.dtd">
<svg version="1.0" xmlns="http://www.w3.org/2000/svg"
 width="2500.000000pt" height="2500.000000pt" viewBox="0 0 2500.000000 2500.000000"
 preserveAspectRatio="xMidYMid meet">

<g transform="translate(0.000000,2500.000000) scale(0.100000,-0.100000)"
fill="#000000" stroke="none">
<path d="M19550 19847 c-19 -7 -368 -206 -775 -441 -795 -459 -809 -468 -835
-561 -50 -178 112 -348 287 -302 45 12 1485 836 1560 893 17 13 44 49 59 79
23 48 26 64 22 118 -6 71 -23 111 -69 156 -17 17 -45 39 -62 48 -42 21 -143
27 -187 10z"/>
<path d="M20630 19844 c-59 -26 -101 -65 -126 -118 -42 -91 -28 -197 35 -266
47 -51 1510 -898 1584 -917 37 -9 62 -10 96 -2 104 23 172 90 193 192 16 73
-6 147 -60 205 -27 30 -234 154 -782 470 -410 236 -760 434 -779 440 -46 16
-119 14 -161 -4z"/>
<path d="M20091 19533 c-24 -9 -63 -35 -86 -58 -79 -79 -76 -27 -73 -1031 3
-845 4 -891 22 -924 48 -92 119 -134 221 -135 59 0 77 4 118 28 61 36 103 94
117 161 7 35 10 326 8 921 l-3 870 -30 54 c-35 63 -76 97 -141 117 -59 18 -97
17 -153 -3z"/>
<path d="M18085 18374 c-22 -8 -59 -33 -82 -56 -111 -109 -91 -289 40 -372 86
-55 1449 -838 1492 -857 79 -36 198 -16 264 44 13 12 34 45 47 72 44 92 26
201 -43 271 -35 35 -1514 890 -1565 904 -46 14 -106 11 -153 -6z"/>
<path d="M22085 18371 c-58 -26 -1484 -848 -1524 -878 -19 -15 -44 -49 -58
-80 -21 -45 -25 -66 -21 -123 3 -57 9 -77 34 -112 49 -70 103 -102 182 -106
45 -3 80 1 102 10 71 30 1506 862 1538 892 54 50 76 101 76 176 0 78 -24 131
-84 182 -68 59 -167 75 -245 39z"/>
<path d="M17558 18069 c-49 -14 -126 -83 -149 -134 -18 -38 -19 -88 -19 -940
0 -1020 -6 -943 84 -1022 99 -88 239 -80 333 19 65 68 63 29 63 1002 0 590 -4
894 -11 919 -13 48 -70 112 -122 139 -47 23 -127 31 -179 17z"/>
<path d="M22634 18064 c-52 -19 -111 -75 -135 -128 -18 -39 -19 -86 -19 -941
0 -855 1 -902 19 -941 57 -125 207 -177 330 -115 50 26 104 90 119 140 9 28
12 279 12 916 0 637 -3 888 -12 916 -15 51 -70 114 -121 140 -53 27 -140 33
-193 13z"/>
<path d="M19534 16901 c-48 -22 -1415 -807 -1491 -857 -64 -41 -102 -103 -110
-177 -17 -169 143 -304 305 -257 51 14 1530 870 1565 904 120 121 68 347 -92
395 -56 16 -130 13 -177 -8z"/>
<path d="M20613 16899 c-48 -24 -99 -77 -119 -125 -36 -86 -2 -225 67 -277 41
-30 1466 -852 1524 -878 78 -36 177 -20 245 39 60 51 84 104 84 182 0 75 -22
126 -76 176 -31 30 -1466 861 -1535 890 -49 21 -141 18 -190 -7z"/>
<path d="M20110 16601 c-71 -23 -122 -66 -156 -131 -18 -33 -19 -79 -22 -924
-3 -1005 -7 -952 74 -1032 114 -115 297 -87 378 57 l31 54 3 870 c2 595 -1
886 -8 921 -22 106 -110 183 -217 190 -32 2 -69 0 -83 -5z"/>
<path d="M18108 15446 c-127 -34 -204 -172 -168 -301 26 -93 40 -102 835 -561
407 -235 756 -434 775 -442 43 -18 142 -12 187 11 40 21 89 70 110 110 8 17
18 59 21 94 4 54 1 70 -22 118 -15 30 -42 66 -59 79 -77 59 -1515 881 -1562
893 -58 15 -56 15 -117 -1z"/>
<path d="M22120 15446 c-25 -6 -383 -206 -795 -444 -546 -315 -760 -444 -786
-472 -97 -106 -70 -287 54 -364 56 -34 135 -45 193 -26 22 7 374 206 784 442
548 316 755 440 782 470 54 58 76 132 60 206 -16 77 -57 131 -123 164 -68 33
-112 40 -169 24z"/>
<path d="M16330 13824 c-705 -47 -1329 -361 -1758 -886 -207 -253 -360 -572
-427 -891 -45 -210 -33 -303 50 -395 61 -68 128 -96 225 -96 89 0 147 24 209
85 53 53 77 110 95 221 24 150 62 264 136 413 243 489 711 820 1310 926 116
21 460 18 585 -5 240 -44 483 -143 693 -282 81 -54 158 -119 272 -229 145
-141 163 -155 216 -171 147 -42 305 28 367 165 33 71 30 179 -6 253 -52 106
-317 355 -528 496 -298 199 -681 339 -1039 381 -101 12 -322 20 -400 15z"/>
<path d="M2304 13709 c-70 -27 -128 -79 -161 -147 l-28 -57 0 -1355 c0 -1500
-4 -1407 66 -1668 136 -513 469 -931 904 -1132 151 -70 374 -130 485 -130 111
0 216 64 268 164 23 44 27 63 27 136 0 73 -4 92 -27 136 -30 57 -91 117 -142
138 -20 8 -74 22 -122 31 -231 43 -428 161 -573 340 -138 172 -218 354 -268
610 -16 82 -18 209 -23 1415 l-5 1325 -23 47 c-67 136 -236 202 -378 147z"/>
<path d="M5439 13711 c-60 -24 -111 -62 -141 -109 -56 -85 -53 0 -59 -1452 -5
-1317 -6 -1347 -26 -1440 -107 -488 -408 -813 -820 -885 -108 -19 -142 -34
-202 -90 -125 -117 -123 -317 4 -433 89 -82 170 -98 335 -66 279 52 543 191
758 399 323 310 512 730 552 1226 7 90 10 547 8 1384 l-3 1250 -27 57 c-68
145 -235 215 -379 159z"/>
<path d="M6412 13700 c-111 -56 -166 -145 -167 -270 0 -93 33 -169 101 -229
94 -82 -52 -76 1759 -76 1753 0 1644 -4 1732 57 83 57 143 187 128 281 -16
101 -81 193 -168 239 l-42 23 -1641 3 -1640 2 -62 -30z"/>
<path d="M10551 13708 c-65 -25 -134 -90 -164 -156 l-22 -47 0 -2060 0 -2060
28 -57 c49 -101 137 -158 252 -166 129 -8 237 57 294 178 l26 55 0 2050 0
2050 -24 53 c-67 147 -239 218 -390 160z"/>
<path d="M11397 13716 c-116 -42 -198 -154 -201 -276 -2 -125 56 -223 168
-280 l69 -35 1026 0 1026 0 56 26 c110 52 169 137 177 255 7 103 -16 163 -87
235 -96 96 -7 89 -1175 89 -833 -1 -1028 -3 -1059 -14z"/>
<path d="M8005 12878 c-50 -18 -107 -61 -142 -106 -67 -89 -64 22 -61 -1768 3
-1525 4 -1621 21 -1658 49 -109 145 -176 261 -184 131 -8 238 56 294 176 l27
57 0 1620 c0 1323 -2 1628 -13 1666 -21 72 -78 139 -151 176 -54 29 -72 33
-134 32 -40 0 -85 -5 -102 -11z"/>
<path d="M11415 11786 c-93 -29 -159 -88 -198 -175 -28 -63 -28 -169 0 -233
29 -65 94 -131 156 -159 l52 -24 774 -3 c867 -3 838 -5 929 67 74 59 107 132
107 236 0 104 -33 177 -107 235 -91 72 -62 70 -912 69 -584 0 -770 -3 -801
-13z"/>
<path d="M14317 11316 c-104 -38 -176 -124 -196 -234 -11 -55 6 -185 44 -334
70 -278 217 -566 408 -803 92 -113 294 -307 415 -398 319 -239 702 -399 1112
-463 163 -26 540 -26 695 -1 555 93 1000 323 1375 713 129 134 153 179 154
284 1 94 -27 162 -91 221 -94 87 -224 107 -341 52 -20 -9 -80 -61 -132 -116
-106 -110 -238 -221 -348 -292 -100 -64 -298 -158 -410 -195 -390 -126 -842
-111 -1226 41 -562 223 -961 688 -1051 1224 -19 117 -40 168 -88 222 -54 59
-118 87 -207 90 -46 2 -89 -2 -113 -11z"/>
<path d="M11454 9760 c-62 -9 -146 -53 -181 -95 -48 -56 -77 -134 -77 -206 0
-55 6 -78 32 -132 37 -74 73 -109 152 -146 l55 -26 1020 0 c1157 0 1072 -6
1168 84 77 71 92 108 92 221 0 110 -15 148 -87 216 -55 53 -90 71 -169 83 -74
13 -1923 13 -2005 1z"/>
<path d="M4691 6892 c-74 -37 -101 -120 -59 -182 13 -19 39 -43 58 -52 94 -48
203 15 203 115 0 56 -29 99 -83 121 -52 20 -77 20 -119 -2z"/>
<path d="M8660 6892 c-53 -26 -83 -77 -77 -130 12 -115 158 -160 243 -76 29
29 34 42 34 80 0 63 -23 102 -73 125 -52 23 -82 24 -127 1z"/>
<path d="M20714 6896 c-69 -30 -99 -108 -68 -172 25 -49 62 -75 115 -81 84 -8
152 51 152 131 0 57 -23 92 -76 117 -49 22 -81 23 -123 5z"/>
<path d="M2302 6423 c3 -466 3 -468 27 -528 71 -180 206 -285 403 -316 126
-20 271 7 376 68 63 37 134 113 171 183 56 106 61 148 61 628 l0 432 -114 0
-115 0 -3 -437 c-3 -387 -6 -443 -21 -484 -25 -65 -70 -114 -132 -145 -46 -22
-69 -27 -136 -27 -69 0 -88 4 -137 29 -61 32 -113 91 -134 152 -8 26 -13 161
-15 475 l-4 437 -115 0 -115 0 3 -467z"/>
<path d="M9760 6629 l0 -261 -50 45 c-118 106 -327 117 -472 25 -127 -81 -198
-222 -198 -399 0 -270 171 -452 425 -452 117 0 190 26 258 93 l47 47 0 -63 0
-64 105 0 105 0 0 645 0 645 -110 0 -110 0 0 -261z m-129 -357 c165 -86 181
-331 28 -442 -47 -34 -131 -54 -186 -44 -55 9 -129 52 -159 91 -79 103 -68
269 23 355 76 72 200 89 294 40z"/>
<path d="M12020 6634 l0 -256 -37 32 c-20 18 -62 45 -93 59 -49 23 -67 26
-165 26 -104 0 -114 -2 -176 -32 -173 -86 -270 -285 -240 -495 28 -201 148
-335 333 -374 136 -29 267 4 350 87 l48 48 0 -65 0 -65 103 3 102 3 3 643 2
642 -115 0 -115 0 0 -256z m-158 -346 c57 -17 121 -78 148 -140 32 -75 25
-178 -16 -245 -103 -166 -349 -157 -436 16 -23 44 -28 68 -28 126 0 114 52
196 152 240 40 17 127 19 180 3z"/>
<path d="M12920 6785 l0 -105 195 0 195 0 2 -537 3 -538 113 -3 112 -3 0 540
0 541 198 2 197 3 3 103 3 102 -511 0 -510 0 0 -105z"/>
<path d="M17940 6245 l0 -645 110 0 110 0 0 645 0 645 -110 0 -110 0 0 -645z"/>
<path d="M18845 6766 c-47 -68 -85 -127 -85 -130 0 -3 37 -6 83 -6 l82 0 130
130 130 130 -127 0 -127 0 -86 -124z"/>
<path d="M3980 6491 c-64 -20 -129 -72 -158 -126 -9 -16 -11 -7 -12 48 l0 67
-105 0 -105 0 0 -440 0 -441 108 3 107 3 5 280 c5 281 7 297 42 348 44 63 168
88 234 48 64 -39 68 -64 74 -386 l5 -290 110 0 110 0 0 315 c0 272 -2 323 -18
372 -24 80 -71 137 -142 173 -50 26 -71 30 -144 32 -47 1 -97 -1 -111 -6z"/>
<path d="M6350 6484 c-83 -22 -136 -51 -199 -109 -230 -214 -171 -607 112
-740 170 -80 364 -65 506 40 55 41 89 80 78 91 -2 3 -37 29 -77 59 l-72 54
-37 -36 c-71 -70 -165 -96 -260 -73 -68 16 -134 74 -155 137 -9 26 -16 48 -16
50 0 1 150 4 333 5 l332 3 -2 89 c-7 277 -164 447 -410 445 -43 0 -103 -7
-133 -15z m207 -169 c21 -9 46 -23 56 -33 28 -25 57 -87 57 -122 l0 -30 -220
0 -220 0 6 28 c17 69 71 140 124 161 39 15 156 13 197 -4z"/>
<path d="M7490 6491 c-50 -16 -89 -41 -129 -87 l-41 -47 0 62 0 61 -110 0
-110 0 0 -440 0 -441 108 3 107 3 5 271 5 271 28 41 c15 23 46 54 69 69 39 26
49 28 140 27 l98 0 0 102 c0 97 -1 102 -22 108 -31 8 -117 6 -148 -3z"/>
<path d="M7972 6484 c-67 -18 -84 -27 -134 -72 -73 -66 -103 -163 -79 -258 26
-102 90 -146 275 -189 62 -14 127 -35 144 -45 55 -34 54 -103 -1 -144 -24 -17
-43 -21 -110 -21 -74 0 -90 4 -161 38 -43 21 -80 36 -81 35 -16 -20 -85 -138
-85 -145 0 -13 111 -68 165 -82 167 -43 369 -7 464 82 50 47 71 100 71 180 0
154 -68 217 -293 271 -162 39 -193 62 -168 128 23 62 134 76 256 33 39 -14 74
-26 79 -27 11 -4 95 134 89 145 -9 16 -105 58 -165 72 -79 18 -196 18 -266 -1z"/>
<path d="M10468 6481 c-75 -24 -116 -51 -170 -109 -199 -213 -150 -604 92
-736 155 -84 362 -65 472 45 l48 48 0 -65 0 -65 103 3 102 3 3 448 2 447 -110
0 -110 0 0 -66 0 -66 -41 37 c-69 62 -140 89 -244 92 -67 2 -104 -2 -147 -16z
m266 -192 c57 -16 138 -101 155 -161 57 -202 -98 -379 -294 -338 -119 25 -195
124 -195 254 0 83 20 135 71 185 65 65 164 88 263 60z"/>
<path d="M14161 6485 c-229 -64 -364 -272 -330 -510 27 -194 165 -338 364
-380 87 -18 122 -18 206 -1 92 20 153 51 218 112 54 51 55 53 36 68 -11 8 -47
34 -80 59 l-59 45 -49 -44 c-143 -128 -379 -74 -413 94 l-6 32 331 0 331 0 0
78 c-1 203 -88 361 -238 430 -71 32 -225 41 -311 17z m242 -185 c41 -28 72
-78 82 -132 l7 -38 -221 0 c-251 0 -240 -5 -197 85 42 91 89 116 207 113 72
-3 91 -7 122 -28z"/>
<path d="M15207 6486 c-138 -40 -237 -122 -296 -245 -35 -74 -36 -79 -36 -196
0 -101 4 -129 23 -175 82 -202 307 -322 523 -277 81 16 166 52 212 89 l28 23
-75 80 -74 80 -28 -26 c-46 -42 -75 -53 -144 -53 -152 0 -260 122 -248 278 9
106 66 184 162 221 71 27 141 17 206 -29 l53 -38 74 74 74 73 -44 41 c-66 60
-141 86 -262 90 -65 2 -117 -1 -148 -10z"/>
<path d="M16170 6491 c-50 -16 -89 -41 -129 -87 l-41 -47 0 62 0 61 -105 0
-105 0 0 -440 0 -441 108 3 107 3 5 286 5 286 28 41 c35 53 90 82 158 82 64 0
104 -23 132 -75 21 -38 22 -57 27 -330 l5 -290 110 0 110 0 3 265 c4 380 -11
464 -98 549 -56 54 -131 81 -223 80 -40 0 -83 -4 -97 -8z"/>
<path d="M17121 6484 c-227 -61 -367 -278 -331 -512 31 -194 167 -335 365
-377 87 -18 122 -18 208 0 213 45 350 194 372 405 23 224 -120 427 -342 485
-71 19 -201 18 -272 -1z m244 -203 c52 -23 103 -74 126 -126 30 -64 26 -168
-8 -236 -92 -181 -351 -181 -445 0 -31 60 -37 142 -16 215 15 51 102 141 149
154 57 17 150 13 194 -7z"/>
<path d="M18703 6485 c-279 -76 -417 -377 -293 -643 38 -82 117 -164 194 -202
64 -31 176 -60 236 -60 60 0 173 29 237 60 72 36 158 123 192 196 127 270 -12
575 -296 649 -71 19 -201 18 -270 0z m235 -200 c49 -21 110 -80 133 -130 30
-64 26 -168 -8 -236 -92 -181 -351 -181 -445 0 -31 59 -37 142 -17 215 14 49
103 141 150 154 53 16 146 14 187 -3z"/>
<path d="M19787 6489 c-89 -21 -186 -89 -236 -167 -122 -190 -100 -454 50
-604 147 -147 408 -165 553 -37 l39 33 -5 -89 c-6 -126 -39 -184 -128 -231
-28 -15 -57 -19 -140 -19 -118 0 -160 14 -251 81 -28 20 -51 35 -53 33 -2 -2
-31 -42 -65 -88 -47 -64 -59 -86 -50 -97 24 -29 113 -77 187 -102 68 -22 94
-26 222 -26 156 -1 208 10 296 61 55 31 131 113 154 166 52 117 53 133 58 620
l3 457 -110 0 -111 0 0 -56 0 -57 -49 46 c-80 75 -233 107 -364 76z m256 -200
c49 -13 115 -73 138 -124 25 -55 25 -176 0 -230 -41 -88 -124 -138 -231 -138
-106 0 -187 49 -231 141 -27 55 -30 156 -7 212 51 120 190 178 331 139z"/>
<path d="M21427 6485 c-84 -23 -152 -63 -209 -123 -98 -102 -134 -204 -125
-351 6 -102 31 -175 85 -246 104 -137 292 -207 463 -172 81 16 166 52 212 89
l28 23 -74 80 -75 80 -28 -26 c-46 -42 -75 -53 -144 -53 -154 0 -262 125 -247
287 12 136 127 236 261 225 42 -3 65 -13 106 -42 l53 -38 76 76 76 76 -30 25
c-87 73 -183 106 -305 104 -41 0 -97 -7 -123 -14z"/>
<path d="M22245 6480 c-109 -35 -210 -134 -255 -249 -28 -71 -38 -228 -20
-309 40 -182 166 -303 348 -333 125 -21 259 18 332 97 l40 44 0 -65 0 -65 105
0 105 0 0 450 0 450 -110 0 -110 0 0 -66 0 -66 -51 46 c-91 82 -249 109 -384
66z m280 -194 c102 -43 158 -131 157 -246 0 -56 -5 -79 -29 -122 -51 -94 -156
-148 -260 -132 -64 9 -142 61 -177 117 -23 38 -30 62 -34 121 -4 64 -1 81 20
128 27 59 85 115 139 134 47 17 143 17 184 0z"/>
<path d="M4642 6043 l3 -438 108 -3 107 -3 0 441 0 440 -110 0 -110 0 2 -437z"/>
<path d="M4994 6472 c3 -5 71 -170 151 -368 81 -197 160 -392 177 -432 l30
-73 116 3 116 3 172 435 171 435 -110 3 c-60 1 -111 1 -114 -1 -2 -3 -54 -134
-115 -293 -61 -159 -114 -293 -118 -297 -4 -4 -58 127 -121 292 l-114 301
-123 0 c-68 0 -121 -4 -118 -8z"/>
<path d="M8612 6043 l3 -438 108 -3 107 -3 0 441 0 440 -110 0 -110 0 2 -437z"/>
<path d="M20662 6043 l3 -438 110 0 110 0 3 438 2 437 -115 0 -115 0 2 -437z"/>
</g>
</svg>
